<?xml version="1.0" encoding="UTF-8" ?>
<!DOCTYPE svg PUBLIC "-//W3C//DTD SVG 1.1//EN" "http://www.w3.org/Graphics/SVG/1.1/DTD/svg11.dtd">
<svg width="512pt" height="512pt" viewBox="0 0 512 512" version="1.1" xmlns="http://www.w3.org/2000/svg">
<g id="#EFEFF5ff">
<path fill="#EFEFF5" opacity="1.00" d=" M 211.41 44.63 C 245.93 37.43 282.23 38.68 316.11 48.53 C 364.63 62.37 407.60 94.09 435.62 135.99 C 431.11 136.16 426.56 135.62 422.08 136.23 C 418.38 136.96 416.26 140.54 415.70 144.02 C 407.88 144.05 400.06 143.90 392.24 144.01 C 391.70 141.79 391.08 139.36 389.17 137.90 C 386.40 135.39 382.42 136.04 379.01 135.97 C 349.34 136.02 319.67 135.97 290.00 136.00 C 282.42 136.01 274.71 135.97 267.37 133.84 C 260.08 131.96 253.44 128.11 247.76 123.23 C 237.60 114.42 229.83 103.20 219.33 94.76 C 211.73 88.54 202.73 83.79 193.05 81.88 C 188.73 81.03 184.97 84.48 183.86 88.43 C 176.00 87.84 168.11 87.95 160.24 88.06 C 159.77 84.26 157.18 80.37 153.05 80.13 C 145.70 79.79 138.32 80.07 130.96 79.99 C 154.87 62.69 182.57 50.75 211.41 44.63 Z" />
<path fill="#EFEFF5" opacity="1.00" d=" M 463.71 217.34 C 463.64 210.25 463.64 203.16 463.73 196.08 C 465.59 204.06 467.72 211.99 468.98 220.11 C 467.26 219.11 465.48 218.23 463.71 217.34 Z" />
<path fill="#EFEFF5" opacity="1.00" d=" M 188.24 424.22 C 196.07 423.53 203.92 424.10 211.76 424.15 C 212.20 428.73 216.26 432.51 220.97 432.00 C 274.34 432.01 327.71 432.01 381.08 432.00 C 346.29 457.00 303.81 471.03 261.00 471.88 C 214.84 473.10 168.41 458.96 130.90 432.02 C 147.30 431.94 163.71 432.12 180.11 431.95 C 184.47 432.10 187.63 428.24 188.24 424.22 Z" />
</g>
<g id="#663399ff">
<path fill="#663399" opacity="1.00" d=" M 48.26 105.01 C 47.93 91.55 60.51 79.30 73.96 79.99 C 92.96 79.99 111.96 79.99 130.96 79.99 C 138.32 80.07 145.70 79.79 153.05 80.13 C 157.18 80.37 159.77 84.26 160.24 88.06 C 159.68 90.28 159.03 92.69 157.11 94.13 C 154.92 96.15 151.79 95.99 149.03 96.04 C 125.69 95.97 102.35 96.04 79.01 96.00 C 75.48 96.06 71.85 95.63 68.40 96.56 C 65.26 97.51 64.18 101.02 64.26 103.98 C 64.27 122.65 64.28 141.32 64.26 159.99 C 96.85 160.01 129.44 159.95 162.03 160.02 C 175.94 160.18 189.91 164.41 200.98 172.95 C 213.25 181.96 221.66 195.07 233.47 204.59 C 241.02 210.80 250.48 214.51 260.19 215.48 C 271.12 216.60 282.13 215.55 293.08 216.14 C 297.10 216.43 299.79 220.18 300.24 223.94 C 299.72 226.20 299.07 228.64 297.14 230.11 C 294.36 232.58 290.38 231.95 286.97 232.06 C 276.29 231.75 265.53 232.65 254.94 230.88 C 245.02 229.30 235.45 225.52 227.22 219.74 C 217.00 212.79 209.22 203.06 200.77 194.19 C 194.63 187.74 187.54 181.84 179.00 178.94 C 171.35 176.08 163.08 175.96 155.03 175.99 C 124.01 176.04 92.99 175.99 61.97 176.01 C 59.00 176.03 55.99 175.77 53.06 176.36 C 50.59 176.87 48.74 179.09 48.48 181.57 C 47.79 187.00 48.83 192.52 47.98 197.95 C 47.27 201.58 43.75 203.78 40.27 204.15 C 36.05 204.01 32.21 200.39 32.30 196.08 C 32.25 191.43 32.14 186.76 32.39 182.11 C 33.34 173.00 40.06 165.29 48.22 161.60 C 48.32 142.74 48.24 123.87 48.26 105.01 Z" />
<path fill="#663399" opacity="1.00" d=" M 183.86 88.43 C 184.97 84.48 188.73 81.03 193.05 81.88 C 202.73 83.79 211.73 88.54 219.33 94.76 C 229.83 103.20 237.60 114.42 247.76 123.23 C 253.44 128.11 260.08 131.96 267.37 133.84 C 274.71 135.97 282.42 136.01 290.00 136.00 C 319.67 135.97 349.34 136.02 379.01 135.97 C 382.42 136.04 386.40 135.39 389.17 137.90 C 391.08 139.36 391.70 141.79 392.24 144.01 C 391.81 148.17 388.54 152.16 384.09 151.95 C 357.40 152.10 330.70 151.96 304.00 152.02 C 291.04 151.77 277.84 152.98 265.15 149.67 C 254.52 147.05 244.65 141.67 236.45 134.46 C 225.83 125.47 217.95 113.62 206.75 105.27 C 201.53 101.24 195.30 98.93 189.04 97.09 C 185.33 95.99 183.80 91.99 183.86 88.43 Z" />
<path fill="#663399" opacity="1.00" d=" M 415.70 144.02 C 416.26 140.54 418.38 136.96 422.08 136.23 C 426.56 135.62 431.11 136.16 435.62 135.99 C 443.51 135.33 451.80 137.87 457.34 143.67 C 461.53 148.49 463.80 154.92 463.75 161.29 C 463.61 172.89 463.65 184.48 463.73 196.08 C 463.64 203.16 463.64 210.25 463.71 217.34 C 465.48 218.23 467.26 219.11 468.98 220.11 C 476.63 224.81 480.34 234.36 479.57 243.08 C 477.07 278.92 472.32 314.55 467.45 350.13 C 464.60 370.40 461.63 390.64 458.44 410.87 C 456.88 421.81 447.01 430.75 436.16 431.98 C 417.80 432.05 399.44 431.99 381.08 432.00 C 327.71 432.01 274.34 432.01 220.97 432.00 C 216.26 432.51 212.20 428.73 211.76 424.15 C 212.19 420.86 213.97 417.47 217.34 416.45 C 220.81 415.61 224.44 416.04 227.98 415.98 C 296.67 416.02 365.37 415.96 434.06 416.01 C 436.19 415.93 438.61 415.88 440.26 414.31 C 442.19 412.45 442.38 409.61 442.85 407.14 C 443.99 399.42 445.20 391.71 446.36 383.99 C 421.89 384.04 397.42 383.97 372.95 384.03 C 369.35 384.28 365.64 382.21 364.46 378.71 C 362.38 373.83 366.61 367.84 371.88 368.01 C 397.50 367.96 423.12 368.02 448.74 367.98 C 454.69 325.77 460.73 283.52 463.66 240.97 C 464.40 236.57 460.65 231.80 456.08 232.01 C 414.69 231.97 373.29 232.09 331.90 231.96 C 327.41 232.17 324.17 228.06 323.76 223.90 C 324.26 219.81 327.46 215.88 331.86 216.05 C 370.45 215.89 409.05 216.06 447.64 215.97 C 447.72 197.33 447.61 178.68 447.70 160.04 C 447.99 155.93 444.25 151.85 440.09 152.02 C 434.11 151.70 428.09 152.51 422.14 151.74 C 418.42 151.08 416.30 147.47 415.70 144.02 Z" />
<path fill="#663399" opacity="1.00" d=" M 32.63 236.00 C 32.42 231.72 36.20 228.22 40.30 227.84 C 44.28 228.03 48.30 230.90 48.49 235.13 C 49.29 248.75 50.49 262.35 51.91 275.92 C 56.72 320.09 63.08 364.08 69.86 407.99 C 70.31 410.25 70.57 412.88 72.46 414.47 C 73.96 415.77 76.03 415.92 77.92 415.99 C 112.00 416.03 146.08 415.92 180.15 416.04 C 184.66 415.84 187.88 420.03 188.24 424.22 C 187.63 428.24 184.47 432.10 180.11 431.95 C 163.71 432.12 147.30 431.94 130.90 432.02 C 113.59 431.98 96.27 432.03 78.96 432.00 C 67.11 432.24 55.85 422.70 54.12 410.98 C 47.55 368.46 41.40 325.86 36.59 283.10 C 34.95 267.43 33.26 251.75 32.63 236.00 Z" />
</g>
<g id="#54D8A3ff">
<path fill="#54D8A3" opacity="1.00" d=" M 160.24 88.06 C 168.11 87.95 176.00 87.84 183.86 88.43 C 183.80 91.99 185.33 95.99 189.04 97.09 C 195.30 98.93 201.53 101.24 206.75 105.27 C 217.95 113.62 225.83 125.47 236.45 134.46 C 244.65 141.67 254.52 147.05 265.15 149.67 C 277.84 152.98 291.04 151.77 304.00 152.02 C 330.70 151.96 357.40 152.10 384.09 151.95 C 388.54 152.16 391.81 148.17 392.24 144.01 C 400.06 143.90 407.88 144.05 415.70 144.02 C 416.30 147.47 418.42 151.08 422.14 151.74 C 428.09 152.51 434.11 151.70 440.09 152.02 C 444.25 151.85 447.99 155.93 447.70 160.04 C 447.61 178.68 447.72 197.33 447.64 215.97 C 409.05 216.06 370.45 215.89 331.86 216.05 C 327.46 215.88 324.26 219.81 323.76 223.90 C 315.92 224.27 308.08 223.89 300.24 223.94 C 299.79 220.18 297.10 216.43 293.08 216.14 C 282.13 215.55 271.12 216.60 260.19 215.48 C 250.48 214.51 241.02 210.80 233.47 204.59 C 221.66 195.07 213.25 181.96 200.98 172.95 C 189.91 164.41 175.94 160.18 162.03 160.02 C 129.44 159.95 96.85 160.01 64.26 159.99 C 64.28 141.32 64.27 122.65 64.26 103.98 C 64.18 101.02 65.26 97.51 68.40 96.56 C 71.85 95.63 75.48 96.06 79.01 96.00 C 102.35 96.04 125.69 95.97 149.03 96.04 C 151.79 95.99 154.92 96.15 157.11 94.13 C 159.03 92.69 159.68 90.28 160.24 88.06 Z" />
</g>
<g id="#fdfdfdff">
<path fill="#fdfdfd" opacity="1.00" d=" M 48.48 181.57 C 48.74 179.09 50.59 176.87 53.06 176.36 C 55.99 175.77 59.00 176.03 61.97 176.01 C 92.99 175.99 124.01 176.04 155.03 175.99 C 163.08 175.96 171.35 176.08 179.00 178.94 C 187.54 181.84 194.63 187.74 200.77 194.19 C 209.22 203.06 217.00 212.79 227.22 219.74 C 235.45 225.52 245.02 229.30 254.94 230.88 C 265.53 232.65 276.29 231.75 286.97 232.06 C 290.38 231.95 294.36 232.58 297.14 230.11 C 299.07 228.64 299.72 226.20 300.24 223.94 C 308.08 223.89 315.92 224.27 323.76 223.90 C 324.17 228.06 327.41 232.17 331.90 231.96 C 373.29 232.09 414.69 231.97 456.08 232.01 C 460.65 231.80 464.40 236.57 463.66 240.97 C 460.73 283.52 454.69 325.77 448.74 367.98 C 423.12 368.02 397.50 367.96 371.88 368.01 C 366.61 367.84 362.38 373.83 364.46 378.71 C 365.64 382.21 369.35 384.28 372.95 384.03 C 397.42 383.97 421.89 384.04 446.36 383.99 C 445.20 391.71 443.99 399.42 442.85 407.14 C 442.38 409.61 442.19 412.45 440.26 414.31 C 438.61 415.88 436.19 415.93 434.06 416.01 C 365.37 415.96 296.67 416.02 227.98 415.98 C 224.44 416.04 220.81 415.61 217.34 416.45 C 213.97 417.47 212.19 420.86 211.76 424.15 C 203.92 424.10 196.07 423.53 188.24 424.22 C 187.88 420.03 184.66 415.84 180.15 416.04 C 146.08 415.92 112.00 416.03 77.92 415.99 C 76.03 415.92 73.96 415.77 72.46 414.47 C 70.57 412.88 70.31 410.25 69.86 407.99 C 63.08 364.08 56.72 320.09 51.91 275.92 C 50.49 262.35 49.29 248.75 48.49 235.13 C 48.30 230.90 44.28 228.03 40.30 227.84 C 40.26 219.94 40.26 212.05 40.27 204.15 C 43.75 203.78 47.27 201.58 47.98 197.95 C 48.83 192.52 47.79 187.00 48.48 181.57 Z" />
</g>
</svg>
