<?xml version="1.0" encoding="UTF-8" ?>
<!DOCTYPE svg PUBLIC "-//W3C//DTD SVG 1.1//EN" "http://www.w3.org/Graphics/SVG/1.1/DTD/svg11.dtd">
<svg width="512pt" height="512pt" viewBox="0 0 512 512" version="1.1" xmlns="http://www.w3.org/2000/svg">
<g id="#663399ff">
<path fill="#663399" opacity="1.00" d=" M 246.52 40.20 C 248.59 36.54 251.03 31.78 255.95 31.98 C 260.80 31.78 263.54 36.32 265.34 40.15 C 276.65 59.10 292.93 74.95 311.97 86.06 C 315.66 88.02 316.85 92.77 315.29 96.50 C 313.20 100.42 308.00 102.33 304.07 99.94 C 284.94 88.85 268.49 73.28 255.94 55.10 C 239.11 80.11 214.31 99.33 186.38 110.47 C 157.83 121.95 126.68 126.16 96.03 124.73 C 95.90 132.66 96.10 140.58 96.06 148.50 C 114.42 149.64 132.87 148.36 151.02 145.51 C 155.29 144.65 158.86 148.10 160.07 151.91 C 160.47 156.31 157.54 160.92 152.90 161.32 C 134.21 164.50 115.16 165.45 96.23 164.57 C 96.28 180.41 96.99 196.24 97.57 212.07 C 97.78 216.43 93.88 219.62 89.86 220.24 C 87.63 219.74 85.20 219.18 83.65 217.35 C 81.74 215.42 81.64 212.54 81.49 210.01 C 80.25 183.64 79.97 157.25 80.00 130.86 C 80.07 125.89 79.84 120.92 80.03 115.96 C 79.92 112.11 83.04 108.54 86.85 108.09 C 90.56 107.72 94.23 108.73 97.93 108.82 C 132.86 110.39 168.89 104.05 199.41 86.39 C 218.65 75.25 235.03 59.24 246.52 40.20 Z" />
<path fill="#663399" opacity="1.00" d=" M 250.36 98.35 C 253.52 94.98 259.17 95.44 262.23 98.70 C 274.56 111.25 289.46 121.10 305.32 128.63 C 339.66 144.67 378.22 150.26 415.88 148.59 C 415.93 140.62 416.09 132.65 415.94 124.69 C 392.33 125.92 368.47 123.65 345.67 117.30 C 341.36 116.24 339.34 111.46 340.11 107.36 C 341.53 104.28 344.35 101.47 348.01 101.70 C 351.78 102.13 355.40 103.39 359.11 104.18 C 377.08 108.24 395.61 109.76 414.00 108.72 C 417.37 108.60 420.71 108.13 424.08 108.04 C 428.35 107.87 432.13 111.76 431.97 116.01 C 432.04 120.97 432.02 125.94 432.01 130.90 C 432.01 163.67 431.91 196.47 429.20 229.15 C 427.95 244.10 426.48 259.04 424.47 273.90 C 423.96 278.31 419.50 281.03 415.30 280.69 C 411.11 279.63 407.77 275.56 408.69 271.10 C 413.30 235.81 415.72 200.22 415.84 164.63 C 376.18 166.07 335.69 160.11 299.43 143.48 C 283.65 136.16 268.87 126.64 255.93 115.00 C 237.95 130.90 216.88 143.48 194.03 150.93 C 189.88 152.37 185.86 149.48 184.19 145.81 C 183.13 141.38 185.59 136.56 190.12 135.44 C 212.64 127.77 233.34 114.96 250.36 98.35 Z" />
<path fill="#663399" opacity="1.00" d=" M 212.21 239.97 C 214.35 218.70 233.57 200.53 255.02 200.01 C 273.88 199.52 291.55 213.00 297.66 230.58 C 301.73 241.63 300.28 254.27 294.51 264.44 C 291.63 270.07 286.90 274.31 282.66 278.86 C 301.92 288.85 317.11 307.97 319.63 329.85 C 319.95 333.78 320.89 338.54 317.72 341.62 C 310.29 349.19 300.13 353.43 290.03 356.10 C 285.64 357.50 281.14 354.30 280.02 350.06 C 279.47 346.11 281.65 341.77 285.71 340.78 C 292.10 338.93 298.56 336.83 303.97 332.80 C 302.93 318.95 295.67 305.74 284.41 297.58 C 273.58 289.41 259.19 286.06 245.93 289.13 C 225.61 293.42 209.21 311.95 208.09 332.80 C 220.00 341.12 234.87 342.97 249.00 343.98 C 253.15 344.15 255.83 348.06 256.16 351.91 C 255.85 355.68 253.03 359.29 249.14 359.73 C 244.38 359.91 239.63 359.28 234.93 358.65 C 221.91 356.73 208.55 353.29 198.00 345.07 C 194.85 342.64 191.44 339.36 192.01 334.98 C 192.50 310.96 208.79 289.26 229.79 278.63 C 218.09 269.70 210.60 254.81 212.21 239.97 M 249.46 216.62 C 245.04 217.50 240.83 219.46 237.38 222.36 C 224.22 233.40 224.87 256.97 239.01 266.93 C 250.03 274.50 266.60 273.73 276.21 264.14 C 287.37 252.86 286.60 231.79 274.03 221.85 C 267.21 216.42 257.86 215.01 249.46 216.62 Z" />
<path fill="#663399" opacity="1.00" d=" M 85.01 249.97 C 85.72 246.67 88.76 244.68 91.81 243.80 C 95.97 243.70 100.19 246.53 100.62 250.87 C 104.11 281.86 109.58 312.88 120.56 342.18 C 131.30 371.40 148.24 398.63 171.45 419.55 C 174.96 422.37 175.09 427.56 172.50 431.04 C 169.51 433.89 164.51 434.80 161.28 431.82 C 141.65 414.47 126.25 392.67 114.90 369.13 C 98.47 334.96 90.17 297.50 85.62 260.04 C 85.28 256.70 84.44 253.32 85.01 249.97 Z" />
<path fill="#663399" opacity="1.00" d=" M 398.25 320.87 C 399.13 316.29 403.82 313.36 408.36 314.30 C 410.53 315.40 412.80 316.81 413.65 319.24 C 414.75 321.75 413.98 324.51 413.24 327.00 C 409.20 340.15 404.65 353.18 398.73 365.62 C 385.65 393.93 366.46 419.57 342.00 439.04 C 325.93 451.90 307.74 461.95 288.71 469.72 C 277.98 473.65 267.19 477.79 255.96 479.99 C 244.73 477.82 233.91 473.81 223.25 469.73 C 213.56 465.77 204.04 461.35 194.97 456.12 C 190.95 454.05 189.81 448.88 191.76 444.97 C 194.20 441.60 198.95 439.88 202.70 442.18 C 216.77 450.01 231.60 456.49 247.01 461.18 C 250.91 462.24 254.99 464.27 259.07 462.82 C 292.55 453.54 324.65 437.04 348.88 411.77 C 373.34 386.73 388.86 354.30 398.25 320.87 Z" />
</g>
<g id="#EFEFF5ff">
<path fill="#EFEFF5" opacity="1.00" d=" M 265.34 40.15 C 299.39 41.76 333.09 51.21 362.68 68.20 C 381.73 78.98 399.01 92.79 414.00 108.72 C 395.61 109.76 377.08 108.24 359.11 104.18 C 355.40 103.39 351.78 102.13 348.01 101.70 C 344.35 101.47 341.53 104.28 340.11 107.36 C 331.60 104.42 322.73 101.71 315.29 96.50 C 316.85 92.77 315.66 88.02 311.97 86.06 C 292.93 74.95 276.65 59.10 265.34 40.15 Z" />
<path fill="#EFEFF5" opacity="1.00" d=" M 149.96 67.82 C 179.36 51.13 212.76 41.70 246.52 40.20 C 235.03 59.24 218.65 75.25 199.41 86.39 C 168.89 104.05 132.86 110.39 97.93 108.82 C 113.05 92.61 130.64 78.69 149.96 67.82 Z" />
<path fill="#EFEFF5" opacity="1.00" d=" M 42.86 220.94 C 48.13 188.60 60.90 157.48 80.00 130.86 C 79.97 157.25 80.25 183.64 81.49 210.01 C 81.64 212.54 81.74 215.42 83.65 217.35 C 85.20 219.18 87.63 219.74 89.86 220.24 C 91.16 228.04 91.11 235.95 91.81 243.80 C 88.76 244.68 85.72 246.67 85.01 249.97 C 84.44 253.32 85.28 256.70 85.62 260.04 C 90.17 297.50 98.47 334.96 114.90 369.13 C 126.25 392.67 141.65 414.47 161.28 431.82 C 164.51 434.80 169.51 433.89 172.50 431.04 C 178.67 436.01 185.18 440.55 191.76 444.97 C 189.81 448.88 190.95 454.05 194.97 456.12 C 204.04 461.35 213.56 465.77 223.25 469.73 C 208.31 466.89 193.43 463.47 179.24 457.91 C 149.73 446.71 122.76 428.89 100.83 406.20 C 76.62 381.25 58.54 350.37 48.78 316.99 C 39.63 285.96 37.68 252.86 42.86 220.94 Z" />
<path fill="#EFEFF5" opacity="1.00" d=" M 432.01 130.90 C 461.18 171.45 475.25 222.44 471.33 272.21 C 468.36 314.06 452.65 354.87 426.91 387.98 C 401.06 421.58 365.06 447.29 324.84 460.72 C 313.10 464.86 300.89 467.33 288.71 469.72 C 307.74 461.95 325.93 451.90 342.00 439.04 C 366.46 419.57 385.65 393.93 398.73 365.62 C 404.65 353.18 409.20 340.15 413.24 327.00 C 413.98 324.51 414.75 321.75 413.65 319.24 C 412.80 316.81 410.53 315.40 408.36 314.30 C 409.38 308.80 411.18 303.48 412.26 297.99 C 413.59 292.28 413.88 286.38 415.30 280.69 C 419.50 281.03 423.96 278.31 424.47 273.90 C 426.48 259.04 427.95 244.10 429.20 229.15 C 431.91 196.47 432.01 163.67 432.01 130.90 Z" />
</g>
<g id="#54D8A3ff">
<path fill="#54D8A3" opacity="1.00" d=" M 186.38 110.47 C 214.31 99.33 239.11 80.11 255.94 55.10 C 268.49 73.28 284.94 88.85 304.07 99.94 C 308.00 102.33 313.20 100.42 315.29 96.50 C 322.73 101.71 331.60 104.42 340.11 107.36 C 339.34 111.46 341.36 116.24 345.67 117.30 C 368.47 123.65 392.33 125.92 415.94 124.69 C 416.09 132.65 415.93 140.62 415.88 148.59 C 378.22 150.26 339.66 144.67 305.32 128.63 C 289.46 121.10 274.56 111.25 262.23 98.70 C 259.17 95.44 253.52 94.98 250.36 98.35 C 233.34 114.96 212.64 127.77 190.12 135.44 C 185.59 136.56 183.13 141.38 184.19 145.81 C 176.27 148.30 168.24 150.42 160.07 151.91 C 158.86 148.10 155.29 144.65 151.02 145.51 C 132.87 148.36 114.42 149.64 96.06 148.50 C 96.10 140.58 95.90 132.66 96.03 124.73 C 126.68 126.16 157.83 121.95 186.38 110.47 Z" />
<path fill="#54D8A3" opacity="1.00" d=" M 249.46 216.62 C 257.86 215.01 267.21 216.42 274.03 221.85 C 286.60 231.79 287.37 252.86 276.21 264.14 C 266.60 273.73 250.03 274.50 239.01 266.93 C 224.87 256.97 224.22 233.40 237.38 222.36 C 240.83 219.46 245.04 217.50 249.46 216.62 Z" />
<path fill="#54D8A3" opacity="1.00" d=" M 245.93 289.13 C 259.19 286.06 273.58 289.41 284.41 297.58 C 295.67 305.74 302.93 318.95 303.97 332.80 C 298.56 336.83 292.10 338.93 285.71 340.78 C 281.65 341.77 279.47 346.11 280.02 350.06 C 272.16 351.54 264.15 352.06 256.16 351.91 C 255.83 348.06 253.15 344.15 249.00 343.98 C 234.87 342.97 220.00 341.12 208.09 332.80 C 209.21 311.95 225.61 293.42 245.93 289.13 Z" />
</g>
<g id="#fdfdfdff">
<path fill="#fdfdfd" opacity="1.00" d=" M 194.03 150.93 C 216.88 143.48 237.95 130.90 255.93 115.00 C 268.87 126.64 283.65 136.16 299.43 143.48 C 335.69 160.11 376.18 166.07 415.84 164.63 C 415.72 200.22 413.30 235.81 408.69 271.10 C 407.77 275.56 411.11 279.63 415.30 280.69 C 413.88 286.38 413.59 292.28 412.26 297.99 C 411.18 303.48 409.38 308.80 408.36 314.30 C 403.82 313.36 399.13 316.29 398.25 320.87 C 388.86 354.30 373.34 386.73 348.88 411.77 C 324.65 437.04 292.55 453.54 259.07 462.82 C 254.99 464.27 250.91 462.24 247.01 461.18 C 231.60 456.49 216.77 450.01 202.70 442.18 C 198.95 439.88 194.20 441.60 191.76 444.97 C 185.18 440.55 178.67 436.01 172.50 431.04 C 175.09 427.56 174.96 422.37 171.45 419.55 C 148.24 398.63 131.30 371.40 120.56 342.18 C 109.58 312.88 104.11 281.86 100.62 250.87 C 100.19 246.53 95.97 243.70 91.81 243.80 C 91.11 235.95 91.16 228.04 89.86 220.24 C 93.88 219.62 97.78 216.43 97.57 212.07 C 96.99 196.24 96.28 180.41 96.23 164.57 C 115.16 165.45 134.21 164.50 152.90 161.32 C 157.54 160.92 160.47 156.31 160.07 151.91 C 168.24 150.42 176.27 148.30 184.19 145.81 C 185.86 149.48 189.88 152.37 194.03 150.93 M 212.21 239.97 C 210.60 254.81 218.09 269.70 229.79 278.63 C 208.79 289.26 192.50 310.96 192.01 334.98 C 191.44 339.36 194.85 342.64 198.00 345.07 C 208.55 353.29 221.91 356.73 234.93 358.65 C 239.63 359.28 244.38 359.91 249.14 359.73 C 253.03 359.29 255.85 355.68 256.16 351.91 C 264.15 352.06 272.16 351.54 280.02 350.06 C 281.14 354.30 285.64 357.50 290.03 356.10 C 300.13 353.43 310.29 349.19 317.72 341.62 C 320.89 338.54 319.95 333.78 319.63 329.85 C 317.11 307.97 301.92 288.85 282.66 278.86 C 286.90 274.31 291.63 270.07 294.51 264.44 C 300.28 254.27 301.73 241.63 297.66 230.58 C 291.55 213.00 273.88 199.52 255.02 200.01 C 233.57 200.53 214.35 218.70 212.21 239.97 Z" />
</g>
</svg>
