<svg width="2350" height="1268" viewBox="0 0 2350 1268" fill="none" xmlns="http://www.w3.org/2000/svg">
<g clip-path="url(#clip0_1_3)">
<rect width="2350" height="1268" fill="white"/>
<path d="M1172 1887C1898.61 1887 2488 1404.09 2488 808C2488 211.908 1898.61 -271 1172 -271C445.388 -271 -144 211.908 -144 808C-144 1404.09 445.388 1887 1172 1887Z" fill="white" stroke="#D4D4D4" stroke-width="2"/>
<path d="M1175.5 1944C1770.54 1944 2253 1485.14 2253 919C2253 352.862 1770.54 -106 1175.5 -106C580.461 -106 98 352.862 98 919C98 1485.14 580.461 1944 1175.5 1944Z" fill="white" stroke="#D4D4D4" stroke-width="2"/>
<path d="M1173 1844C1612.12 1844 1968 1468.54 1968 1005.5C1968 542.46 1612.12 167 1173 167C733.884 167 378 542.46 378 1005.5C378 1468.54 733.884 1844 1173 1844Z" fill="white" stroke="#D4D4D4" stroke-width="2"/>
<path d="M1173.5 1582C1475.92 1582 1721 1324.97 1721 1008C1721 691.034 1475.92 434 1173.5 434C871.08 434 626 691.034 626 1008C626 1324.97 871.08 1582 1173.5 1582Z" fill="white" stroke="#D4D4D4" stroke-width="2"/>
<path d="M1176.5 1474C1352.59 1474 1495 1298.29 1495 1082C1495 865.709 1352.59 690 1176.5 690C1000.41 690 858 865.709 858 1082C858 1298.29 1000.41 1474 1176.5 1474Z" fill="white" stroke="#D4D4D4" stroke-width="2"/>
</g>
<defs>
<clipPath id="clip0_1_3">
<rect width="2350" height="1268" fill="white"/>
</clipPath>
</defs>
</svg>
