<?xml version="1.0" encoding="UTF-8" ?>
<!DOCTYPE svg PUBLIC "-//W3C//DTD SVG 1.1//EN" "http://www.w3.org/Graphics/SVG/1.1/DTD/svg11.dtd">
<svg width="512pt" height="512pt" viewBox="0 0 512 512" version="1.1" xmlns="http://www.w3.org/2000/svg">
<g id="#F6F7FBff">
<path fill="#F6F7FB" opacity="1.00" d=" M 175.57 55.53 C 203.55 44.25 233.93 39.06 264.06 40.20 C 320.07 42.00 374.98 66.87 413.09 107.97 C 380.37 108.06 347.65 107.92 314.94 108.03 C 308.41 107.62 304.24 116.44 308.82 121.15 C 324.34 137.15 340.37 152.68 355.83 168.73 C 345.06 179.67 334.11 190.44 323.35 201.38 C 319.90 204.55 320.87 209.60 323.11 213.15 C 318.98 217.00 315.19 221.19 311.16 225.14 C 308.91 224.17 306.62 222.74 304.07 223.10 C 301.76 223.25 299.95 224.82 298.37 226.35 C 286.54 238.32 274.64 250.21 262.74 262.11 C 261.47 261.10 260.19 260.09 259.04 258.95 C 246.00 245.67 232.73 232.61 219.68 219.33 C 217.00 216.61 214.28 212.85 209.99 213.17 C 207.35 212.98 205.23 214.75 203.52 216.52 C 157.51 263.72 111.62 311.04 65.56 358.19 C 51.67 331.80 42.86 302.68 40.70 272.91 C 37.83 236.58 44.24 199.52 59.46 166.39 C 82.09 116.40 124.57 75.81 175.57 55.53 Z" />
<path fill="#F6F7FB" opacity="1.00" d=" M 419.25 233.20 C 420.46 233.02 421.20 234.29 422.08 234.91 C 436.41 249.25 450.59 263.74 464.91 278.09 C 466.50 279.65 468.40 280.85 470.32 281.98 C 465.83 321.57 449.65 359.68 424.76 390.75 C 401.14 420.36 369.64 443.64 334.31 457.31 C 287.00 475.86 233.06 476.82 185.10 460.04 C 144.39 445.99 108.17 419.34 82.60 384.71 C 122.22 366.03 161.50 346.56 201.79 329.34 C 220.29 347.47 238.32 366.08 256.71 384.32 C 259.21 387.01 263.54 387.64 266.67 385.68 C 269.45 383.85 271.50 381.18 273.86 378.87 C 319.80 332.81 365.61 286.60 411.60 240.59 C 414.14 238.12 416.41 235.34 419.25 233.20 Z" />
</g>
<g id="#663399ff">
<path fill="#663399" opacity="1.00" d=" M 308.82 121.15 C 304.24 116.44 308.41 107.62 314.94 108.03 C 347.65 107.92 380.37 108.06 413.09 107.97 C 432.75 108.06 452.42 107.91 472.08 108.04 C 476.31 107.88 480.12 111.69 479.96 115.92 C 480.04 127.30 480.04 138.69 479.96 150.08 C 480.13 154.44 476.17 157.98 471.97 158.14 C 468.15 157.79 464.31 155.11 464.14 151.00 C 463.77 142.02 464.12 133.01 463.98 124.02 C 420.87 124.06 377.76 123.90 334.66 124.10 C 335.75 125.41 336.87 126.71 338.07 127.93 C 349.27 139.07 360.37 150.31 371.57 161.44 C 373.59 163.44 375.60 165.95 375.28 168.98 C 375.23 171.40 373.74 173.44 372.10 175.09 C 360.46 186.78 348.75 198.41 337.19 210.18 C 335.12 212.19 333.01 214.71 329.92 214.95 C 327.49 215.26 325.29 213.99 323.11 213.15 C 320.87 209.60 319.90 204.55 323.35 201.38 C 334.11 190.44 345.06 179.67 355.83 168.73 C 340.37 152.68 324.34 137.15 308.82 121.15 Z" />
<path fill="#663399" opacity="1.00" d=" M 464.05 189.94 C 463.88 185.53 467.77 182.17 471.95 181.85 C 476.17 182.03 480.09 185.57 479.97 189.93 C 480.03 217.96 480.04 246.00 479.96 274.03 C 479.91 279.03 475.01 282.32 470.32 281.98 C 468.40 280.85 466.50 279.65 464.91 278.09 C 450.59 263.74 436.41 249.25 422.08 234.91 C 421.20 234.29 420.46 233.02 419.25 233.20 C 416.41 235.34 414.14 238.12 411.60 240.59 C 365.61 286.60 319.80 332.81 273.86 378.87 C 271.50 381.18 269.45 383.85 266.67 385.68 C 263.54 387.64 259.21 387.01 256.71 384.32 C 238.32 366.08 220.29 347.47 201.79 329.34 C 161.50 346.56 122.22 366.03 82.60 384.71 C 71.27 389.98 60.00 395.36 48.73 400.75 C 45.23 402.47 41.39 405.00 37.33 403.56 C 32.23 401.97 30.22 394.85 33.87 390.91 C 44.31 379.89 55.10 369.19 65.56 358.19 C 111.62 311.04 157.51 263.72 203.52 216.52 C 205.23 214.75 207.35 212.98 209.99 213.17 C 214.28 212.85 217.00 216.61 219.68 219.33 C 232.73 232.61 246.00 245.67 259.04 258.95 C 260.19 260.09 261.47 261.10 262.74 262.11 C 274.64 250.21 286.54 238.32 298.37 226.35 C 299.95 224.82 301.76 223.25 304.07 223.10 C 306.62 222.74 308.91 224.17 311.16 225.14 C 313.09 228.71 314.06 233.57 310.68 236.64 C 297.63 249.93 284.37 263.03 271.35 276.35 C 269.04 278.75 266.56 281.70 262.93 281.74 C 258.69 282.13 255.97 278.35 253.25 275.75 C 240.09 262.61 227.19 249.19 213.77 236.32 C 207.55 249.80 202.43 263.79 196.42 277.37 C 194.90 281.06 190.66 282.60 186.93 281.79 C 183.57 280.30 180.49 277.06 181.28 273.11 C 182.58 267.43 186.06 262.51 187.27 256.79 C 181.30 261.61 176.47 267.65 170.91 272.92 C 144.35 300.35 117.64 327.63 91.05 355.04 C 87.00 359.54 82.19 363.35 78.69 368.33 C 83.47 366.91 87.81 364.39 92.32 362.32 C 112.01 353.03 131.63 343.59 151.36 334.38 C 153.67 333.20 156.66 332.35 157.54 329.59 C 161.49 320.46 164.96 311.11 169.10 302.07 C 170.80 298.25 175.32 297.89 178.95 298.10 C 181.69 300.20 184.67 303.08 183.89 306.91 C 182.70 312.19 179.78 316.87 178.07 321.98 C 185.71 319.29 192.89 315.47 200.39 312.44 C 203.51 311.01 207.30 311.90 209.59 314.40 C 224.25 329.07 238.89 343.77 253.55 358.45 C 256.60 361.41 259.35 364.72 262.84 367.22 C 312.77 317.02 362.83 266.95 412.73 216.72 C 414.64 214.79 417.03 212.89 419.93 213.18 C 423.86 213.18 426.35 216.61 428.93 219.08 C 440.58 230.75 452.12 242.56 463.93 254.08 C 464.13 232.70 463.86 211.32 464.05 189.94 Z" />
</g>
<g id="#fdfdfdff">
<path fill="#ffffff" opacity="1.00" d=" M 334.66 124.10 C 377.76 123.90 420.87 124.06 463.98 124.02 C 464.12 133.01 463.77 142.02 464.14 151.00 C 464.31 155.11 468.15 157.79 471.97 158.14 C 471.99 166.04 472.05 173.95 471.95 181.85 C 467.77 182.17 463.88 185.53 464.05 189.94 C 463.86 211.32 464.13 232.70 463.93 254.08 C 452.12 242.56 440.58 230.75 428.93 219.08 C 426.35 216.61 423.86 213.18 419.93 213.18 C 417.03 212.89 414.64 214.79 412.73 216.72 C 362.83 266.95 312.77 317.02 262.84 367.22 C 259.35 364.72 256.60 361.41 253.55 358.45 C 238.89 343.77 224.25 329.07 209.59 314.40 C 207.30 311.90 203.51 311.01 200.39 312.44 C 192.89 315.47 185.71 319.29 178.07 321.98 C 179.78 316.87 182.70 312.19 183.89 306.91 C 184.67 303.08 181.69 300.20 178.95 298.10 C 182.30 292.99 182.58 286.21 186.93 281.79 C 190.66 282.60 194.90 281.06 196.42 277.37 C 202.43 263.79 207.55 249.80 213.77 236.32 C 227.19 249.19 240.09 262.61 253.25 275.75 C 255.97 278.35 258.69 282.13 262.93 281.74 C 266.56 281.70 269.04 278.75 271.35 276.35 C 284.37 263.03 297.63 249.93 310.68 236.64 C 314.06 233.57 313.09 228.71 311.16 225.14 C 315.19 221.19 318.98 217.00 323.11 213.15 C 325.29 213.99 327.49 215.26 329.92 214.95 C 333.01 214.71 335.12 212.19 337.19 210.18 C 348.75 198.41 360.46 186.78 372.10 175.09 C 373.74 173.44 375.23 171.40 375.28 168.98 C 375.60 165.95 373.59 163.44 371.57 161.44 C 360.37 150.31 349.27 139.07 338.07 127.93 C 336.87 126.71 335.75 125.41 334.66 124.10 Z" />
</g>
<g id="#a5c8fcff">
<path fill="#54D8A3" opacity="1.00" d=" M 170.91 272.92 C 176.47 267.65 181.30 261.61 187.27 256.79 C 186.06 262.51 182.58 267.43 181.28 273.11 C 180.49 277.06 183.57 280.30 186.93 281.79 C 182.58 286.21 182.30 292.99 178.95 298.10 C 175.32 297.89 170.80 298.25 169.10 302.07 C 164.96 311.11 161.49 320.46 157.54 329.59 C 156.66 332.35 153.67 333.20 151.36 334.38 C 131.63 343.59 112.01 353.03 92.32 362.32 C 87.81 364.39 83.47 366.91 78.69 368.33 C 82.19 363.35 87.00 359.54 91.05 355.04 C 117.64 327.63 144.35 300.35 170.91 272.92 Z" />
</g>
</svg>
