<?xml version="1.0" encoding="UTF-8" ?>
<!DOCTYPE svg PUBLIC "-//W3C//DTD SVG 1.1//EN" "http://www.w3.org/Graphics/SVG/1.1/DTD/svg11.dtd">
<svg width="512pt" height="512pt" viewBox="0 0 512 512" version="1.1" xmlns="http://www.w3.org/2000/svg">
<g id="#F2EFF6ff">
<path fill="#F2EFF6" opacity="1.00" d=" M 218.99 43.20 C 268.37 34.54 320.71 43.66 364.02 68.96 C 369.60 72.32 375.37 75.50 380.34 79.74 C 378.58 79.82 376.81 79.94 375.05 79.99 C 326.02 80.07 276.97 79.91 227.94 80.07 C 223.39 79.81 220.58 83.89 219.61 87.84 C 214.54 87.97 209.46 87.97 204.39 87.84 C 203.37 84.30 201.19 80.24 196.99 80.15 C 184.66 79.78 172.32 80.16 159.99 79.96 C 157.11 80.07 153.89 79.67 151.41 81.44 C 149.19 82.86 148.54 85.55 147.61 87.83 C 139.79 87.45 131.97 88.19 124.15 87.89 C 124.04 87.24 123.81 85.94 123.69 85.29 C 151.38 63.74 184.41 49.10 218.99 43.20 Z" />
<path fill="#F2EFF6" opacity="1.00" d=" M 154.39 164.53 C 162.37 163.24 170.96 164.60 177.52 169.54 C 191.46 180.00 191.46 204.01 177.51 214.45 C 165.46 223.32 145.97 221.50 137.12 208.94 C 131.36 200.70 130.66 189.53 134.26 180.29 C 137.50 171.89 145.55 165.85 154.39 164.53 Z" />
<path fill="#F2EFF6" opacity="1.00" d=" M 112.14 280.67 C 113.56 256.15 136.38 235.12 161.01 236.19 C 184.76 236.27 206.63 256.74 207.64 280.54 C 202.41 285.67 194.81 286.66 188.28 289.30 C 184.85 290.77 183.88 294.60 183.66 297.98 C 182.21 298.65 180.70 299.32 179.07 299.25 C 172.77 299.21 166.54 300.70 160.25 300.02 C 159.96 295.74 156.68 291.85 152.22 291.75 C 138.35 290.91 123.76 288.91 112.14 280.67 Z" />
<path fill="#F2EFF6" opacity="1.00" d=" M 364.39 368.16 C 369.46 368.02 374.53 368.05 379.61 368.14 C 380.39 370.74 380.76 374.08 383.54 375.37 C 386.17 377.03 389.97 377.59 391.21 380.82 C 392.66 384.39 392.44 389.56 388.81 391.76 C 385.48 393.80 381.76 395.23 378.70 397.73 C 372.78 402.29 368.16 409.23 368.30 416.94 C 368.44 420.91 367.45 425.53 370.05 428.94 C 372.41 432.11 376.74 432.01 380.30 432.31 C 372.31 438.63 363.30 443.56 354.31 448.31 C 313.03 469.63 264.73 476.78 218.99 468.79 C 191.65 464.11 165.26 454.00 141.74 439.29 C 138.35 437.03 134.71 435.09 131.69 432.32 C 135.03 431.99 139.01 432.17 141.45 429.46 C 144.63 426.13 143.56 421.10 143.70 416.94 C 143.72 409.02 138.95 401.84 132.71 397.30 C 129.60 394.88 125.84 393.56 122.58 391.39 C 119.42 389.19 119.60 384.67 120.48 381.36 C 121.49 377.72 125.33 375.77 128.92 375.99 C 146.30 375.96 163.67 376.04 181.04 375.97 C 184.01 376.05 187.51 375.91 189.70 378.30 C 193.45 382.55 192.86 390.82 186.93 392.85 C 177.63 396.97 168.69 405.16 168.35 415.98 C 168.47 420.26 167.32 425.24 170.05 428.94 C 172.08 431.75 175.77 432.09 178.95 432.01 C 207.32 431.92 235.70 432.10 264.06 431.93 C 268.67 432.20 271.54 428.04 272.40 424.01 C 280.13 424.05 287.86 424.59 295.59 424.05 C 296.46 426.16 296.99 428.62 298.86 430.12 C 301.35 432.34 304.90 431.95 307.98 432.04 C 317.32 431.86 326.66 432.18 335.99 431.90 C 339.83 431.89 343.32 428.63 343.55 424.80 C 343.93 418.80 344.18 412.35 341.16 406.92 C 337.69 400.13 331.15 395.66 324.41 392.52 C 317.09 389.66 319.04 376.54 327.01 376.14 C 336.99 375.62 347.01 376.35 356.99 375.84 C 361.17 375.69 363.37 371.71 364.39 368.16 Z" />
</g>
<g id="#7D5EA3ff">
<path fill="#7D5EA3" opacity="1.00" d=" M 380.34 79.74 C 398.89 80.32 417.45 79.83 436.01 80.00 C 443.19 80.24 450.66 79.04 457.55 81.63 C 467.99 85.60 476.59 94.68 479.26 105.60 C 480.70 114.00 479.74 122.59 479.99 131.07 C 480.51 135.74 476.63 139.98 471.98 140.13 C 468.20 139.76 464.29 137.09 464.13 132.99 C 463.71 125.32 464.23 117.63 463.87 109.95 C 463.66 104.42 460.06 99.16 454.87 97.15 C 450.77 95.58 446.29 96.07 441.99 96.01 C 370.64 95.96 299.29 96.10 227.94 95.94 C 223.26 96.23 220.39 91.94 219.61 87.84 C 220.58 83.89 223.39 79.81 227.94 80.07 C 276.97 79.91 326.02 80.07 375.05 79.99 C 376.81 79.94 378.58 79.82 380.34 79.74 Z" />
<path fill="#7D5EA3" opacity="1.00" d=" M 32.00 112.99 C 31.63 96.55 45.73 81.61 61.90 80.01 C 79.96 79.99 98.02 79.94 116.08 80.04 C 119.48 79.88 122.33 82.35 123.69 85.29 C 123.81 85.94 124.04 87.24 124.15 87.89 C 123.84 92.11 120.54 96.12 116.06 95.93 C 98.68 96.16 81.30 95.88 63.92 96.04 C 59.47 96.00 54.78 97.35 51.81 100.84 C 48.46 104.32 47.93 109.37 47.99 113.97 C 48.04 177.98 47.97 241.99 48.03 305.99 C 47.89 309.71 48.78 314.07 46.12 317.14 C 44.65 319.02 42.26 319.71 40.02 320.16 C 36.48 319.91 32.98 317.49 32.25 313.89 C 31.73 310.62 32.02 307.29 31.99 304.00 C 31.99 240.33 31.99 176.66 32.00 112.99 Z" />
<path fill="#7D5EA3" opacity="1.00" d=" M 151.41 81.44 C 153.89 79.67 157.11 80.07 159.99 79.96 C 172.32 80.16 184.66 79.78 196.99 80.15 C 201.19 80.24 203.37 84.30 204.39 87.84 C 203.58 91.57 201.28 95.69 196.99 95.86 C 185.00 96.27 173.00 95.83 161.01 96.06 C 157.60 95.91 153.64 96.56 150.84 94.13 C 148.85 92.63 148.38 90.05 147.61 87.83 C 148.54 85.55 149.19 82.86 151.41 81.44 Z" />
<path fill="#7D5EA3" opacity="1.00" d=" M 116.03 190.93 C 116.58 167.86 137.87 147.36 161.01 148.01 C 184.86 148.56 205.77 171.20 203.91 195.10 C 203.11 204.05 199.30 212.66 193.56 219.54 C 191.39 222.11 188.79 224.26 186.59 226.81 C 201.21 234.44 213.36 247.04 219.63 262.37 C 222.45 269.55 224.38 277.25 223.89 285.02 C 223.71 287.82 221.55 289.86 219.61 291.63 C 212.77 297.55 204.28 301.19 195.68 303.73 C 193.10 304.54 190.10 304.74 187.76 303.19 C 185.78 302.02 184.86 299.81 183.66 297.98 C 183.88 294.60 184.85 290.77 188.28 289.30 C 194.81 286.66 202.41 285.67 207.64 280.54 C 206.63 256.74 184.76 236.27 161.01 236.19 C 136.38 235.12 113.56 256.15 112.14 280.67 C 123.76 288.91 138.35 290.91 152.22 291.75 C 156.68 291.85 159.96 295.74 160.25 300.02 C 159.75 304.06 156.37 308.02 152.05 307.80 C 140.84 307.47 129.62 305.65 118.98 302.03 C 111.20 299.23 103.42 295.43 97.88 289.11 C 95.04 285.94 96.11 281.40 96.40 277.57 C 98.97 255.75 114.18 236.91 133.27 226.81 C 130.74 223.66 127.49 221.18 125.09 217.91 C 119.29 210.22 115.64 200.64 116.03 190.93 M 154.39 164.53 C 145.55 165.85 137.50 171.89 134.26 180.29 C 130.66 189.53 131.36 200.70 137.12 208.94 C 145.97 221.50 165.46 223.32 177.51 214.45 C 191.46 204.01 191.46 180.00 177.52 169.54 C 170.96 164.60 162.37 163.24 154.39 164.53 Z" />
<path fill="#7D5EA3" opacity="1.00" d=" M 464.04 171.94 C 463.87 167.52 467.78 164.15 471.98 163.87 C 475.85 163.99 479.58 167.01 479.87 170.98 C 480.18 174.97 479.98 178.99 480.01 182.99 C 480.00 252.99 480.01 323.00 480.00 393.00 C 479.98 396.94 480.24 400.93 479.55 404.84 C 476.84 418.86 464.39 430.59 450.10 431.90 C 426.84 432.35 403.55 431.54 380.30 432.31 C 376.74 432.01 372.41 432.11 370.05 428.94 C 367.45 425.53 368.44 420.91 368.30 416.94 C 368.16 409.23 372.78 402.29 378.70 397.73 C 381.76 395.23 385.48 393.80 388.81 391.76 C 392.44 389.56 392.66 384.39 391.21 380.82 C 389.97 377.59 386.17 377.03 383.54 375.37 C 380.76 374.08 380.39 370.74 379.61 368.14 C 380.77 365.70 381.81 362.79 384.48 361.61 C 388.38 359.82 392.71 361.71 396.00 363.94 C 404.36 369.65 410.03 380.41 407.29 390.57 C 405.14 397.95 399.94 404.64 392.83 407.80 C 389.21 409.44 384.93 411.45 384.40 415.92 C 405.95 416.04 427.51 416.04 449.07 415.93 C 457.13 416.23 464.21 409.13 463.93 401.08 C 464.11 324.70 463.88 248.32 464.04 171.94 Z" />
<path fill="#7D5EA3" opacity="1.00" d=" M 261.32 180.42 C 269.14 179.49 277.11 180.22 284.99 179.98 C 289.41 180.24 294.97 178.87 298.16 182.84 C 302.22 187.30 299.10 195.49 293.02 195.88 C 283.33 196.21 273.62 195.93 263.92 195.98 C 259.67 196.09 255.87 192.24 256.00 187.99 C 255.89 184.66 258.17 181.46 261.32 180.42 Z" />
<path fill="#7D5EA3" opacity="1.00" d=" M 329.33 180.44 C 331.83 179.77 334.46 180.04 337.02 179.97 C 360.70 180.06 384.39 179.90 408.07 180.04 C 413.04 179.85 417.14 185.06 415.78 189.85 C 414.94 193.75 410.97 196.36 407.06 196.02 C 382.02 195.96 356.97 196.09 331.93 195.95 C 328.00 196.08 324.39 192.87 324.06 188.96 C 323.53 185.33 325.88 181.60 329.33 180.44 Z" />
<path fill="#7D5EA3" opacity="1.00" d=" M 261.32 220.42 C 262.82 219.98 264.40 220.02 265.96 219.98 C 312.99 220.00 360.03 219.98 407.07 220.00 C 411.63 219.50 416.22 223.29 415.99 228.00 C 416.15 232.69 411.63 236.49 407.06 236.01 C 359.68 236.01 312.30 236.00 264.93 236.02 C 261.02 236.38 257.04 233.74 256.21 229.85 C 255.20 225.99 257.50 221.64 261.32 220.42 Z" />
<path fill="#7D5EA3" opacity="1.00" d=" M 261.32 260.42 C 262.82 259.98 264.40 260.01 265.95 259.98 C 297.33 260.02 328.71 259.95 360.08 260.02 C 364.69 259.88 368.64 264.42 367.94 268.97 C 367.61 272.86 363.99 276.10 360.08 275.96 C 328.03 276.06 295.97 276.02 263.93 275.98 C 259.67 276.09 255.86 272.23 256.00 267.99 C 255.89 264.66 258.17 261.45 261.32 260.42 Z" />
<path fill="#7D5EA3" opacity="1.00" d=" M 32.04 351.92 C 31.84 347.55 35.78 343.97 40.01 343.85 C 44.20 344.17 48.13 347.52 47.96 351.94 C 48.08 365.95 47.98 379.97 48.00 393.99 C 47.95 399.62 47.42 406.01 51.37 410.60 C 54.73 415.10 60.67 416.21 65.97 415.99 C 86.65 415.89 107.33 416.21 128.00 415.82 C 126.67 412.42 124.07 409.73 120.61 408.45 C 109.51 404.18 101.59 391.42 104.72 379.59 C 107.83 368.69 118.38 359.79 129.95 360.00 C 144.96 359.96 159.98 360.01 175.00 359.99 C 180.45 359.97 186.16 359.47 191.27 361.77 C 199.56 365.32 206.32 373.05 207.76 382.07 C 208.99 391.22 204.01 400.45 196.63 405.68 C 192.06 408.60 185.76 409.96 183.99 415.83 C 210.67 416.24 237.37 415.82 264.06 416.04 C 268.66 415.81 271.54 419.96 272.40 424.01 C 271.54 428.04 268.67 432.20 264.06 431.93 C 235.70 432.10 207.32 431.92 178.95 432.01 C 175.77 432.09 172.08 431.75 170.05 428.94 C 167.32 425.24 168.47 420.26 168.35 415.98 C 168.69 405.16 177.63 396.97 186.93 392.85 C 192.86 390.82 193.45 382.55 189.70 378.30 C 187.51 375.91 184.01 376.05 181.04 375.97 C 163.67 376.04 146.30 375.96 128.92 375.99 C 125.33 375.77 121.49 377.72 120.48 381.36 C 119.60 384.67 119.42 389.19 122.58 391.39 C 125.84 393.56 129.60 394.88 132.71 397.30 C 138.95 401.84 143.72 409.02 143.70 416.94 C 143.56 421.10 144.63 426.13 141.45 429.46 C 139.01 432.17 135.03 431.99 131.69 432.32 C 128.79 432.15 125.90 431.91 123.00 431.98 C 103.67 432.06 84.33 431.96 65.00 432.03 C 47.23 432.37 30.94 415.82 31.99 397.99 C 32.02 382.63 31.93 367.28 32.04 351.92 Z" />
<path fill="#7D5EA3" opacity="1.00" d=" M 304.53 380.36 C 307.32 369.09 318.12 359.79 329.95 360.00 C 338.96 360.04 347.99 359.82 357.00 360.13 C 361.31 360.25 363.57 364.45 364.39 368.16 C 363.37 371.71 361.17 375.69 356.99 375.84 C 347.01 376.35 336.99 375.62 327.01 376.14 C 319.04 376.54 317.09 389.66 324.41 392.52 C 331.15 395.66 337.69 400.13 341.16 406.92 C 344.18 412.35 343.93 418.80 343.55 424.80 C 343.32 428.63 339.83 431.89 335.99 431.90 C 326.66 432.18 317.32 431.86 307.98 432.04 C 304.90 431.95 301.35 432.34 298.86 430.12 C 296.99 428.62 296.46 426.16 295.59 424.05 C 296.45 420.35 298.76 416.29 303.02 416.11 C 311.34 415.71 319.68 416.28 328.01 415.82 C 326.66 412.42 324.07 409.72 320.61 408.45 C 309.76 404.26 301.94 392.01 304.53 380.36 Z" />
</g>
<g id="#fdfdfdff">
<path fill="#fdfdfd" opacity="1.00" d=" M 124.15 87.89 C 131.97 88.19 139.79 87.45 147.61 87.83 C 148.38 90.05 148.85 92.63 150.84 94.13 C 153.64 96.56 157.60 95.91 161.01 96.06 C 173.00 95.83 185.00 96.27 196.99 95.86 C 201.28 95.69 203.58 91.57 204.39 87.84 C 209.46 87.97 214.54 87.97 219.61 87.84 C 220.39 91.94 223.26 96.23 227.94 95.94 C 299.29 96.10 370.64 95.96 441.99 96.01 C 446.29 96.07 450.77 95.58 454.87 97.15 C 460.06 99.16 463.66 104.42 463.87 109.95 C 464.23 117.63 463.71 125.32 464.13 132.99 C 464.29 137.09 468.20 139.76 471.98 140.13 C 471.99 148.04 472.01 155.96 471.98 163.87 C 467.78 164.15 463.87 167.52 464.04 171.94 C 463.88 248.32 464.11 324.70 463.93 401.08 C 464.21 409.13 457.13 416.23 449.07 415.93 C 427.51 416.04 405.95 416.04 384.40 415.92 C 384.93 411.45 389.21 409.44 392.83 407.80 C 399.94 404.64 405.14 397.95 407.29 390.57 C 410.03 380.41 404.36 369.65 396.00 363.94 C 392.71 361.71 388.38 359.82 384.48 361.61 C 381.81 362.79 380.77 365.70 379.61 368.14 C 374.53 368.05 369.46 368.02 364.39 368.16 C 363.57 364.45 361.31 360.25 357.00 360.13 C 347.99 359.82 338.96 360.04 329.95 360.00 C 318.12 359.79 307.32 369.09 304.53 380.36 C 301.94 392.01 309.76 404.26 320.61 408.45 C 324.07 409.72 326.66 412.42 328.01 415.82 C 319.68 416.28 311.34 415.71 303.02 416.11 C 298.76 416.29 296.45 420.35 295.59 424.05 C 287.86 424.59 280.13 424.05 272.40 424.01 C 271.54 419.96 268.66 415.81 264.06 416.04 C 237.37 415.82 210.67 416.24 183.99 415.83 C 185.76 409.96 192.06 408.60 196.63 405.68 C 204.01 400.45 208.99 391.22 207.76 382.07 C 206.32 373.05 199.56 365.32 191.27 361.77 C 186.16 359.47 180.45 359.97 175.00 359.99 C 159.98 360.01 144.96 359.96 129.95 360.00 C 118.38 359.79 107.83 368.69 104.72 379.59 C 101.59 391.42 109.51 404.18 120.61 408.45 C 124.07 409.73 126.67 412.42 128.00 415.82 C 107.33 416.21 86.65 415.89 65.97 415.99 C 60.67 416.21 54.73 415.10 51.37 410.60 C 47.42 406.01 47.95 399.62 48.00 393.99 C 47.98 379.97 48.08 365.95 47.96 351.94 C 48.13 347.52 44.20 344.17 40.01 343.85 C 40.00 335.96 39.98 328.06 40.02 320.16 C 42.26 319.71 44.65 319.02 46.12 317.14 C 48.78 314.07 47.89 309.71 48.03 305.99 C 47.97 241.99 48.04 177.98 47.99 113.97 C 47.93 109.37 48.46 104.32 51.81 100.84 C 54.78 97.35 59.47 96.00 63.92 96.04 C 81.30 95.88 98.68 96.16 116.06 95.93 C 120.54 96.12 123.84 92.11 124.15 87.89 M 116.03 190.93 C 115.64 200.64 119.29 210.22 125.09 217.91 C 127.49 221.18 130.74 223.66 133.27 226.81 C 114.18 236.91 98.97 255.75 96.40 277.57 C 96.11 281.40 95.04 285.94 97.88 289.11 C 103.42 295.43 111.20 299.23 118.98 302.03 C 129.62 305.65 140.84 307.47 152.05 307.80 C 156.37 308.02 159.75 304.06 160.25 300.02 C 166.54 300.70 172.77 299.21 179.07 299.25 C 180.70 299.32 182.21 298.65 183.66 297.98 C 184.86 299.81 185.78 302.02 187.76 303.19 C 190.10 304.74 193.10 304.54 195.68 303.73 C 204.28 301.19 212.77 297.55 219.61 291.63 C 221.55 289.86 223.71 287.82 223.89 285.02 C 224.38 277.25 222.45 269.55 219.63 262.37 C 213.36 247.04 201.21 234.44 186.59 226.81 C 188.79 224.26 191.39 222.11 193.56 219.54 C 199.30 212.66 203.11 204.05 203.91 195.10 C 205.77 171.20 184.86 148.56 161.01 148.01 C 137.87 147.36 116.58 167.86 116.03 190.93 M 261.32 180.42 C 258.17 181.46 255.89 184.66 256.00 187.99 C 255.87 192.24 259.67 196.09 263.92 195.98 C 273.62 195.93 283.33 196.21 293.02 195.88 C 299.10 195.49 302.22 187.30 298.16 182.84 C 294.97 178.87 289.41 180.24 284.99 179.98 C 277.11 180.22 269.14 179.49 261.32 180.42 M 329.33 180.44 C 325.88 181.60 323.53 185.33 324.06 188.96 C 324.39 192.87 328.00 196.08 331.93 195.95 C 356.97 196.09 382.02 195.96 407.06 196.02 C 410.97 196.36 414.94 193.75 415.78 189.85 C 417.14 185.06 413.04 179.85 408.07 180.04 C 384.39 179.90 360.70 180.06 337.02 179.97 C 334.46 180.04 331.83 179.77 329.33 180.44 M 261.32 220.42 C 257.50 221.64 255.20 225.99 256.21 229.85 C 257.04 233.74 261.02 236.38 264.93 236.02 C 312.30 236.00 359.68 236.01 407.06 236.01 C 411.63 236.49 416.15 232.69 415.99 228.00 C 416.22 223.29 411.63 219.50 407.07 220.00 C 360.03 219.98 312.99 220.00 265.96 219.98 C 264.40 220.02 262.82 219.98 261.32 220.42 M 261.32 260.42 C 258.17 261.45 255.89 264.66 256.00 267.99 C 255.86 272.23 259.67 276.09 263.93 275.98 C 295.97 276.02 328.03 276.06 360.08 275.96 C 363.99 276.10 367.61 272.86 367.94 268.97 C 368.64 264.42 364.69 259.88 360.08 260.02 C 328.71 259.95 297.33 260.02 265.95 259.98 C 264.40 260.01 262.82 259.98 261.32 260.42 Z" />
</g>
</svg>
