<svg xmlns="http://www.w3.org/2000/svg" width="3000" height="1178" viewBox="0 0 3000 1178">
  <defs>
    <style>
      .cls-1 {
        stroke: #000;
        stroke-linejoin: round;
        stroke-width: 1px;
        fill-rule: evenodd;
      }
    </style>
  </defs>
  <path id="Pipscountfx" class="cls-1" d="M273.239,298.553q0-62.57-44.683-62.569H37.01V916h73.119V669.627H228.556q44.681,0,44.683-63.439V298.553ZM110.129,582.29V323.321H199.5V582.29H110.129Zm289.35-346.306H326.36V916h73.119V235.984ZM695.7,298.553q0-62.57-44.684-62.569H459.473V916h73.119V669.627H651.019q44.682,0,44.684-63.439V298.553ZM532.592,582.29V323.321h89.367V582.29H532.592Zm449.336,109.5q0-34.32-15.936-55.183L819.442,444.55V321.583H908.81V449.764h73.118V297.684q0-61.694-44.371-61.7H790.382q-44.058,0-44.058,62.569V449.764q0,33.025,15.936,54.314L908.81,697V830.4H819.442V691.787H746.324V853.86q0,62.142,44.058,62.135H937.557q44.367,0,44.371-62.135V691.787ZM1280.65,685.7h-72.8V828.658h-94.68V323.321h94.68V457.585h72.8V298.553q0-62.57-44.68-62.569H1083.48q-43.44,0-43.43,62.569V853.86q0,62.142,43.43,62.135h152.49q44.685,0,44.68-62.135V685.7Zm304.04-387.151q0-62.57-44.37-62.569H1381.58q-43.44,0-43.43,62.569V853.86q0,62.142,43.43,62.135h158.74q44.37,0,44.37-62.135V298.553ZM1411.27,828.658V323.321h100.3V828.658h-100.3ZM1888.1,235.984h-73.12V828.658h-98.43V235.984h-73.12V853.86q0,62.142,44.37,62.135h155.3q45,0,45-62.135V235.984Zm306.54,0h-71.25v370.2q0,17.821,4.69,49.1l-117.18-419.3h-64.05V916h71.24V537.1q0-17.812-4.69-49.1L2130.58,916h64.06V235.984Zm271.22,0H2231.82v89.944h80.62V916h72.8V325.928h80.62V235.984Zm236.86,0H2503.05V916h73.12V615.313h108.11V527.107H2576.17V325.928h126.55V235.984Zm194.04,329.36,85.62-325.45v-3.91h-77.49l-49.06,221.6-48.75-221.6h-78.12q-0.3,1.742,85.62,331.967l-91.24,344.568V916h77.81l54.05-239.416L2908.95,916H2988Z"/>
</svg>
