<?xml version="1.0" encoding="UTF-8" ?>
<!DOCTYPE svg PUBLIC "-//W3C//DTD SVG 1.1//EN" "http://www.w3.org/Graphics/SVG/1.1/DTD/svg11.dtd">
<svg width="512pt" height="512pt" viewBox="0 0 512 512" version="1.1" xmlns="http://www.w3.org/2000/svg">
<g id="#e1e4e6ff">
<path fill="#e1e4e6" opacity="1.00" d=" M 84.53 24.53 C 90.27 19.19 98.06 15.97 105.92 16.01 C 176.00 15.97 246.08 16.03 316.16 15.98 C 315.70 45.32 316.06 74.68 315.93 104.02 C 315.68 113.39 319.17 123.38 326.93 129.08 C 332.20 133.59 339.05 135.66 345.87 136.20 C 351.78 140.83 356.64 146.68 361.97 151.97 C 382.31 172.30 402.69 192.61 422.98 213.01 C 427.36 217.01 431.00 221.82 435.96 225.16 C 436.05 305.46 435.99 385.76 435.99 466.05 C 436.01 481.88 421.88 496.01 406.06 495.99 C 306.01 496.01 205.97 496.00 105.93 496.00 C 96.11 496.10 86.82 490.58 81.05 482.84 C 77.50 477.27 75.77 470.59 75.96 463.99 C 76.05 454.67 75.94 445.34 76.01 436.02 C 171.03 436.19 266.06 436.00 361.09 436.11 C 367.48 436.73 372.43 431.38 375.36 426.34 C 377.09 420.68 375.50 414.66 375.81 408.85 C 376.30 359.23 375.83 309.61 376.05 259.99 C 376.06 255.97 376.09 251.65 373.81 248.15 C 370.96 243.47 365.48 240.87 360.07 240.99 C 265.39 240.99 170.70 241.00 76.01 240.98 C 75.97 176.31 76.01 111.63 75.99 46.96 C 75.75 38.74 78.92 30.52 84.53 24.53 Z" />
</g>
<g id="#b0b6bcff">
<path fill="#b0b6bc" opacity="1.00" d=" M 316.16 15.98 C 356.18 55.85 396.08 95.85 436.02 135.79 C 405.98 136.54 375.91 135.73 345.87 136.20 C 339.05 135.66 332.20 133.59 326.93 129.08 C 319.17 123.38 315.68 113.39 315.93 104.02 C 316.06 74.68 315.70 45.32 316.16 15.98 Z" />
</g>
<g id="#cad0d7ff">
<path fill="#cad0d7" opacity="1.00" d=" M 345.87 136.20 C 375.91 135.73 405.98 136.54 436.02 135.79 C 435.94 165.58 436.07 195.37 435.96 225.16 C 431.00 221.82 427.36 217.01 422.98 213.01 C 402.69 192.61 382.31 172.30 361.97 151.97 C 356.64 146.68 351.78 140.83 345.87 136.20 Z" />
<path fill="#cad0d7" opacity="1.00" d=" M 366.55 419.54 C 371.05 417.56 374.03 413.29 375.81 408.85 C 375.50 414.66 377.09 420.68 375.36 426.34 C 372.43 431.38 367.48 436.73 361.09 436.11 C 266.06 436.00 171.03 436.19 76.01 436.02 C 76.01 431.01 75.92 426.01 76.04 421.00 C 167.69 421.02 259.34 420.99 351.00 421.02 C 356.18 420.91 361.66 421.70 366.55 419.54 Z" />
</g>
<g id="#9982FFff">
<path fill="#9982FF" opacity="1.00" d=" M 16.01 255.94 C 15.68 248.21 22.22 241.13 30.00 241.05 C 45.33 240.90 60.67 241.04 76.01 240.98 C 170.70 241.00 265.39 240.99 360.07 240.99 C 365.48 240.87 370.96 243.47 373.81 248.15 C 376.09 251.65 376.06 255.97 376.05 259.99 C 375.83 309.61 376.30 359.23 375.81 408.85 C 374.03 413.29 371.05 417.56 366.55 419.54 C 361.66 421.70 356.18 420.91 351.00 421.02 C 259.34 420.99 167.69 421.02 76.04 421.00 C 61.00 420.99 45.96 421.06 30.93 420.99 C 22.93 421.23 16.00 413.96 16.02 406.09 C 15.98 356.04 16.00 305.99 16.01 255.94 M 81.31 299.97 C 81.30 320.98 81.33 341.98 81.30 362.99 C 81.33 365.51 81.12 368.07 81.62 370.57 C 82.70 374.02 86.44 376.15 89.96 375.96 C 93.26 375.92 96.34 373.13 96.60 369.82 C 97.07 363.85 96.42 357.83 97.21 351.87 C 105.65 351.06 114.15 352.08 122.59 351.31 C 128.44 350.25 134.28 347.79 138.45 343.45 C 149.79 331.64 149.30 310.78 137.63 299.37 C 132.14 294.19 124.48 291.55 116.99 291.61 C 107.98 291.61 98.97 291.58 89.96 291.61 C 85.41 291.32 80.83 295.25 81.31 299.97 M 167.35 293.35 C 163.65 294.39 161.53 298.22 161.85 301.94 C 161.78 323.30 161.88 344.66 161.81 366.02 C 161.81 368.74 161.86 371.96 164.25 373.79 C 167.14 376.51 171.37 375.98 175.01 376.03 C 183.70 375.82 192.40 376.22 201.08 375.86 C 214.35 375.33 227.68 367.60 233.33 355.34 C 238.34 345.74 239.70 334.31 237.23 323.78 C 234.69 313.83 229.20 304.11 220.05 298.91 C 209.55 291.53 196.16 292.68 184.01 292.66 C 178.47 292.88 172.78 291.98 167.35 293.35 M 257.11 295.12 C 254.83 297.46 255.22 300.97 255.11 303.97 C 255.17 325.33 255.09 346.70 255.15 368.06 C 254.90 372.33 258.79 376.04 262.99 375.98 C 266.92 376.29 270.67 372.93 270.78 368.99 C 271.06 360.41 270.62 351.81 271.00 343.23 C 281.01 343.16 291.03 343.31 301.05 343.20 C 304.40 343.29 307.68 341.41 309.31 338.49 C 310.71 335.01 308.82 331.14 305.89 329.14 C 303.37 327.14 300.00 327.50 297.00 327.44 C 288.38 327.57 279.75 327.42 271.13 327.56 C 270.57 321.16 270.78 314.72 271.10 308.31 C 282.74 308.26 294.40 308.49 306.05 308.25 C 310.68 308.21 314.85 303.74 313.91 299.05 C 313.63 295.14 309.69 292.69 306.04 292.70 C 293.03 292.53 280.02 292.73 267.00 292.61 C 263.64 292.69 259.61 292.41 257.11 295.12 Z" />
<path fill="#9982FF" opacity="1.00" d=" M 178.03 307.36 C 185.04 307.44 192.05 307.28 199.06 307.42 C 205.39 307.51 211.80 310.22 215.79 315.24 C 225.60 326.50 224.34 345.33 213.48 355.46 C 209.06 359.56 202.93 361.39 196.98 361.38 C 190.58 361.38 184.18 361.44 177.78 361.25 C 177.85 343.29 177.36 325.30 178.03 307.36 Z" />
</g>
<g id="#fefefeff">
<path fill="#fefefe" opacity="1.00" d=" M 81.31 299.97 C 80.83 295.25 85.41 291.32 89.96 291.61 C 98.97 291.58 107.98 291.61 116.99 291.61 C 124.48 291.55 132.14 294.19 137.63 299.37 C 149.30 310.78 149.79 331.64 138.45 343.45 C 134.28 347.79 128.44 350.25 122.59 351.31 C 114.15 352.08 105.65 351.06 97.21 351.87 C 96.42 357.83 97.07 363.85 96.60 369.82 C 96.34 373.13 93.26 375.92 89.96 375.96 C 86.44 376.15 82.70 374.02 81.62 370.57 C 81.12 368.07 81.33 365.51 81.30 362.99 C 81.33 341.98 81.30 320.98 81.31 299.97 M 97.30 306.53 C 96.49 310.98 96.80 315.51 96.80 320.00 C 96.84 325.54 96.42 331.11 97.28 336.61 C 104.20 336.58 111.12 336.68 118.03 336.56 C 123.57 336.62 128.42 332.39 130.33 327.39 C 133.89 318.97 127.90 307.92 118.75 306.70 C 111.61 306.47 104.45 306.76 97.30 306.53 Z" />
<path fill="#fefefe" opacity="1.00" d=" M 167.35 293.35 C 172.78 291.98 178.47 292.88 184.01 292.66 C 196.16 292.68 209.55 291.53 220.05 298.91 C 229.20 304.11 234.69 313.83 237.23 323.78 C 239.70 334.31 238.34 345.74 233.33 355.34 C 227.68 367.60 214.35 375.33 201.08 375.86 C 192.40 376.22 183.70 375.82 175.01 376.03 C 171.37 375.98 167.14 376.51 164.25 373.79 C 161.86 371.96 161.81 368.74 161.81 366.02 C 161.88 344.66 161.78 323.30 161.85 301.94 C 161.53 298.22 163.65 294.39 167.35 293.35 M 178.03 307.36 C 177.36 325.30 177.85 343.29 177.78 361.25 C 184.18 361.44 190.58 361.38 196.98 361.38 C 202.93 361.39 209.06 359.56 213.48 355.46 C 224.34 345.33 225.60 326.50 215.79 315.24 C 211.80 310.22 205.39 307.51 199.06 307.42 C 192.05 307.28 185.04 307.44 178.03 307.36 Z" />
<path fill="#fefefe" opacity="1.00" d=" M 257.11 295.12 C 259.61 292.41 263.64 292.69 267.00 292.61 C 280.02 292.73 293.03 292.53 306.04 292.70 C 309.69 292.69 313.63 295.14 313.91 299.05 C 314.85 303.74 310.68 308.21 306.05 308.25 C 294.40 308.49 282.74 308.26 271.10 308.31 C 270.78 314.72 270.57 321.16 271.13 327.56 C 279.75 327.42 288.38 327.57 297.00 327.44 C 300.00 327.50 303.37 327.14 305.89 329.14 C 308.82 331.14 310.71 335.01 309.31 338.49 C 307.68 341.41 304.40 343.29 301.05 343.20 C 291.03 343.31 281.01 343.16 271.00 343.23 C 270.62 351.81 271.06 360.41 270.78 368.99 C 270.67 372.93 266.92 376.29 262.99 375.98 C 258.79 376.04 254.90 372.33 255.15 368.06 C 255.09 346.70 255.17 325.33 255.11 303.97 C 255.22 300.97 254.83 297.46 257.11 295.12 Z" />
</g>
<g id="#9982FFff">
<path fill="#9982FF" opacity="1.00" d=" M 97.30 306.53 C 104.45 306.76 111.61 306.47 118.75 306.70 C 127.90 307.92 133.89 318.97 130.33 327.39 C 128.42 332.39 123.57 336.62 118.03 336.56 C 111.12 336.68 104.20 336.58 97.28 336.61 C 96.42 331.11 96.84 325.54 96.80 320.00 C 96.80 315.51 96.49 310.98 97.30 306.53 Z" />
</g>
</svg>
