<?xml version="1.0" encoding="UTF-8" ?>
<!DOCTYPE svg PUBLIC "-//W3C//DTD SVG 1.1//EN" "http://www.w3.org/Graphics/SVG/1.1/DTD/svg11.dtd">
<svg width="500pt" height="500pt" viewBox="0 0 500 500" version="1.1" xmlns="http://www.w3.org/2000/svg">



	<linearGradient id="g660" gradientUnits="userSpaceOnUse" x1="0%" y1="0%" x2="100%" y2="100%">
        <stop stop-color="#55D7A4" offset="0"/>
        <stop stop-color="#C488FE" offset="1"/>
    </linearGradient>
	
	
<g id="#000000ff">
<path fill="url(#g660)" opacity="1.00" d=" M 225.43 3.72 C 260.94 0.27 297.18 4.38 330.91 16.07 C 364.86 27.78 396.15 47.08 421.96 72.04 C 459.79 108.43 485.59 157.17 494.05 209.00 C 500.33 246.25 497.92 284.94 487.07 321.12 C 476.61 356.36 457.98 389.10 433.30 416.31 C 411.73 440.13 385.43 459.62 356.45 473.48 C 320.04 490.85 279.32 499.07 239.03 497.19 C 191.17 495.24 144.03 478.89 105.27 450.74 C 52.93 413.26 16.24 354.59 5.95 291.00 C -1.95 244.26 3.91 195.25 22.82 151.75 C 42.21 106.79 75.34 67.94 116.58 41.56 C 149.20 20.56 186.84 7.56 225.43 3.72 M 226.45 18.69 C 183.10 23.03 141.10 39.88 106.86 66.85 C 68.59 96.76 39.91 138.82 26.58 185.57 C 16.09 222.10 14.67 261.22 22.60 298.40 C 30.49 336.07 48.11 371.66 73.19 400.85 C 107.44 441.34 156.05 469.44 208.29 478.70 C 254.69 487.20 303.69 481.25 346.56 461.51 C 377.54 447.39 405.32 426.32 427.32 400.34 C 449.92 373.75 466.44 342.01 475.12 308.20 C 487.96 258.56 483.89 204.67 463.39 157.63 C 440.81 105.07 398.00 61.66 345.86 38.17 C 308.72 21.20 267.04 14.66 226.45 18.69 Z" />
</g>
</svg>
