<?xml version="1.0" encoding="UTF-8" ?>
<!DOCTYPE svg PUBLIC "-//W3C//DTD SVG 1.1//EN" "http://www.w3.org/Graphics/SVG/1.1/DTD/svg11.dtd">
<svg width="512pt" height="512pt" viewBox="0 0 512 512" version="1.1" xmlns="http://www.w3.org/2000/svg">
<g id="#e8edefff">
<path fill="#e8edef" opacity="1.00" d=" M 107.27 23.26 C 113.17 19.45 119.71 15.80 127.00 16.06 C 229.07 16.03 331.15 15.80 433.22 16.18 C 425.80 19.34 420.51 26.00 417.07 33.08 C 414.92 43.16 416.28 53.69 416.02 63.95 C 415.93 199.94 416.13 336.14 415.88 472.01 C 416.40 486.47 401.41 498.75 387.27 495.72 C 378.57 493.99 371.83 487.26 368.81 479.13 C 365.26 468.19 370.67 455.00 381.34 450.40 C 383.52 449.00 390.29 446.19 380.08 448.03 C 285.39 447.95 190.69 448.04 95.99 447.98 C 96.00 319.30 96.01 190.63 95.99 61.95 C 94.70 48.32 96.03 32.70 107.27 23.26 M 192.05 80.04 C 191.89 85.33 191.89 90.62 192.04 95.92 C 234.67 96.09 277.32 96.00 319.95 95.96 C 320.10 90.66 320.10 85.37 319.96 80.08 C 277.33 79.91 234.68 80.00 192.05 80.04 M 224.05 112.04 C 223.89 117.33 223.89 122.62 224.04 127.91 C 245.34 128.15 266.65 127.97 287.95 127.96 C 288.10 122.67 288.10 117.38 287.96 112.09 C 266.66 111.85 245.35 112.03 224.05 112.04 M 144.05 176.04 C 143.90 181.33 143.89 186.62 144.04 191.91 C 218.67 192.10 293.32 191.99 367.95 191.96 C 368.10 186.67 368.10 181.38 367.96 176.09 C 293.33 175.90 218.68 176.01 144.05 176.04 M 144.05 208.04 C 143.90 213.33 143.89 218.62 144.04 223.91 C 218.67 224.10 293.32 223.99 367.95 223.96 C 368.10 218.67 368.10 213.38 367.96 208.09 C 293.33 207.90 218.68 208.01 144.05 208.04 M 144.05 240.04 C 143.90 245.33 143.89 250.62 144.04 255.91 C 218.67 256.10 293.32 255.99 367.95 255.96 C 368.10 250.66 368.10 245.38 367.96 240.09 C 293.33 239.90 218.68 240.01 144.05 240.04 M 144.05 272.04 C 143.90 277.34 143.89 282.63 144.04 287.93 C 181.34 288.07 218.65 288.01 255.95 287.96 C 256.10 282.66 256.10 277.36 255.96 272.07 C 218.66 271.93 181.35 271.98 144.05 272.04 M 311.91 287.97 C 303.91 285.31 296.05 282.16 287.93 279.93 C 290.17 288.05 293.30 295.94 295.98 303.93 C 287.91 304.22 279.82 303.79 271.76 304.10 C 276.94 309.47 283.32 314.56 287.90 320.00 C 283.91 325.87 277.34 330.19 272.86 335.90 C 280.57 336.21 288.29 335.84 296.00 336.04 C 293.22 343.98 290.33 351.90 287.90 359.95 C 293.11 357.95 298.52 356.55 303.79 354.74 C 304.31 369.56 303.75 384.39 304.09 399.22 C 309.71 394.55 314.20 388.26 319.98 384.05 C 325.86 388.09 329.51 395.30 335.93 399.07 C 336.14 384.33 335.90 369.58 336.09 354.84 C 341.09 356.18 345.81 358.59 351.04 359.04 C 350.14 350.96 345.69 343.95 344.19 336.02 C 352.20 335.82 360.22 336.18 368.24 335.90 C 363.08 330.69 357.21 326.02 353.04 320.01 C 357.17 314.15 363.59 309.80 368.14 304.11 C 360.06 303.75 351.97 304.20 343.90 303.94 C 346.60 295.93 349.95 288.13 351.81 279.85 C 343.88 282.42 336.02 285.22 328.14 287.93 C 324.70 283.58 323.71 276.57 320.03 273.14 C 316.28 276.59 315.15 283.55 311.91 287.97 M 144.05 304.04 C 143.90 309.33 143.89 314.63 144.04 319.93 C 181.34 320.07 218.65 320.01 255.95 319.96 C 256.10 314.66 256.10 309.36 255.96 304.07 C 218.66 303.93 181.35 303.98 144.05 304.04 Z" />
</g>
<g id="#d0d4d6fe">
<path fill="#d0d4d6" opacity="1.00" d=" M 433.22 16.18 C 446.06 13.26 460.52 21.72 463.38 34.66 C 466.33 45.80 459.37 57.76 449.12 62.17 C 438.55 65.78 426.97 63.48 416.02 63.95 C 416.28 53.69 414.92 43.16 417.07 33.08 C 420.51 26.00 425.80 19.34 433.22 16.18 Z" />
</g>
<g id="#B0B6BCff">
<path fill="#B0B6BC" opacity="1.00" d=" M 192.05 80.04 C 234.68 80.00 277.33 79.91 319.96 80.08 C 320.10 85.37 320.10 90.66 319.95 95.96 C 277.32 96.00 234.67 96.09 192.04 95.92 C 191.89 90.62 191.89 85.33 192.05 80.04 Z" />
<path fill="#B0B6BC" opacity="1.00" d=" M 224.05 112.04 C 245.35 112.03 266.66 111.85 287.96 112.09 C 288.10 117.38 288.10 122.67 287.95 127.96 C 266.65 127.97 245.34 128.15 224.04 127.91 C 223.89 122.62 223.89 117.33 224.05 112.04 Z" />
<path fill="#B0B6BC" opacity="1.00" d=" M 144.05 208.04 C 218.68 208.01 293.33 207.90 367.96 208.09 C 368.10 213.38 368.10 218.67 367.95 223.96 C 293.32 223.99 218.67 224.10 144.04 223.91 C 143.89 218.62 143.90 213.33 144.05 208.04 Z" />
<path fill="#B0B6BC" opacity="1.00" d=" M 144.05 304.04 C 181.35 303.98 218.66 303.93 255.96 304.07 C 256.10 309.36 256.10 314.66 255.95 319.96 C 218.65 320.01 181.34 320.07 144.04 319.93 C 143.89 314.63 143.90 309.33 144.05 304.04 Z" />
</g>
<g id="#B0B6BCff">
<path fill="#B0B6BC" opacity="1.00" d=" M 144.05 176.04 C 218.68 176.01 293.33 175.90 367.96 176.09 C 368.10 181.38 368.10 186.67 367.95 191.96 C 293.32 191.99 218.67 192.10 144.04 191.91 C 143.89 186.62 143.90 181.33 144.05 176.04 Z" />
<path fill="#B0B6BC" opacity="1.00" d=" M 144.05 240.04 C 218.68 240.01 293.33 239.90 367.96 240.09 C 368.10 245.38 368.10 250.66 367.95 255.96 C 293.32 255.99 218.67 256.10 144.04 255.91 C 143.89 250.62 143.90 245.33 144.05 240.04 Z" />
<path fill="#B0B6BC" opacity="1.00" d=" M 144.05 272.04 C 181.35 271.98 218.66 271.93 255.96 272.07 C 256.10 277.36 256.10 282.66 255.95 287.96 C 218.65 288.01 181.34 288.07 144.04 287.93 C 143.89 282.63 143.90 277.34 144.05 272.04 Z" />
<path fill="#B0B6BC" opacity="1.00" d=" M 303.79 354.74 C 306.41 353.63 309.14 352.74 311.94 352.23 C 315.33 356.51 316.28 363.45 319.96 366.82 C 323.79 363.37 324.84 356.42 328.14 352.03 C 330.86 352.73 333.42 353.94 336.09 354.84 C 335.90 369.58 336.14 384.33 335.93 399.07 C 329.51 395.30 325.86 388.09 319.98 384.05 C 314.20 388.26 309.71 394.55 304.09 399.22 C 303.75 384.39 304.31 369.56 303.79 354.74 Z" />
</g>
<g id="#9982FFff">
<path fill="#9982FF" opacity="1.00" d=" M 311.91 287.97 C 315.15 283.55 316.28 276.59 320.03 273.14 C 323.71 276.57 324.70 283.58 328.14 287.93 C 336.02 285.22 343.88 282.42 351.81 279.85 C 349.95 288.13 346.60 295.93 343.90 303.94 C 351.97 304.20 360.06 303.75 368.14 304.11 C 363.59 309.80 357.17 314.15 353.04 320.01 C 357.21 326.02 363.08 330.69 368.24 335.90 C 360.22 336.18 352.20 335.82 344.19 336.02 C 345.69 343.95 350.14 350.96 351.04 359.04 C 345.81 358.59 341.09 356.18 336.09 354.84 C 333.42 353.94 330.86 352.73 328.14 352.03 C 324.84 356.42 323.79 363.37 319.96 366.82 C 316.28 363.45 315.33 356.51 311.94 352.23 C 309.14 352.74 306.41 353.63 303.79 354.74 C 298.52 356.55 293.11 357.95 287.90 359.95 C 290.33 351.90 293.22 343.98 296.00 336.04 C 288.29 335.84 280.57 336.21 272.86 335.90 C 277.34 330.19 283.91 325.87 287.90 320.00 C 283.32 314.56 276.94 309.47 271.76 304.10 C 279.82 303.79 287.91 304.22 295.98 303.93 C 293.30 295.94 290.17 288.05 287.93 279.93 C 296.05 282.16 303.91 285.31 311.91 287.97 M 315.40 296.44 C 302.30 298.72 292.86 313.18 296.84 326.11 C 299.67 338.24 313.14 346.69 325.34 343.37 C 336.60 341.06 345.20 329.54 343.95 318.07 C 343.32 304.23 328.86 293.40 315.40 296.44 Z" />
</g>
<g id="#54D8A3ff">
<path fill="#8E90FF" opacity="1.00" d=" M 315.40 296.44 C 328.86 293.40 343.32 304.23 343.95 318.07 C 345.20 329.54 336.60 341.06 325.34 343.37 C 313.14 346.69 299.67 338.24 296.84 326.11 C 292.86 313.18 302.30 298.72 315.40 296.44 Z" />
</g>
<g id="#d1d5d7ff">
<path fill="#d1d5d7" opacity="1.00" d=" M 50.81 483.22 C 42.31 468.76 53.58 449.05 69.91 447.99 C 78.61 447.97 87.30 448.04 95.99 447.98 C 190.69 448.04 285.39 447.95 380.08 448.03 C 390.29 446.19 383.52 449.00 381.34 450.40 C 370.67 455.00 365.26 468.19 368.81 479.13 C 371.83 487.26 378.57 493.99 387.27 495.72 C 283.52 496.40 179.76 495.75 76.00 496.05 C 65.94 497.43 55.80 491.91 50.81 483.22 Z" />
</g>
</svg>
