<?xml version="1.0" encoding="UTF-8" ?>
<!DOCTYPE svg PUBLIC "-//W3C//DTD SVG 1.1//EN" "http://www.w3.org/Graphics/SVG/1.1/DTD/svg11.dtd">
<svg width="512pt" height="512pt" viewBox="0 0 512 512" version="1.1" xmlns="http://www.w3.org/2000/svg">
<g id="#7D5EA3ff">
<path fill="#7D5EA3" opacity="1.00" d=" M 156.83 0.00 L 426.00 0.00 C 425.99 56.67 426.03 113.34 425.98 170.01 C 423.38 170.00 420.78 169.99 418.18 169.97 C 418.18 115.99 418.25 62.00 418.14 8.02 C 335.76 7.96 253.38 8.03 171.00 7.99 C 167.43 8.05 163.82 7.68 160.29 8.29 C 158.16 9.43 156.41 11.13 154.56 12.67 C 126.20 36.44 97.61 59.95 69.34 83.84 C 68.45 84.58 67.56 85.31 66.67 86.04 C 66.53 206.70 66.64 327.35 66.61 448.00 C 66.63 456.01 66.51 464.02 66.62 472.03 C 66.57 478.03 70.24 483.83 75.65 486.40 C 82.33 489.75 91.15 487.58 95.47 481.47 C 98.49 477.70 98.58 472.68 98.59 468.09 C 153.39 467.86 208.20 468.08 263.00 467.98 C 314.79 468.06 366.58 467.88 418.38 468.07 C 419.01 452.05 418.28 436.00 418.68 419.98 C 421.34 420.00 424.01 420.03 426.68 420.08 C 426.57 436.05 426.54 452.02 426.69 467.99 C 438.68 468.08 450.68 467.87 462.68 468.09 C 462.64 470.69 462.63 473.29 462.64 475.89 C 461.21 475.94 459.78 475.99 458.36 476.03 C 341.01 476.02 223.66 475.94 106.31 476.07 C 104.85 482.10 101.75 487.94 96.53 491.51 C 93.60 493.60 90.19 494.85 86.78 495.90 C 80.67 496.40 74.23 495.53 69.15 491.85 C 62.31 487.33 58.34 479.17 58.38 471.04 C 58.14 343.00 58.37 214.96 58.25 86.92 C 58.26 84.59 58.25 81.89 60.44 80.46 C 84.52 60.37 108.66 40.35 132.65 20.16 C 140.83 13.59 148.89 6.86 156.83 0.00 Z" />
<path fill="#7D5EA3" opacity="1.00" d=" M 110.66 59.98 C 121.33 60.10 132.00 59.81 142.67 60.12 C 142.59 64.04 142.60 67.97 142.68 71.90 C 140.03 71.98 137.39 72.02 134.75 72.05 C 134.69 70.73 134.64 69.41 134.60 68.09 C 129.32 67.92 124.04 67.99 118.77 68.07 C 118.70 69.36 118.64 70.64 118.59 71.93 C 115.95 71.98 113.32 72.00 110.68 72.02 C 110.57 68.01 110.56 64.00 110.66 59.98 Z" />
<path fill="#7D5EA3" opacity="1.00" d=" M 373.38 208.44 C 384.73 193.43 402.32 183.26 421.02 181.02 C 437.18 178.91 454.11 182.42 467.91 191.15 C 482.35 200.02 493.44 214.23 498.45 230.43 C 504.08 247.71 502.40 267.11 494.19 283.29 C 484.38 303.34 464.71 318.13 442.75 322.11 C 442.39 348.08 442.75 374.06 442.58 400.03 C 442.78 406.32 437.29 412.02 430.99 412.00 C 424.40 412.49 418.36 406.60 418.64 400.00 C 418.54 374.11 418.59 348.21 418.62 322.32 C 399.74 319.14 382.38 308.28 371.40 292.59 C 361.72 278.89 357.22 261.64 358.98 244.96 C 360.18 231.74 365.29 218.96 373.38 208.44 M 417.41 189.65 C 401.49 192.81 387.02 202.46 377.82 215.81 C 368.81 228.73 365.01 245.10 367.21 260.68 C 369.07 275.22 376.31 288.99 387.14 298.84 C 398.92 309.72 414.95 315.88 430.99 315.54 C 456.59 315.72 480.95 298.45 489.69 274.47 C 495.87 258.49 494.93 239.98 487.37 224.63 C 480.53 210.25 468.12 198.58 453.28 192.78 C 441.98 188.23 429.33 187.33 417.41 189.65 M 426.73 323.14 C 426.56 327.16 426.54 331.18 426.68 335.20 C 429.33 335.18 431.98 335.14 434.63 334.98 C 434.59 331.03 434.58 327.08 434.67 323.14 C 432.02 323.14 429.37 323.16 426.73 323.14 M 426.75 343.19 C 426.38 360.79 426.76 378.40 426.57 396.00 C 426.67 398.18 426.30 400.55 427.37 402.56 C 429.54 405.40 435.02 403.79 434.55 399.97 C 434.70 381.06 434.47 362.13 434.66 343.21 C 432.02 343.20 429.38 343.20 426.75 343.19 Z" />
<path fill="#7D5EA3" opacity="1.00" d=" M 13.64 188.61 C 18.26 182.05 27.69 180.19 34.66 183.98 C 39.30 187.11 42.72 192.26 42.57 198.00 C 42.72 224.00 42.36 250.00 42.84 276.00 C 42.40 314.66 42.67 353.33 42.61 391.99 C 42.48 395.80 43.02 399.69 42.21 403.44 C 40.11 408.08 36.93 412.14 34.61 416.68 C 31.89 420.85 29.29 425.10 26.67 429.34 C 22.36 422.85 18.75 415.94 14.64 409.33 C 12.82 406.13 10.36 402.93 10.58 399.04 C 10.61 364.35 10.61 329.65 10.59 294.95 C 10.25 283.98 10.23 273.00 10.58 262.03 C 10.62 241.35 10.62 220.67 10.57 199.99 C 10.51 196.02 11.15 191.83 13.64 188.61 M 20.66 192.62 C 18.47 194.83 18.58 198.12 18.57 201.01 C 18.66 208.11 18.53 215.21 18.68 222.32 C 23.85 222.42 29.03 222.41 34.21 222.31 C 34.29 214.87 34.26 207.43 34.29 199.99 C 34.19 197.45 34.43 194.46 32.44 192.53 C 29.45 189.14 23.59 189.17 20.66 192.62 M 18.84 230.35 C 18.00 251.89 19.35 273.45 18.61 295.00 C 18.63 329.67 18.55 364.35 18.65 399.03 C 19.96 404.49 24.11 408.84 26.49 413.91 C 28.92 410.18 31.38 406.46 33.48 402.53 C 34.84 399.56 34.09 396.16 34.27 393.01 C 34.24 360.67 34.28 328.34 34.26 296.00 C 33.88 274.11 34.63 252.22 34.08 230.33 C 29.00 230.40 23.92 230.41 18.84 230.35 Z" />
</g>
<g id="#54D8A3ff">
<path fill="#54D8A3" opacity="1.00" d=" M 69.34 83.84 C 97.61 59.95 126.20 36.44 154.56 12.67 C 154.66 36.43 154.53 60.20 154.63 83.97 C 126.20 83.94 97.77 84.18 69.34 83.84 M 110.66 59.98 C 110.56 64.00 110.57 68.01 110.68 72.02 C 113.32 72.00 115.95 71.98 118.59 71.93 C 118.64 70.64 118.70 69.36 118.77 68.07 C 124.04 67.99 129.32 67.92 134.60 68.09 C 134.64 69.41 134.69 70.73 134.75 72.05 C 137.39 72.02 140.03 71.98 142.68 71.90 C 142.60 67.97 142.59 64.04 142.67 60.12 C 132.00 59.81 121.33 60.10 110.66 59.98 Z" />
<path fill="#54D8A3" opacity="1.00" d=" M 19.38 123.48 C 24.21 121.22 30.41 124.85 30.58 130.23 C 31.18 136.07 24.24 140.94 19.04 137.91 C 13.01 135.34 13.34 125.79 19.38 123.48 Z" />
<path fill="#54D8A3" opacity="1.00" d=" M 457.28 152.11 C 463.50 150.71 468.84 158.24 465.70 163.68 C 463.33 168.79 455.42 169.51 452.23 164.83 C 448.47 160.40 451.55 152.77 457.28 152.11 Z" />
<path fill="#54D8A3" opacity="1.00" d=" M 106.31 476.07 C 223.66 475.94 341.01 476.02 458.36 476.03 C 456.53 486.69 446.99 495.64 436.03 495.94 C 423.50 496.12 410.95 495.89 398.41 496.05 C 294.54 495.88 190.66 496.16 86.78 495.90 C 90.19 494.85 93.60 493.60 96.53 491.51 C 101.75 487.94 104.85 482.10 106.31 476.07 Z" />
</g>
<g id="#dcdcdbff">
<path fill="#dcdcdb" opacity="1.00" d=" M 101.20 21.24 C 102.67 19.60 105.00 20.06 106.95 19.97 C 115.52 20.10 124.09 19.82 132.65 20.16 C 108.66 40.35 84.52 60.37 60.44 80.46 C 58.25 81.89 58.26 84.59 58.25 86.92 C 58.37 214.96 58.14 343.00 58.38 471.04 C 58.34 479.17 62.31 487.33 69.15 491.85 C 74.23 495.53 80.67 496.40 86.78 495.90 C 190.66 496.16 294.54 495.88 398.41 496.05 C 395.35 504.57 387.36 510.76 378.44 512.00 L 63.60 512.00 C 52.75 510.71 42.69 503.93 37.88 494.06 C 34.97 488.52 34.39 482.15 34.57 476.00 C 34.63 456.23 34.55 436.46 34.61 416.68 C 36.93 412.14 40.11 408.08 42.21 403.44 C 43.02 399.69 42.48 395.80 42.61 391.99 C 42.67 353.33 42.40 314.66 42.84 276.00 C 42.36 250.00 42.72 224.00 42.57 198.00 C 42.72 192.26 39.30 187.11 34.66 183.98 C 34.51 149.33 34.62 114.67 34.61 80.02 C 56.79 60.41 79.01 40.84 101.20 21.24 Z" />
<path fill="#dcdcdb" opacity="1.00" d=" M 240.17 25.62 C 242.78 25.59 245.39 25.58 248.00 25.59 C 248.00 28.27 248.01 30.95 247.97 33.63 C 245.38 33.59 242.79 33.59 240.21 33.62 C 240.20 30.95 240.20 28.28 240.17 25.62 Z" />
<path fill="#dcdcdb" opacity="1.00" d=" M 226.87 31.36 C 229.18 30.07 231.46 28.71 233.78 27.43 C 235.04 29.73 236.34 32.02 237.70 34.27 C 235.50 35.58 233.35 37.00 231.02 38.08 C 229.11 36.24 228.21 33.61 226.87 31.36 Z" />
<path fill="#dcdcdb" opacity="1.00" d=" M 251.11 34.06 C 252.24 31.78 253.60 29.63 254.97 27.49 C 257.23 28.79 259.50 30.09 261.80 31.33 C 260.51 33.64 259.19 35.94 257.85 38.23 C 255.63 36.84 252.83 36.05 251.11 34.06 Z" />
<path fill="#dcdcdb" opacity="1.00" d=" M 222.15 36.24 C 224.44 37.56 226.74 38.89 229.00 40.27 C 227.68 42.56 226.35 44.84 225.02 47.12 C 222.73 45.78 220.43 44.45 218.13 43.13 C 219.44 40.82 220.77 38.51 222.15 36.24 Z" />
<path fill="#dcdcdb" opacity="1.00" d=" M 259.74 40.14 C 262.02 38.80 264.31 37.49 266.61 36.20 C 267.86 38.50 269.17 40.77 270.45 43.06 C 268.20 44.50 265.87 45.83 263.48 47.03 C 262.22 44.74 260.93 42.47 259.74 40.14 Z" />
<path fill="#dcdcdb" opacity="1.00" d=" M 216.17 49.62 C 218.78 49.59 221.39 49.58 224.00 49.59 C 224.00 52.27 224.01 54.95 223.97 57.63 C 221.38 57.59 218.79 57.59 216.21 57.62 C 216.20 54.95 216.20 52.28 216.17 49.62 Z" />
<path fill="#dcdcdb" opacity="1.00" d=" M 264.16 49.62 C 266.76 49.59 269.36 49.59 271.97 49.59 C 272.01 52.26 272.16 54.93 272.15 57.60 C 269.50 57.59 266.85 57.59 264.20 57.62 C 264.18 54.95 264.19 52.29 264.16 49.62 Z" />
<path fill="#dcdcdb" opacity="1.00" d=" M 218.03 64.25 C 220.29 62.88 222.58 61.55 224.87 60.23 C 226.28 62.49 227.60 64.80 228.91 67.12 C 226.60 68.44 224.30 69.77 222.02 71.12 C 220.71 68.81 219.39 66.52 218.03 64.25 Z" />
<path fill="#dcdcdb" opacity="1.00" d=" M 259.72 67.10 C 261.02 64.77 262.37 62.48 263.75 60.20 C 266.02 61.54 268.29 62.87 270.58 64.18 C 269.27 66.48 267.92 68.76 266.64 71.09 C 264.31 69.80 262.00 68.48 259.72 67.10 Z" />
<path fill="#dcdcdb" opacity="1.00" d=" M 226.93 75.92 C 228.27 73.63 229.60 71.32 230.91 69.01 C 233.21 70.35 235.53 71.65 237.84 72.98 C 236.50 75.29 235.18 77.62 233.78 79.90 C 231.51 78.56 229.22 77.23 226.93 75.92 Z" />
<path fill="#dcdcdb" opacity="1.00" d=" M 250.82 72.99 C 253.14 71.69 255.44 70.36 257.72 69.00 C 259.06 71.29 260.39 73.58 261.68 75.89 C 259.42 77.27 257.13 78.59 254.83 79.90 C 253.48 77.60 252.14 75.31 250.82 72.99 Z" />
<path fill="#dcdcdb" opacity="1.00" d=" M 240.16 73.62 C 242.76 73.59 245.36 73.59 247.97 73.59 C 248.01 76.26 248.16 78.93 248.14 81.60 C 245.49 81.59 242.85 81.59 240.20 81.62 C 240.18 78.95 240.19 76.29 240.16 73.62 Z" />
<path fill="#dcdcdb" opacity="1.00" d=" M 106.59 100.02 C 121.27 100.01 135.95 99.94 150.63 100.06 C 150.59 102.69 150.59 105.33 150.63 107.97 C 135.95 108.03 121.28 107.98 106.60 108.00 C 106.58 105.34 106.58 102.68 106.59 100.02 Z" />
<path fill="#dcdcdb" opacity="1.00" d=" M 94.60 164.00 C 174.08 164.00 253.56 164.01 333.03 164.00 C 330.36 166.62 328.05 169.76 324.78 171.67 C 322.08 172.22 319.30 172.03 316.57 172.05 C 242.58 171.93 168.59 172.03 94.60 172.00 C 94.59 169.33 94.59 166.67 94.60 164.00 Z" />
<path fill="#dcdcdb" opacity="1.00" d=" M 350.60 164.00 C 353.27 164.00 355.95 163.99 358.63 164.03 C 358.59 166.67 358.59 169.31 358.63 171.95 C 355.95 172.00 353.27 172.00 350.60 172.01 C 350.59 169.33 350.59 166.67 350.60 164.00 Z" />
<path fill="#dcdcdb" opacity="1.00" d=" M 391.21 211.23 C 400.26 202.42 412.41 196.82 425.01 195.85 C 441.60 194.30 458.64 200.87 470.12 212.90 C 481.44 224.50 487.00 241.06 485.67 257.16 C 483.82 249.63 481.93 241.93 477.62 235.37 C 468.98 221.04 453.63 210.96 437.02 208.86 C 426.16 207.44 414.88 209.27 405.07 214.17 C 388.65 222.25 376.20 238.75 374.40 257.14 C 372.08 240.30 378.96 222.82 391.21 211.23 Z" />
<path fill="#dcdcdb" opacity="1.00" d=" M 94.60 220.00 C 128.07 220.01 161.53 219.98 195.00 220.02 C 192.91 222.63 190.82 225.24 188.74 227.87 C 185.95 227.96 183.16 227.99 180.37 228.01 C 151.78 227.98 123.19 228.00 94.60 228.00 C 94.59 225.33 94.59 222.67 94.60 220.00 Z" />
<path fill="#dcdcdb" opacity="1.00" d=" M 199.01 227.97 C 201.17 225.28 203.36 222.61 205.51 219.91 C 251.21 220.14 296.92 219.91 342.63 220.03 C 342.59 222.67 342.59 225.31 342.63 227.95 C 294.75 228.04 246.88 228.00 199.01 227.97 Z" />
<path fill="#dcdcdb" opacity="1.00" d=" M 350.60 220.00 C 353.27 220.00 355.95 219.99 358.63 220.03 C 358.59 222.68 358.59 225.32 358.63 227.97 C 355.95 228.01 353.27 228.00 350.60 228.00 C 350.59 225.33 350.58 222.66 350.60 220.00 Z" />
<path fill="#dcdcdb" opacity="1.00" d=" M 112.49 283.98 C 116.13 280.88 120.24 278.43 124.23 275.81 C 143.69 276.36 163.18 275.66 182.64 276.17 C 178.41 279.16 174.87 284.54 169.07 284.04 C 162.50 284.09 155.92 283.90 149.35 284.04 C 137.06 283.94 124.78 284.04 112.49 283.98 Z" />
<path fill="#dcdcdb" opacity="1.00" d=" M 186.52 283.83 C 189.81 281.15 193.13 278.53 196.45 275.88 C 212.69 276.15 228.95 275.91 245.19 276.00 C 248.94 276.00 252.69 276.01 256.44 276.00 C 285.17 276.03 313.90 275.96 342.63 276.03 C 342.59 278.67 342.59 281.32 342.63 283.97 C 292.42 284.04 242.22 283.96 192.02 284.01 C 190.18 284.01 188.35 283.96 186.52 283.83 Z" />
<path fill="#dcdcdb" opacity="1.00" d=" M 350.60 276.00 C 353.27 276.02 355.95 276.00 358.63 276.03 C 358.59 278.68 358.59 281.32 358.63 283.97 C 355.95 284.01 353.27 284.00 350.60 284.00 C 350.58 281.33 350.58 278.67 350.60 276.00 Z" />
<path fill="#dcdcdb" opacity="1.00" d=" M 94.59 332.03 C 102.95 331.94 111.32 332.08 119.68 331.95 C 129.46 332.07 139.24 331.92 149.03 332.02 C 150.19 332.01 151.35 332.00 152.51 331.97 C 178.08 332.03 203.64 331.97 229.21 332.00 C 232.71 332.00 236.22 332.01 239.73 331.94 C 274.03 332.11 308.33 331.92 342.63 332.04 C 342.59 334.68 342.59 337.32 342.63 339.97 C 259.95 340.04 177.28 339.98 94.60 340.00 C 94.58 337.34 94.58 334.68 94.59 332.03 Z" />
<path fill="#dcdcdb" opacity="1.00" d=" M 350.60 331.99 C 353.28 332.00 355.95 332.01 358.63 332.06 C 358.59 334.69 358.59 337.33 358.62 339.97 C 355.95 340.01 353.27 339.99 350.59 340.00 C 350.58 337.33 350.59 334.66 350.60 331.99 Z" />
<path fill="#dcdcdb" opacity="1.00" d=" M 94.59 372.02 C 155.94 372.01 217.29 371.94 278.63 372.06 C 278.59 374.69 278.59 377.33 278.63 379.97 C 217.28 380.03 155.94 379.98 94.60 380.00 C 94.58 377.34 94.58 374.68 94.59 372.02 Z" />
<path fill="#dcdcdb" opacity="1.00" d=" M 350.61 372.00 C 363.95 372.03 377.29 371.96 390.63 372.03 C 390.59 374.67 390.59 377.31 390.63 379.95 C 377.28 380.05 363.94 379.99 350.59 379.98 C 350.58 377.32 350.59 374.66 350.61 372.00 Z" />
<path fill="#dcdcdb" opacity="1.00" d=" M 94.61 388.00 C 155.95 388.03 217.28 387.96 278.62 388.03 C 278.58 390.67 278.58 393.31 278.63 395.95 C 217.29 396.05 155.94 395.98 94.59 395.98 C 94.58 393.32 94.59 390.66 94.61 388.00 Z" />
<path fill="#dcdcdb" opacity="1.00" d=" M 94.60 404.00 C 155.94 404.02 217.29 403.96 278.63 404.03 C 278.59 406.67 278.59 409.31 278.63 411.95 C 217.29 412.06 155.94 411.97 94.60 412.00 C 94.59 409.33 94.59 406.66 94.60 404.00 Z" />
<path fill="#dcdcdb" opacity="1.00" d=" M 94.60 420.00 C 150.61 420.02 206.62 419.96 262.63 420.03 C 262.59 422.67 262.59 425.31 262.63 427.95 C 206.62 428.06 150.61 427.96 94.60 428.00 C 94.59 425.33 94.59 422.67 94.60 420.00 Z" />
<path fill="#dcdcdb" opacity="1.00" d=" M 66.61 448.00 C 183.85 448.00 301.09 448.01 418.33 448.00 C 418.42 454.69 418.34 461.38 418.38 468.07 C 366.58 467.88 314.79 468.06 263.00 467.98 C 208.20 468.08 153.39 467.86 98.59 468.09 C 98.58 472.68 98.49 477.70 95.47 481.47 C 91.15 487.58 82.33 489.75 75.65 486.40 C 70.24 483.83 66.57 478.03 66.62 472.03 C 66.51 464.02 66.63 456.01 66.61 448.00 Z" />
</g>
<g id="#54D8A3ff">
<path fill="#54D8A3" opacity="1.00" d=" M 357.84 119.13 C 359.69 117.27 361.52 115.40 363.53 113.71 C 366.48 115.96 368.60 120.86 372.86 120.26 C 375.75 118.72 377.67 115.87 380.08 113.71 C 381.98 115.54 383.85 117.40 385.70 119.28 C 383.45 122.34 378.30 124.45 379.08 128.84 C 380.93 131.55 383.54 133.61 385.77 136.00 C 383.93 137.87 382.07 139.71 380.20 141.53 C 377.12 139.22 374.76 133.81 370.24 135.07 C 367.70 136.97 365.68 139.46 363.31 141.56 C 361.49 139.69 359.65 137.85 357.83 135.99 C 360.04 133.10 364.38 131.12 364.58 127.16 C 363.55 123.73 360.01 121.82 357.84 119.13 Z" />
<path fill="#54D8A3" opacity="1.00" d=" M 374.61 164.00 C 379.95 164.01 385.29 163.97 390.63 164.04 C 390.59 166.68 390.59 169.32 390.63 171.96 C 385.29 172.06 379.95 171.96 374.61 172.00 C 374.59 169.33 374.59 166.66 374.61 164.00 Z" />
<path fill="#54D8A3" opacity="1.00" d=" M 374.61 180.00 C 379.95 180.01 385.29 179.96 390.64 180.06 C 390.59 182.69 390.59 185.33 390.63 187.96 C 385.29 188.04 379.95 187.99 374.61 188.00 C 374.59 185.33 374.59 182.66 374.61 180.00 Z" />
<path fill="#54D8A3" opacity="1.00" d=" M 189.28 308.28 C 195.41 307.72 201.68 307.95 207.85 308.16 C 215.83 313.07 223.40 318.64 231.34 323.61 C 234.43 324.52 237.90 324.08 240.92 322.98 C 254.70 318.30 268.54 313.81 282.31 309.12 C 286.57 307.45 291.28 307.89 295.75 308.19 C 303.28 310.45 310.67 313.20 318.16 315.58 C 320.34 316.22 322.66 316.11 324.90 315.89 C 327.82 313.49 330.27 310.59 333.01 307.99 C 336.22 307.99 339.43 308.00 342.64 308.06 C 342.59 310.69 342.59 313.31 342.64 315.94 C 340.46 315.99 338.28 316.00 336.10 316.03 C 333.34 318.61 331.00 321.74 327.89 323.89 C 324.32 324.05 320.69 324.26 317.15 323.73 C 309.66 321.45 302.31 318.70 294.84 316.38 C 291.49 315.67 287.88 315.70 284.65 316.89 C 269.69 321.96 254.67 326.84 239.73 331.94 C 236.22 332.01 232.71 332.00 229.21 332.00 C 221.89 326.90 214.40 322.04 206.99 317.07 C 204.99 315.56 202.36 316.09 200.04 315.96 C 196.09 316.06 191.93 315.47 188.25 317.23 C 176.38 322.24 164.24 326.63 152.51 331.97 C 151.35 332.00 150.19 332.01 149.03 332.02 C 146.26 329.42 143.84 326.42 140.80 324.12 C 138.44 323.82 135.88 323.70 133.70 324.84 C 128.98 327.11 124.34 329.56 119.68 331.95 C 111.32 332.08 102.95 331.94 94.59 332.03 C 94.59 329.35 94.59 326.68 94.61 324.00 C 102.36 323.89 110.13 324.24 117.86 323.84 C 123.14 321.63 128.03 318.61 133.28 316.33 C 136.75 315.66 140.38 316.00 143.90 316.08 C 146.71 318.00 148.81 320.80 151.28 323.14 C 164.02 318.39 176.56 313.09 189.28 308.28 Z" />
</g>
<g id="#3AB684ff">
<path fill="#3AB684" opacity="1.00" d=" M 333.03 164.00 C 336.31 164.00 339.59 163.99 342.87 164.02 C 342.85 166.66 342.85 169.31 342.89 171.96 C 340.63 171.98 338.37 171.99 336.12 172.03 C 333.35 174.62 331.01 177.72 327.90 179.90 C 325.31 180.14 322.71 179.97 320.13 180.02 C 314.68 185.26 309.67 191.05 303.90 195.91 C 295.98 196.15 288.05 195.90 280.13 196.02 C 274.93 201.18 269.88 206.49 264.57 211.52 C 261.01 212.54 256.97 211.99 253.26 211.80 C 245.30 206.81 237.67 201.28 229.72 196.27 C 227.68 195.81 224.69 195.33 223.40 197.45 C 217.45 204.95 211.42 212.38 205.51 219.91 C 203.36 222.61 201.17 225.28 199.01 227.97 C 196.89 230.61 194.78 233.25 192.70 235.91 C 189.94 236.11 187.10 235.66 184.39 236.34 C 176.42 246.79 168.55 257.35 160.72 267.91 C 152.51 268.21 144.29 267.75 136.09 268.11 C 131.85 270.17 128.18 273.25 124.23 275.81 C 120.24 278.43 116.13 280.88 112.49 283.98 C 106.42 283.99 100.36 284.04 94.29 283.96 C 94.33 281.32 94.33 278.68 94.29 276.05 C 99.42 275.78 104.63 276.39 109.72 275.74 C 117.43 270.82 124.91 265.55 132.58 260.57 C 133.86 259.71 135.51 260.10 136.95 259.97 C 143.55 259.99 150.15 260.06 156.75 259.97 C 164.43 249.17 172.82 238.89 180.37 228.01 C 183.16 227.99 185.95 227.96 188.74 227.87 C 190.82 225.24 192.91 222.63 195.00 220.02 C 203.47 209.47 211.84 198.83 220.38 188.34 C 224.13 187.68 228.05 187.90 231.85 188.18 C 239.62 192.94 247.02 198.32 254.69 203.25 C 256.50 204.47 258.83 204.02 260.88 203.89 C 266.49 198.85 271.57 193.23 277.01 188.00 C 285.00 188.02 292.99 187.99 300.97 188.00 C 306.14 182.66 311.73 177.69 316.57 172.05 C 319.30 172.03 322.08 172.22 324.78 171.67 C 328.05 169.76 330.36 166.62 333.03 164.00 Z" />
<path fill="#3AB684" opacity="1.00" d=" M 301.26 236.20 C 304.78 235.79 308.36 235.92 311.89 236.11 C 315.09 238.19 317.20 241.57 320.24 243.88 C 321.75 244.13 323.30 244.11 324.82 243.92 C 327.86 241.64 330.05 238.41 333.10 236.14 C 336.26 235.82 339.46 236.02 342.64 236.06 C 342.59 238.68 342.59 241.30 342.65 243.92 C 340.46 243.98 338.28 244.00 336.10 244.05 C 333.35 246.64 331.00 249.73 327.90 251.90 C 324.31 252.10 320.69 252.13 317.11 251.86 C 314.06 249.59 311.88 246.36 308.83 244.08 C 306.56 243.86 304.00 243.59 302.09 245.12 C 288.12 254.46 274.14 263.79 260.14 273.09 C 258.84 273.97 257.60 274.94 256.44 276.00 C 252.69 276.01 248.94 276.00 245.19 276.00 C 238.09 271.01 230.78 266.34 223.61 261.45 C 221.01 259.51 216.91 259.16 214.39 261.41 C 208.40 266.22 202.38 270.99 196.45 275.88 C 193.13 278.53 189.81 281.15 186.52 283.83 C 182.88 286.39 179.73 289.66 175.89 291.90 C 168.24 292.21 160.58 291.84 152.93 292.01 C 151.27 291.91 149.81 292.77 148.37 293.46 C 139.53 297.97 130.62 302.34 121.77 306.84 C 120.33 307.63 118.73 308.12 117.07 308.01 C 109.58 308.01 102.10 307.97 94.61 308.00 C 94.59 305.33 94.59 302.67 94.61 300.00 C 102.36 299.85 110.14 300.29 117.87 299.82 C 128.46 294.79 138.97 289.51 149.35 284.04 C 155.92 283.90 162.50 284.09 169.07 284.04 C 174.87 284.54 178.41 279.16 182.64 276.17 C 192.31 268.71 201.75 260.95 211.31 253.35 C 213.34 251.26 216.43 252.17 219.02 251.96 C 221.07 252.11 223.43 251.55 225.19 252.92 C 231.98 257.42 238.74 261.96 245.50 266.50 C 247.78 268.41 250.99 268.35 253.73 267.73 C 269.65 257.35 285.32 246.55 301.26 236.20 Z" />
<path fill="#3AB684" opacity="1.00" d=" M 310.72 392.55 C 312.40 390.54 314.26 388.69 316.12 386.85 C 318.76 389.05 320.71 392.38 324.04 393.57 C 328.05 393.46 330.09 389.09 333.00 386.84 C 334.85 388.66 336.69 390.49 338.55 392.31 C 336.38 395.46 331.37 397.52 331.89 401.85 C 333.51 404.77 336.30 406.77 338.53 409.20 C 336.72 411.08 334.88 412.93 333.01 414.76 C 329.90 412.57 327.68 407.11 323.27 408.22 C 320.53 409.96 318.55 412.63 316.16 414.79 C 314.35 412.88 312.54 410.98 310.74 409.07 C 312.90 406.67 315.70 404.74 317.26 401.87 C 317.85 397.61 312.97 395.49 310.72 392.55 Z" />
</g>
</svg>
