<?xml version="1.0" encoding="UTF-8" ?>
<!DOCTYPE svg PUBLIC "-//W3C//DTD SVG 1.1//EN" "http://www.w3.org/Graphics/SVG/1.1/DTD/svg11.dtd">
<svg width="512pt" height="512pt" viewBox="0 0 512 512" version="1.1" xmlns="http://www.w3.org/2000/svg">
<g id="#3AB684fe">
<path fill="#3AB684" opacity="1.00" d=" M 452.61 0.00 L 461.34 0.00 C 466.86 1.18 472.40 2.71 477.22 5.75 C 487.28 11.74 494.46 22.37 496.14 33.98 C 497.78 44.35 495.04 55.32 488.69 63.69 C 480.79 74.44 467.26 80.81 453.93 79.78 C 438.27 78.88 423.95 67.72 418.93 52.92 C 414.42 40.15 417.05 25.16 425.75 14.76 C 432.29 6.48 442.27 1.51 452.61 0.00 M 450.40 8.60 C 445.26 9.63 440.38 11.97 436.35 15.32 C 425.12 24.29 421.39 41.20 428.02 53.99 C 434.75 68.34 453.01 75.81 467.80 69.86 C 482.66 64.62 491.86 47.43 487.66 32.17 C 483.97 16.11 466.52 4.95 450.40 8.60 Z" />
</g>
<g id="#7D5EA3ff">
<path fill="#7D5EA3" opacity="1.00" d=" M 97.25 16.93 C 111.49 16.50 125.75 16.84 140.00 16.75 C 197.00 16.72 254.00 16.77 311.00 16.73 C 343.59 16.89 376.18 16.48 408.76 16.93 C 408.85 40.85 408.51 64.78 408.92 88.69 C 416.95 88.69 424.99 88.52 433.02 88.71 C 440.75 88.81 448.20 93.91 450.89 101.19 C 452.74 106.23 452.25 111.72 452.32 116.99 C 452.26 143.41 452.33 169.82 452.29 196.24 C 456.68 196.61 461.13 196.16 465.51 196.75 C 470.59 198.23 475.23 200.89 480.16 202.80 C 487.45 206.16 495.06 208.81 502.16 212.57 C 491.72 217.40 481.07 221.78 470.60 226.56 C 464.95 229.53 458.41 228.22 452.31 228.36 C 452.30 256.58 452.30 284.79 452.31 313.01 C 452.52 328.37 451.58 343.80 453.37 359.10 C 456.29 388.07 459.17 417.05 462.04 446.03 C 463.65 464.03 465.90 481.98 467.23 500.00 C 464.66 504.53 460.35 507.79 457.31 512.00 L 48.27 512.00 C 45.89 509.59 43.69 507.02 41.38 504.56 C 39.76 502.68 37.50 500.78 38.06 498.01 C 39.06 484.46 41.19 471.00 41.88 457.42 C 41.98 456.84 42.18 455.68 42.27 455.10 C 43.63 443.44 44.88 431.74 45.86 420.04 C 46.28 416.18 43.74 411.59 46.35 408.25 C 45.03 410.14 44.87 412.76 46.27 414.65 C 46.96 412.45 46.98 410.13 46.66 407.87 C 47.20 405.96 47.57 404.01 47.79 402.05 C 49.17 389.41 50.27 376.74 51.69 364.10 C 52.42 356.08 53.52 348.07 53.33 340.00 C 53.14 302.79 53.62 265.57 53.09 228.37 C 43.38 228.36 33.66 228.65 23.96 228.28 C 15.75 227.96 8.98 220.11 9.41 211.99 C 9.48 204.11 16.22 196.98 24.09 196.55 C 33.79 196.18 43.51 196.73 53.22 196.33 C 53.44 167.20 53.23 138.07 53.31 108.94 C 52.91 99.00 60.97 89.59 70.97 88.87 C 79.65 88.30 88.36 88.82 97.06 88.68 C 97.50 64.77 97.10 40.85 97.25 16.93 M 105.23 24.88 C 105.25 30.17 105.18 35.46 105.29 40.75 C 104.87 48.15 104.95 55.57 105.20 62.98 C 104.82 69.97 105.08 76.97 105.18 83.96 C 104.64 91.63 105.40 99.30 105.07 106.97 C 105.01 183.38 105.20 259.79 104.97 336.20 C 102.35 336.34 99.71 336.45 97.08 336.40 C 96.98 334.99 96.87 333.59 96.75 332.19 C 97.46 325.82 97.21 319.39 97.24 312.99 C 97.26 286.99 97.21 260.99 97.26 234.99 C 97.26 232.78 97.15 230.57 96.97 228.37 C 93.48 228.42 89.99 228.42 86.51 228.40 C 78.11 228.47 69.72 228.43 61.32 228.38 C 61.27 266.94 61.37 305.50 61.27 344.06 C 71.76 344.52 82.27 344.14 92.77 344.24 C 92.82 346.88 92.85 349.52 92.91 352.16 C 199.35 352.31 305.80 352.26 412.24 352.18 C 412.31 349.55 412.34 346.91 412.34 344.28 C 422.96 344.15 433.58 344.40 444.20 344.17 C 444.44 320.45 444.22 296.72 444.30 273.00 C 444.11 258.12 444.66 243.22 444.03 228.36 C 435.72 228.53 427.41 228.35 419.10 228.45 C 415.72 228.42 412.35 228.41 408.98 228.36 C 408.42 247.90 408.90 267.46 408.74 287.00 C 408.98 302.06 408.22 317.15 409.21 332.18 C 409.10 333.57 409.00 334.98 408.92 336.38 C 406.30 336.46 403.68 336.35 401.07 336.21 C 400.47 326.48 401.36 316.75 400.80 307.02 C 401.37 298.35 400.54 289.67 400.99 281.00 C 401.22 275.01 400.57 269.02 400.93 263.03 C 400.90 188.93 400.97 114.84 400.90 40.74 C 400.67 35.46 400.76 30.17 400.75 24.89 C 391.84 24.54 382.92 24.84 374.00 24.74 C 284.41 24.84 194.81 24.56 105.23 24.88 M 61.37 108.04 C 61.18 137.43 61.45 166.83 61.24 196.22 C 68.56 196.70 75.91 196.41 83.24 196.39 C 87.89 196.51 92.53 196.51 97.18 196.37 C 97.28 163.15 97.29 129.94 97.18 96.73 C 89.36 96.55 81.55 96.70 73.74 96.62 C 67.35 96.31 61.32 101.52 61.37 108.04 M 408.83 96.75 C 408.67 129.94 408.72 163.15 408.80 196.35 C 413.33 196.52 417.86 196.53 422.39 196.37 C 429.67 196.49 436.95 196.55 444.23 196.36 C 444.38 167.24 444.26 138.11 444.29 108.99 C 444.75 102.32 438.92 96.39 432.26 96.63 C 424.45 96.71 416.63 96.52 408.83 96.75 M 41.36 204.42 C 41.33 209.80 41.29 215.18 41.35 220.56 C 59.88 220.43 78.41 220.40 96.95 220.58 C 97.44 215.19 97.39 209.76 96.96 204.37 C 78.43 204.54 59.90 204.45 41.36 204.42 M 409.01 204.38 C 408.52 209.68 408.73 215.01 408.84 220.32 C 426.22 220.61 443.61 220.31 461.00 220.47 C 465.01 220.84 468.52 218.67 472.05 217.14 C 475.47 215.57 479.06 214.34 482.28 212.35 C 478.43 210.62 474.51 209.03 470.66 207.32 C 467.57 206.03 464.50 204.23 461.03 204.44 C 443.69 204.42 426.35 204.55 409.01 204.38 M 19.34 217.71 C 22.79 221.76 28.63 220.16 33.27 220.33 C 33.37 215.09 33.40 209.84 33.26 204.61 C 29.58 204.57 25.77 204.02 22.19 205.12 C 17.40 207.06 15.77 213.92 19.34 217.71 M 61.03 352.23 C 57.29 386.52 54.01 420.85 50.47 455.15 L 51.27 455.59 C 49.32 457.89 50.02 461.34 49.96 464.16 L 49.33 464.22 C 49.20 472.19 47.23 480.07 47.67 488.05 L 46.98 488.06 C 46.91 491.30 46.25 494.52 46.34 497.77 C 48.29 500.29 50.30 504.14 53.94 504.01 C 186.31 503.98 318.68 503.98 451.05 504.01 C 454.78 504.26 456.88 500.37 458.89 497.82 C 458.94 494.54 458.35 491.30 458.09 488.04 C 453.64 442.78 449.11 397.52 444.71 352.25 C 436.58 352.29 428.46 352.21 420.33 352.27 C 420.32 354.90 420.30 357.54 420.23 360.18 C 308.51 360.34 196.78 360.24 85.06 360.23 C 85.01 357.56 84.97 354.90 84.89 352.23 C 76.94 352.30 68.98 352.24 61.03 352.23 Z" />
<path fill="#7D5EA3" opacity="1.00" d=" M 452.73 34.01 C 460.72 34.03 468.71 33.88 476.71 34.11 C 476.66 36.69 476.65 39.27 476.70 41.86 C 471.38 42.03 466.06 41.91 460.75 41.99 C 460.59 49.19 460.72 56.39 460.66 63.58 C 458.10 63.54 455.54 63.54 452.99 63.59 C 452.29 53.75 452.81 43.87 452.73 34.01 Z" />
<path fill="#7D5EA3" opacity="1.00" d=" M 133.19 60.92 C 151.79 60.41 170.41 60.78 189.01 60.73 C 189.01 63.40 188.98 66.07 188.91 68.74 C 170.35 68.65 151.79 68.69 133.23 68.71 C 133.20 66.11 133.19 63.51 133.19 60.92 Z" />
<path fill="#7D5EA3" opacity="1.00" d=" M 133.24 75.36 C 159.78 75.49 186.33 75.53 212.88 75.34 C 212.98 78.01 213.01 80.68 213.02 83.35 C 186.40 83.48 159.77 83.63 133.15 83.28 C 133.18 80.64 133.20 78.00 133.24 75.36 Z" />
<path fill="#7D5EA3" opacity="1.00" d=" M 129.00 100.50 C 131.69 100.35 134.40 100.33 137.09 100.55 C 137.14 103.27 137.19 105.99 137.28 108.72 C 137.44 114.02 137.38 119.33 137.25 124.64 C 137.18 127.32 137.20 130.00 137.27 132.69 C 137.42 137.99 137.38 143.31 137.25 148.62 C 137.20 151.32 137.25 154.03 137.34 156.73 C 137.45 161.93 137.33 167.13 137.55 172.33 C 142.76 172.54 147.97 172.47 153.18 172.47 C 147.83 172.61 142.49 172.47 137.15 172.71 C 137.16 175.25 137.15 177.78 137.14 180.32 C 142.48 180.56 147.82 180.39 153.17 180.56 C 147.95 180.59 142.73 180.50 137.52 180.68 C 137.33 185.88 137.50 191.09 137.35 196.29 C 137.25 198.96 137.17 201.62 137.10 204.29 C 142.45 204.48 147.81 204.37 153.17 204.52 C 147.95 204.52 142.74 204.47 137.52 204.65 C 137.36 209.85 137.47 215.06 137.33 220.27 C 137.23 222.97 137.18 225.68 137.25 228.39 C 137.42 233.69 137.40 239.00 137.25 244.30 C 137.18 246.98 137.20 249.66 137.27 252.34 C 137.36 255.84 137.36 259.33 137.27 262.83 C 140.60 259.31 144.03 255.89 147.41 252.43 C 152.13 247.87 156.76 243.22 161.33 238.52 C 163.37 236.53 165.41 234.54 167.39 232.50 C 168.72 231.15 170.04 229.80 171.38 228.46 C 174.61 225.30 177.81 222.11 181.04 218.95 C 182.29 220.07 183.54 221.20 184.75 222.36 C 190.14 227.81 195.34 233.45 201.10 238.51 C 203.99 235.96 206.68 233.21 209.33 230.43 C 214.73 225.13 220.08 219.79 225.37 214.38 C 228.00 211.80 230.66 209.25 232.99 206.38 C 234.21 206.15 234.98 205.42 235.29 204.20 C 238.06 201.75 240.66 199.10 243.25 196.45 C 245.21 194.47 247.16 192.48 249.13 190.51 C 251.88 187.84 254.59 185.11 257.27 182.36 C 262.66 177.07 267.98 171.71 273.29 166.34 C 276.42 163.47 279.14 160.21 281.95 157.05 C 285.02 154.51 287.95 151.81 290.55 148.78 C 292.74 146.66 294.98 144.58 297.11 142.39 C 300.53 139.37 303.32 135.75 306.36 132.39 C 307.93 130.59 310.06 131.71 311.79 132.57 C 314.31 136.27 317.58 139.35 320.82 142.41 C 322.22 143.77 323.61 145.15 325.01 146.53 C 326.16 145.33 327.37 144.17 328.37 142.84 C 328.91 139.63 328.34 136.35 328.64 133.13 C 328.77 136.18 328.79 139.23 328.92 142.28 C 333.70 138.20 337.95 133.56 342.37 129.10 C 345.72 125.71 349.55 122.74 352.37 118.87 C 352.88 115.62 352.45 112.33 352.41 109.07 C 351.57 108.91 349.87 108.60 349.03 108.44 C 348.92 105.89 348.85 103.33 348.78 100.78 C 357.96 100.51 367.16 100.56 376.35 100.71 C 376.88 109.84 376.10 118.99 376.78 128.10 L 376.82 128.66 C 374.17 128.63 371.52 128.63 368.87 128.69 C 368.70 124.07 368.63 119.43 368.56 114.80 C 362.94 119.76 357.90 125.31 352.56 130.55 C 349.97 133.36 346.60 135.60 344.80 139.03 C 344.53 142.07 344.81 145.14 344.80 148.19 C 344.64 145.24 344.46 142.28 344.24 139.33 C 338.58 143.94 333.78 149.47 328.59 154.57 C 327.39 155.73 326.17 156.88 324.95 158.02 C 323.71 156.88 322.47 155.74 321.27 154.57 C 317.91 151.04 314.58 147.49 311.02 144.16 C 310.21 141.98 307.71 141.81 306.95 144.13 C 306.28 144.76 305.60 145.38 304.92 145.99 C 301.14 149.40 297.64 153.12 294.02 156.69 C 289.63 161.14 285.23 165.56 280.81 169.96 C 278.16 172.60 275.54 175.27 272.91 177.92 C 267.58 183.25 262.24 188.58 256.94 193.94 C 253.78 197.08 250.65 200.23 247.48 203.35 C 247.81 203.67 248.46 204.31 248.79 204.63 C 247.27 205.03 245.56 205.23 244.45 206.46 C 240.40 210.31 236.63 214.44 232.57 218.28 C 230.04 220.85 227.54 223.45 225.00 226.00 C 219.57 231.51 214.07 236.94 208.68 242.49 C 206.13 244.98 203.58 247.48 201.07 250.01 C 195.77 244.61 190.39 239.30 185.04 233.95 C 183.74 232.66 182.41 231.40 181.08 230.15 C 179.64 231.60 178.22 233.07 176.78 234.51 C 171.31 239.74 166.01 245.13 160.69 250.51 C 158.26 252.98 155.49 255.18 153.54 258.08 C 152.97 261.40 153.32 264.79 153.25 268.15 C 153.23 267.24 153.19 265.43 153.17 264.52 C 153.10 262.54 152.98 260.56 152.85 258.59 C 150.76 260.45 148.74 262.40 146.77 264.38 C 143.68 267.74 139.93 270.53 137.31 274.30 C 136.84 280.37 137.32 286.48 137.29 292.58 C 176.85 292.28 216.42 292.58 255.98 292.42 C 296.23 292.61 336.51 292.22 376.76 292.61 C 377.56 295.16 376.75 298.00 376.87 300.67 C 294.28 300.62 211.70 300.59 129.12 300.69 C 128.84 233.96 129.08 167.23 129.00 100.50 M 352.62 108.68 C 352.66 111.91 352.76 115.13 352.93 118.35 C 356.42 115.52 359.67 112.38 362.45 108.84 C 359.17 108.59 355.89 108.60 352.62 108.68 Z" />
<path fill="#7D5EA3" opacity="1.00" d=" M 133.21 312.26 C 159.78 312.32 186.35 312.33 212.92 312.25 C 212.99 314.91 213.01 317.57 213.01 320.23 C 191.34 320.43 169.67 320.23 148.00 320.33 C 143.06 320.30 138.11 320.44 133.18 320.08 C 133.18 317.47 133.19 314.86 133.21 312.26 Z" />
<path fill="#7D5EA3" opacity="1.00" d=" M 133.23 328.26 C 159.80 328.28 186.36 328.33 212.92 328.24 C 212.99 330.91 213.01 333.58 213.01 336.25 C 186.39 336.26 159.77 336.41 133.16 336.17 C 133.18 333.53 133.20 330.90 133.23 328.26 Z" />
<path fill="#7D5EA3" opacity="1.00" d=" M 480.78 368.18 C 483.41 368.21 486.04 368.23 488.68 368.26 C 488.59 372.22 488.60 376.18 488.74 380.14 C 492.71 380.22 496.69 380.22 500.66 380.25 C 500.63 382.84 500.63 385.43 500.67 388.02 C 496.69 388.14 492.71 387.99 488.73 387.99 C 488.59 392.01 488.60 396.03 488.69 400.05 C 486.03 400.15 483.37 400.06 480.72 399.98 C 480.63 396.08 480.60 392.19 480.67 388.30 C 476.69 388.07 472.70 387.95 468.71 387.97 C 468.64 385.37 468.65 382.77 468.76 380.17 C 472.74 380.26 476.73 380.28 480.71 379.99 C 480.59 376.05 480.59 372.11 480.78 368.18 Z" />
</g>
<g id="#dcdcdbff">
<path fill="#dcdcdb" opacity="1.00" d=" M 105.23 24.88 C 194.81 24.56 284.41 24.84 374.00 24.74 C 382.92 24.84 391.84 24.54 400.75 24.89 C 400.76 30.17 400.67 35.46 400.90 40.74 C 302.36 40.75 203.83 40.72 105.29 40.75 C 105.18 35.46 105.25 30.17 105.23 24.88 Z" />
<path fill="#dcdcdb" opacity="1.00" d=" M 73.74 96.62 C 81.55 96.70 89.36 96.55 97.18 96.73 C 97.29 129.94 97.28 163.15 97.18 196.37 C 92.53 196.51 87.89 196.51 83.24 196.39 C 80.16 163.13 76.76 129.89 73.74 96.62 Z" />
<path fill="#dcdcdb" opacity="1.00" d=" M 408.83 96.75 C 416.63 96.52 424.45 96.71 432.26 96.63 C 429.08 129.88 425.54 163.11 422.39 196.37 C 417.86 196.53 413.33 196.52 408.80 196.35 C 408.72 163.15 408.67 129.94 408.83 96.75 Z" />
<path fill="#dcdcdb" opacity="1.00" d=" M 345.02 100.64 C 355.58 100.27 366.14 100.39 376.69 100.44 C 376.90 109.66 376.76 118.88 376.78 128.10 C 376.10 118.99 376.88 109.84 376.35 100.71 C 367.16 100.56 357.96 100.51 348.78 100.78 C 348.85 103.33 348.92 105.89 349.03 108.44 C 349.87 108.60 351.57 108.91 352.41 109.07 C 352.45 112.33 352.88 115.62 352.37 118.87 C 349.55 122.74 345.72 125.71 342.37 129.10 C 337.96 128.53 333.50 128.52 329.06 128.81 C 328.90 130.24 328.75 131.68 328.64 133.13 C 328.34 136.35 328.91 139.63 328.37 142.84 C 327.37 144.17 326.16 145.33 325.01 146.53 C 323.61 145.15 322.22 143.77 320.82 142.41 C 320.91 139.14 320.90 135.87 320.91 132.60 C 317.87 132.58 314.82 132.63 311.79 132.57 C 310.06 131.71 307.93 130.59 306.36 132.39 C 303.32 135.75 300.53 139.37 297.11 142.39 C 296.91 139.13 296.91 135.87 296.91 132.60 C 291.60 132.57 286.30 132.56 280.99 132.61 C 280.96 137.93 280.96 143.26 281.07 148.58 C 284.23 148.53 287.39 148.51 290.55 148.78 C 287.95 151.81 285.02 154.51 281.95 157.05 C 279.14 160.21 276.42 163.47 273.29 166.34 C 273.11 162.96 272.99 159.57 272.85 156.19 C 267.60 156.16 262.35 156.17 257.11 156.22 C 256.87 164.93 256.75 173.66 257.27 182.36 C 254.59 185.11 251.88 187.84 249.13 190.51 C 248.96 187.19 248.98 183.86 248.98 180.54 C 243.65 180.50 238.33 180.50 233.01 180.55 C 233.01 185.85 233.03 191.16 233.05 196.46 C 236.45 196.49 239.85 196.49 243.25 196.45 C 240.66 199.10 238.06 201.75 235.29 204.20 C 233.69 204.10 232.92 204.82 232.99 206.38 C 230.66 209.25 228.00 211.80 225.37 214.38 C 225.24 212.37 225.14 210.37 225.06 208.36 C 225.00 207.04 224.94 205.72 224.89 204.41 C 219.62 204.51 214.36 204.50 209.10 204.42 C 209.06 205.73 209.03 207.05 209.00 208.37 C 208.93 215.72 208.83 223.09 209.33 230.43 C 206.68 233.21 203.99 235.96 201.10 238.51 C 201.23 223.20 201.23 207.89 201.09 192.59 C 201.09 188.57 201.09 184.56 201.04 180.55 C 195.73 180.49 190.42 180.50 185.12 180.55 C 185.12 184.57 185.11 188.59 185.10 192.61 C 184.88 202.53 185.20 212.45 184.75 222.36 C 183.54 221.20 182.29 220.07 181.04 218.95 C 177.81 222.11 174.61 225.30 171.38 228.46 C 167.98 228.43 164.58 228.45 161.19 228.40 C 161.14 229.70 161.10 231.00 161.07 232.31 C 161.07 234.38 161.19 236.45 161.33 238.52 C 156.76 243.22 152.13 247.87 147.41 252.43 C 144.03 252.38 140.65 252.40 137.27 252.34 C 137.20 249.66 137.18 246.98 137.25 244.30 C 142.54 244.49 147.84 244.40 153.13 244.37 C 153.16 239.05 153.25 233.73 153.05 228.41 C 147.79 228.44 142.52 228.49 137.25 228.39 C 137.18 225.68 137.23 222.97 137.33 220.27 C 142.59 220.59 147.87 220.44 153.14 220.42 C 153.20 215.12 153.14 209.82 153.17 204.52 C 147.81 204.37 142.45 204.48 137.10 204.29 C 137.17 201.62 137.25 198.96 137.35 196.29 C 142.61 196.63 147.89 196.47 153.17 196.45 C 153.17 191.15 153.14 185.86 153.17 180.56 C 147.82 180.39 142.48 180.56 137.14 180.32 C 137.15 177.78 137.16 175.25 137.15 172.71 C 142.49 172.47 147.83 172.61 153.18 172.47 C 153.14 167.17 153.16 161.87 153.15 156.58 C 147.88 156.57 142.60 156.41 137.34 156.73 C 137.25 154.03 137.20 151.32 137.25 148.62 C 142.52 148.51 147.79 148.56 153.05 148.59 C 153.22 143.26 153.16 137.94 153.16 132.61 C 147.86 132.58 142.56 132.50 137.27 132.69 C 137.20 130.00 137.18 127.32 137.25 124.64 C 142.52 124.54 147.79 124.59 153.06 124.62 C 153.21 119.30 153.20 113.98 153.13 108.66 C 147.84 108.63 142.56 108.55 137.28 108.72 C 137.19 105.99 137.14 103.27 137.09 100.55 C 206.40 100.75 275.71 100.58 345.02 100.64 M 161.12 108.66 C 161.16 113.98 161.10 119.30 161.17 124.62 C 166.43 124.57 171.70 124.57 176.96 124.63 C 177.23 119.31 177.08 113.98 177.10 108.66 C 171.78 108.61 166.45 108.61 161.12 108.66 M 185.09 108.66 C 185.12 113.98 185.08 119.31 185.17 124.63 C 190.42 124.57 195.68 124.56 200.94 124.64 C 201.17 119.31 201.06 113.98 201.05 108.65 C 195.73 108.61 190.41 108.61 185.09 108.66 M 209.03 108.66 C 209.05 113.98 209.04 119.31 209.08 124.63 C 214.36 124.57 219.64 124.56 224.92 124.64 C 225.12 119.31 225.00 113.98 225.01 108.65 C 219.68 108.60 214.36 108.61 209.03 108.66 M 233.02 108.66 C 233.09 113.98 232.95 119.31 233.07 124.64 C 238.36 124.57 243.65 124.55 248.93 124.64 C 249.01 119.31 249.00 113.98 249.00 108.65 C 243.67 108.61 238.34 108.60 233.02 108.66 M 257.00 108.64 C 256.97 113.98 256.95 119.31 257.06 124.64 C 262.35 124.55 267.64 124.56 272.93 124.64 C 273.02 119.31 272.93 113.98 272.99 108.66 C 267.66 108.61 262.33 108.61 257.00 108.64 M 280.97 108.65 C 281.00 113.98 280.91 119.31 281.07 124.64 C 286.34 124.56 291.61 124.57 296.89 124.64 C 296.98 119.31 296.90 113.98 296.90 108.65 C 291.59 108.61 286.28 108.61 280.97 108.65 M 304.95 108.65 C 304.95 113.98 304.80 119.31 305.07 124.64 C 310.33 124.57 315.60 124.56 320.86 124.63 C 320.92 119.31 320.88 113.98 320.89 108.65 C 315.58 108.61 310.27 108.61 304.95 108.65 M 328.90 108.66 C 328.91 113.98 328.72 119.31 329.02 124.63 C 334.28 124.57 339.54 124.56 344.81 124.62 C 344.90 119.30 344.84 113.99 344.88 108.67 C 339.55 108.59 334.23 108.61 328.90 108.66 M 161.11 132.62 C 161.16 137.95 161.11 143.28 161.20 148.60 C 166.45 148.54 171.70 148.53 176.95 148.61 C 177.24 143.28 177.07 137.94 177.09 132.61 C 171.76 132.57 166.44 132.55 161.11 132.62 M 185.09 132.62 C 185.13 137.94 185.11 143.27 185.14 148.60 C 190.40 148.53 195.66 148.53 200.93 148.60 C 201.20 143.28 201.04 137.94 201.05 132.61 C 195.73 132.56 190.41 132.56 185.09 132.62 M 209.03 132.62 C 209.12 137.94 208.97 143.27 209.09 148.60 C 214.37 148.54 219.64 148.51 224.92 148.62 C 225.15 143.28 225.01 137.94 225.01 132.61 C 219.68 132.57 214.35 132.55 209.03 132.62 M 233.04 132.60 C 233.04 137.94 232.94 143.28 233.08 148.61 C 238.36 148.52 243.65 148.53 248.94 148.61 C 249.04 143.28 249.01 137.94 249.00 132.61 C 243.68 132.56 238.36 132.56 233.04 132.60 M 256.98 132.61 C 257.02 137.94 256.93 143.27 257.07 148.61 C 262.35 148.52 267.64 148.53 272.92 148.61 C 273.06 143.28 272.93 137.94 272.97 132.61 C 267.64 132.56 262.31 132.56 256.98 132.61 M 161.11 156.60 C 161.17 161.92 161.13 167.23 161.17 172.55 C 166.42 172.50 171.68 172.48 176.93 172.57 C 177.28 167.24 177.06 161.91 177.07 156.58 C 171.75 156.53 166.43 156.52 161.11 156.60 M 185.08 156.59 C 185.19 161.91 185.05 167.24 185.14 172.56 C 190.40 172.48 195.66 172.48 200.92 172.57 C 201.23 167.24 201.03 161.91 201.05 156.58 C 195.73 156.53 190.40 156.52 185.08 156.59 M 209.06 156.58 C 209.08 161.91 208.95 167.24 209.10 172.56 C 214.37 172.48 219.65 172.48 224.92 172.57 C 225.09 167.24 225.07 161.91 225.01 156.58 C 219.69 156.53 214.37 156.53 209.06 156.58 M 233.01 156.58 C 233.04 161.91 232.94 167.24 233.09 172.57 C 238.37 172.48 243.65 172.48 248.93 172.57 C 249.08 167.24 248.94 161.91 248.98 156.57 C 243.66 156.53 238.33 156.53 233.01 156.58 M 209.10 180.47 C 208.97 185.79 209.06 191.12 209.03 196.45 C 214.36 196.51 219.69 196.50 225.01 196.45 C 224.99 191.12 225.13 185.79 224.91 180.46 C 219.64 180.56 214.37 180.55 209.10 180.47 M 161.11 180.58 C 161.20 185.86 161.15 191.14 161.11 196.42 C 166.43 196.53 171.75 196.50 177.07 196.45 C 177.16 191.15 177.12 185.85 177.07 180.55 C 171.75 180.50 166.43 180.47 161.11 180.58 M 161.20 204.43 C 161.10 209.75 161.17 215.08 161.11 220.40 C 166.43 220.48 171.75 220.47 177.07 220.42 C 177.07 215.09 177.28 209.75 176.94 204.42 C 171.69 204.50 166.44 204.50 161.20 204.43 Z" />
<path fill="#dcdcdb" opacity="1.00" d=" M 368.87 128.69 C 371.52 128.63 374.17 128.63 376.82 128.66 C 376.77 175.44 376.82 222.22 376.79 269.00 C 376.62 276.76 377.16 284.59 376.54 292.30 C 374.05 292.29 371.55 292.23 369.06 292.16 C 368.82 237.67 369.18 183.18 368.87 128.69 Z" />
<path fill="#dcdcdb" opacity="1.00" d=" M 344.80 139.03 C 346.60 135.60 349.97 133.36 352.56 130.55 C 352.95 160.69 352.55 190.82 352.78 220.96 C 352.57 244.72 353.05 268.48 352.27 292.23 C 349.86 292.24 347.45 292.25 345.05 292.25 C 344.79 244.23 345.29 196.20 344.80 148.19 C 344.81 145.14 344.53 142.07 344.80 139.03 Z" />
<path fill="#dcdcdb" opacity="1.00" d=" M 294.02 156.69 C 297.64 153.12 301.14 149.40 304.92 145.99 C 304.68 194.72 304.92 243.45 304.79 292.18 C 302.23 292.23 299.68 292.26 297.12 292.26 C 296.81 256.38 297.16 220.50 296.96 184.62 C 296.94 183.26 296.92 181.91 296.91 180.56 C 291.61 180.49 286.30 180.49 281.00 180.56 C 280.98 181.91 280.96 183.25 280.94 184.61 C 280.85 220.47 281.04 256.34 280.84 292.21 C 278.25 292.24 275.66 292.25 273.07 292.25 C 272.86 254.14 273.18 216.03 272.91 177.92 C 275.54 175.27 278.16 172.60 280.81 169.96 C 280.91 170.61 281.12 171.91 281.22 172.56 C 286.43 172.49 291.65 172.49 296.86 172.55 C 296.95 167.22 296.93 161.89 296.92 156.56 C 296.19 156.60 294.74 156.66 294.02 156.69 Z" />
<path fill="#dcdcdb" opacity="1.00" d=" M 321.27 154.57 C 322.47 155.74 323.71 156.88 324.95 158.02 C 326.17 156.88 327.39 155.73 328.59 154.57 C 328.69 162.05 328.74 169.53 328.82 177.01 C 328.42 215.42 329.30 253.83 328.29 292.23 C 325.88 292.24 323.47 292.25 321.07 292.25 C 320.89 268.84 321.08 245.43 320.97 222.02 C 321.20 199.53 320.66 177.04 321.27 154.57 Z" />
<path fill="#dcdcdb" opacity="1.00" d=" M 247.48 203.35 C 250.65 200.23 253.78 197.08 256.94 193.94 C 256.94 226.70 257.06 259.46 256.88 292.22 C 254.27 292.25 251.65 292.26 249.04 292.26 C 248.81 269.61 249.31 246.95 248.81 224.31 C 243.61 224.32 238.41 224.33 233.21 224.32 C 232.64 246.95 233.22 269.61 232.95 292.26 C 230.33 292.26 227.71 292.25 225.10 292.22 C 225.00 270.15 225.20 248.07 225.00 226.00 C 227.54 223.45 230.04 220.85 232.57 218.28 C 232.91 218.81 233.59 219.88 233.93 220.42 C 238.95 220.57 243.96 220.41 248.98 220.43 C 248.92 215.16 249.22 209.89 248.79 204.63 C 248.46 204.31 247.81 203.67 247.48 203.35 Z" />
<path fill="#dcdcdb" opacity="1.00" d=" M 86.51 228.40 C 89.99 228.42 93.48 228.42 96.97 228.37 C 97.15 230.57 97.26 232.78 97.26 234.99 C 97.21 260.99 97.26 286.99 97.24 312.99 C 97.21 319.39 97.46 325.82 96.75 332.19 C 93.51 297.58 89.79 263.01 86.51 228.40 Z" />
<path fill="#dcdcdb" opacity="1.00" d=" M 408.98 228.36 C 412.35 228.41 415.72 228.42 419.10 228.45 C 415.90 263.03 412.35 297.59 409.21 332.18 C 408.22 317.15 408.98 302.06 408.74 287.00 C 408.90 267.46 408.42 247.90 408.98 228.36 Z" />
<path fill="#dcdcdb" opacity="1.00" d=" M 176.78 234.51 C 178.22 233.07 179.64 231.60 181.08 230.15 C 182.41 231.40 183.74 232.66 185.04 233.95 C 184.93 253.38 185.09 272.82 184.94 292.25 C 182.53 292.25 180.13 292.24 177.73 292.22 C 177.45 281.15 177.04 270.07 177.31 259.00 C 176.97 250.84 177.65 242.65 176.78 234.51 Z" />
<path fill="#dcdcdb" opacity="1.00" d=" M 201.07 250.01 C 203.58 247.48 206.13 244.98 208.68 242.49 C 209.36 259.07 208.87 275.68 208.95 292.28 C 206.38 292.26 203.81 292.23 201.24 292.17 C 201.00 278.12 201.39 264.06 201.07 250.01 Z" />
<path fill="#dcdcdb" opacity="1.00" d=" M 471.06 248.01 C 474.73 249.32 478.37 250.71 481.97 252.22 C 482.15 255.77 481.71 259.35 482.11 262.88 C 484.20 265.24 486.35 267.65 488.92 269.51 C 492.25 269.54 495.57 269.27 498.90 269.18 C 500.26 272.79 501.83 276.32 503.09 279.97 C 501.66 283.31 497.27 284.72 495.90 288.11 C 495.77 290.94 495.48 293.88 496.12 296.67 C 498.28 299.22 501.67 300.91 503.13 303.94 C 502.14 307.65 500.51 311.15 498.98 314.66 C 495.47 314.58 491.95 314.39 488.44 314.37 C 486.31 316.64 484.11 318.83 481.90 321.01 C 481.97 324.54 482.04 328.08 481.93 331.61 C 478.21 332.80 474.61 334.32 471.02 335.85 C 468.50 333.41 466.51 330.41 463.65 328.36 C 460.10 328.20 456.50 328.10 452.99 328.71 C 453.15 319.12 453.10 309.53 453.01 299.94 C 456.07 301.24 459.58 302.42 462.79 300.85 C 469.29 298.38 470.35 288.28 464.59 284.45 C 461.14 281.80 456.53 282.47 452.82 284.15 C 452.72 274.68 452.82 265.20 452.78 255.73 C 456.37 256.14 460.00 255.86 463.60 255.53 C 466.45 253.47 468.48 250.42 471.06 248.01 Z" />
<path fill="#dcdcdb" opacity="1.00" d=" M 153.54 258.08 C 155.49 255.18 158.26 252.98 160.69 250.51 C 161.27 264.41 160.99 278.34 160.90 292.25 C 158.51 292.24 156.13 292.23 153.75 292.22 C 153.52 284.20 153.37 276.17 153.25 268.15 C 153.32 264.79 152.97 261.40 153.54 258.08 Z" />
<path fill="#dcdcdb" opacity="1.00" d=" M 96.91 368.23 C 104.87 368.21 112.83 368.22 120.79 368.22 C 120.80 372.17 120.81 376.12 120.80 380.08 C 112.88 380.35 104.95 380.16 97.03 380.19 C 97.05 376.20 96.72 372.22 96.91 368.23 Z" />
<path fill="#dcdcdb" opacity="1.00" d=" M 128.93 368.21 C 136.87 368.24 144.82 368.21 152.76 368.22 C 152.74 372.17 152.73 376.12 152.75 380.07 C 144.78 380.38 136.79 380.13 128.81 380.19 C 128.79 376.20 128.72 372.20 128.93 368.21 Z" />
<path fill="#dcdcdb" opacity="1.00" d=" M 160.77 368.21 C 168.75 368.22 176.73 368.22 184.72 368.23 C 184.70 372.17 184.70 376.12 184.72 380.07 C 176.74 380.33 168.75 380.19 160.77 380.18 C 160.71 376.19 160.72 372.19 160.77 368.21 Z" />
<path fill="#dcdcdb" opacity="1.00" d=" M 192.75 368.19 C 200.72 368.28 208.70 368.18 216.67 368.23 C 216.64 372.17 216.65 376.12 216.68 380.07 C 208.70 380.38 200.70 380.15 192.72 380.17 C 192.65 376.18 192.65 372.18 192.75 368.19 Z" />
<path fill="#dcdcdb" opacity="1.00" d=" M 224.71 368.19 C 232.69 368.25 240.66 368.20 248.64 368.23 C 248.60 372.18 248.60 376.13 248.63 380.08 C 240.65 380.34 232.66 380.16 224.68 380.19 C 224.61 376.19 224.60 372.19 224.71 368.19 Z" />
<path fill="#dcdcdb" opacity="1.00" d=" M 256.67 368.20 C 264.64 368.27 272.62 368.16 280.59 368.25 C 280.52 372.18 280.53 376.12 280.58 380.05 C 272.61 380.37 264.62 380.18 256.64 380.16 C 256.56 376.17 256.54 372.18 256.67 368.20 Z" />
<path fill="#dcdcdb" opacity="1.00" d=" M 288.63 368.18 C 296.55 368.25 304.48 368.25 312.41 368.17 C 312.55 372.16 312.54 376.16 312.45 380.16 C 304.50 380.27 296.54 380.20 288.59 380.17 C 288.51 376.17 288.50 372.17 288.63 368.18 Z" />
<path fill="#dcdcdb" opacity="1.00" d=" M 320.58 368.17 C 328.50 368.24 336.44 368.26 344.37 368.18 C 344.50 372.17 344.48 376.16 344.41 380.16 C 336.45 380.21 328.49 380.27 320.53 380.15 C 320.45 376.16 320.43 372.16 320.58 368.17 Z" />
<path fill="#dcdcdb" opacity="1.00" d=" M 352.41 368.24 C 360.38 368.20 368.36 368.25 376.34 368.19 C 376.46 372.17 376.43 376.17 376.37 380.16 C 368.38 380.19 360.39 380.35 352.40 380.06 C 352.45 376.11 352.45 372.17 352.41 368.24 Z" />
<path fill="#dcdcdb" opacity="1.00" d=" M 384.36 368.24 C 392.34 368.17 400.31 368.28 408.29 368.19 C 408.39 372.18 408.39 376.19 408.33 380.19 C 400.34 380.14 392.35 380.36 384.37 380.08 C 384.39 376.13 384.40 372.18 384.36 368.24 Z" />
<path fill="#dcdcdb" opacity="1.00" d=" M 81.02 388.17 C 88.96 388.18 96.89 388.21 104.83 388.18 C 104.84 392.11 104.83 396.05 104.85 399.98 C 96.90 399.84 88.95 400.36 81.00 399.96 C 81.00 396.03 80.98 392.10 81.02 388.17 Z" />
<path fill="#dcdcdb" opacity="1.00" d=" M 113.08 388.15 C 120.98 388.27 128.88 388.14 136.79 388.19 C 136.76 392.11 136.77 396.03 136.82 399.95 C 128.86 400.29 120.90 399.94 112.94 399.99 C 112.64 396.04 112.87 392.09 113.08 388.15 Z" />
<path fill="#dcdcdb" opacity="1.00" d=" M 144.80 388.18 C 152.78 388.19 160.76 388.20 168.75 388.19 C 168.73 392.16 168.74 396.13 168.73 400.11 C 160.75 399.97 152.78 399.94 144.80 400.21 C 144.74 396.20 144.75 392.19 144.80 388.18 Z" />
<path fill="#dcdcdb" opacity="1.00" d=" M 176.75 388.19 C 184.73 388.21 192.71 388.15 200.69 388.21 C 200.66 392.13 200.66 396.04 200.71 399.96 C 192.72 400.08 184.73 400.15 176.74 400.00 C 176.70 396.06 176.68 392.12 176.75 388.19 Z" />
<path fill="#dcdcdb" opacity="1.00" d=" M 208.72 388.16 C 216.70 388.24 224.67 388.15 232.65 388.21 C 232.61 392.11 232.59 396.00 232.68 399.90 C 224.70 400.48 216.68 399.65 208.68 400.11 C 208.65 396.12 208.65 392.14 208.72 388.16 Z" />
<path fill="#dcdcdb" opacity="1.00" d=" M 240.66 388.17 C 248.64 388.21 256.63 388.17 264.61 388.21 C 264.56 392.12 264.55 396.03 264.63 399.94 C 256.63 399.90 248.62 400.33 240.63 399.96 C 240.59 396.03 240.58 392.09 240.66 388.17 Z" />
<path fill="#dcdcdb" opacity="1.00" d=" M 272.63 388.15 C 280.57 388.23 288.51 388.21 296.45 388.14 C 296.58 392.09 296.55 396.04 296.50 399.99 C 288.53 400.27 280.56 399.93 272.59 400.00 C 272.53 396.05 272.52 392.10 272.63 388.15 Z" />
<path fill="#dcdcdb" opacity="1.00" d=" M 304.59 388.15 C 312.53 388.20 320.47 388.24 328.41 388.14 C 328.53 392.16 328.52 396.18 328.44 400.19 C 320.48 399.83 312.52 400.04 304.57 400.18 C 304.48 396.17 304.47 392.16 304.59 388.15 Z" />
<path fill="#dcdcdb" opacity="1.00" d=" M 336.55 388.16 C 344.49 388.23 352.43 388.18 360.36 388.17 C 360.46 392.11 360.44 396.05 360.40 400.00 C 352.43 400.05 344.47 400.16 336.50 400.00 C 336.44 396.05 336.42 392.10 336.55 388.16 Z" />
<path fill="#dcdcdb" opacity="1.00" d=" M 368.39 388.21 C 376.36 388.16 384.34 388.23 392.31 388.16 C 392.41 392.10 392.41 396.04 392.35 399.99 C 384.36 400.29 376.36 399.90 368.37 399.93 C 368.44 396.02 368.43 392.12 368.39 388.21 Z" />
<path fill="#dcdcdb" opacity="1.00" d=" M 400.33 388.21 C 408.31 388.13 416.30 388.25 424.28 388.17 C 424.35 392.11 424.34 396.05 424.31 400.00 C 416.30 399.81 408.30 400.42 400.30 399.91 C 400.38 396.01 400.37 392.11 400.33 388.21 Z" />
<path fill="#dcdcdb" opacity="1.00" d=" M 46.35 408.25 L 46.66 407.87 C 46.98 410.13 46.96 412.45 46.27 414.65 C 44.87 412.76 45.03 410.14 46.35 408.25 Z" />
<path fill="#dcdcdb" opacity="1.00" d=" M 96.92 408.18 C 104.88 408.15 112.84 408.14 120.81 408.18 C 120.80 412.11 120.79 416.04 120.82 419.98 C 112.89 420.04 104.96 420.08 97.02 420.00 C 97.04 416.06 96.72 412.12 96.92 408.18 Z" />
<path fill="#dcdcdb" opacity="1.00" d=" M 128.93 408.16 C 136.87 408.18 144.82 408.14 152.77 408.17 C 152.74 412.09 152.71 416.01 152.78 419.93 C 144.79 420.24 136.79 419.89 128.79 419.98 C 128.80 416.03 128.72 412.09 128.93 408.16 Z" />
<path fill="#dcdcdb" opacity="1.00" d=" M 160.75 408.16 C 168.74 408.14 176.73 408.17 184.73 408.17 C 184.70 412.10 184.69 416.03 184.74 419.96 C 176.74 419.95 168.74 420.17 160.75 419.97 C 160.73 416.03 160.72 412.09 160.75 408.16 Z" />
<path fill="#dcdcdb" opacity="1.00" d=" M 192.73 408.14 C 200.71 408.22 208.69 408.10 216.68 408.18 C 216.63 412.10 216.64 416.02 216.70 419.94 C 208.70 420.19 200.71 419.94 192.71 420.00 C 192.65 416.04 192.67 412.09 192.73 408.14 Z" />
<path fill="#dcdcdb" opacity="1.00" d=" M 224.68 408.13 C 232.67 408.19 240.65 408.14 248.64 408.18 C 248.60 412.12 248.60 416.06 248.64 420.00 C 240.65 420.00 232.66 420.01 224.67 420.07 C 224.62 416.09 224.62 412.11 224.68 408.13 Z" />
<path fill="#dcdcdb" opacity="1.00" d=" M 256.64 408.15 C 264.63 408.20 272.61 408.09 280.60 408.21 C 280.52 412.11 280.52 416.03 280.60 419.94 C 272.61 420.09 264.61 420.05 256.62 420.00 C 256.57 416.05 256.55 412.10 256.64 408.15 Z" />
<path fill="#dcdcdb" opacity="1.00" d=" M 288.61 408.13 C 296.55 408.19 304.49 408.18 312.43 408.12 C 312.54 412.07 312.52 416.03 312.47 419.99 C 304.50 420.18 296.54 419.91 288.57 419.99 C 288.53 416.03 288.51 412.08 288.61 408.13 Z" />
<path fill="#dcdcdb" opacity="1.00" d=" M 320.55 408.13 C 328.49 408.15 336.44 408.20 344.40 408.13 C 344.49 412.09 344.47 416.04 344.43 420.00 C 336.45 419.91 328.48 420.18 320.51 419.99 C 320.46 416.03 320.44 412.08 320.55 408.13 Z" />
<path fill="#dcdcdb" opacity="1.00" d=" M 352.40 408.18 C 360.38 408.14 368.37 408.18 376.36 408.13 C 376.45 412.09 376.42 416.04 376.38 420.00 C 368.38 420.11 360.38 420.03 352.38 419.94 C 352.46 416.02 352.45 412.10 352.40 408.18 Z" />
<path fill="#dcdcdb" opacity="1.00" d=" M 384.36 408.18 C 392.34 408.10 400.33 408.23 408.32 408.13 C 408.37 412.13 408.38 416.14 408.34 420.15 C 400.35 419.76 392.34 420.22 384.35 419.97 C 384.40 416.04 384.40 412.11 384.36 408.18 Z" />
<path fill="#dcdcdb" opacity="1.00" d=" M 31.89 413.91 C 34.18 412.54 36.48 411.18 38.83 409.90 C 40.15 412.19 41.46 414.49 42.76 416.79 C 40.46 418.09 38.19 419.44 35.89 420.75 C 34.54 418.48 33.22 416.19 31.89 413.91 Z" />
<path fill="#dcdcdb" opacity="1.00" d=" M 55.92 416.72 C 57.21 414.41 58.56 412.13 59.91 409.86 C 62.19 411.19 64.47 412.51 66.75 413.85 C 65.44 416.14 64.09 418.42 62.79 420.72 C 60.48 419.42 58.18 418.10 55.92 416.72 Z" />
<path fill="#dcdcdb" opacity="1.00" d=" M 27.11 418.71 C 29.39 419.97 31.66 421.25 33.95 422.48 C 32.78 424.88 31.45 427.21 30.00 429.46 C 27.66 428.18 25.34 426.86 23.12 425.38 C 24.49 423.18 25.80 420.95 27.11 418.71 Z" />
<path fill="#dcdcdb" opacity="1.00" d=" M 64.96 423.00 C 66.50 420.88 69.41 420.11 71.64 418.79 C 72.97 421.06 74.29 423.35 75.46 425.71 C 73.19 426.93 70.95 428.21 68.71 429.49 C 67.41 427.35 66.00 425.27 64.96 423.00 Z" />
<path fill="#dcdcdb" opacity="1.00" d=" M 191.38 428.41 C 192.87 428.00 194.44 428.14 195.97 428.11 C 234.98 428.17 273.99 428.07 313.00 428.16 C 315.54 427.97 317.25 430.60 316.88 432.94 C 316.89 447.29 316.92 461.64 316.86 475.99 C 316.96 478.06 315.23 480.23 313.02 479.97 C 273.01 480.02 232.98 480.01 192.97 479.97 C 190.74 480.21 188.90 478.19 189.13 476.02 C 189.06 461.35 189.08 446.67 189.13 432.00 C 188.98 430.42 190.09 429.14 191.38 428.41 Z" />
<path fill="#dcdcdb" opacity="1.00" d=" M 21.33 432.13 C 23.99 432.10 26.66 432.10 29.32 432.09 C 29.35 434.72 29.36 437.35 29.35 439.99 C 26.67 439.99 24.00 440.01 21.32 439.96 C 21.36 437.35 21.36 434.74 21.33 432.13 Z" />
<path fill="#dcdcdb" opacity="1.00" d=" M 69.26 432.12 C 71.93 432.11 74.59 432.12 77.26 432.12 C 77.27 434.74 77.27 437.37 77.25 440.00 C 74.59 440.00 71.92 440.00 69.26 439.95 C 69.29 437.34 69.28 434.73 69.26 432.12 Z" />
<path fill="#dcdcdb" opacity="1.00" d=" M 23.11 446.70 C 25.36 445.29 27.66 443.96 30.01 442.72 C 31.37 445.00 32.73 447.28 33.99 449.63 C 31.68 450.89 29.41 452.21 27.10 453.47 C 25.78 451.21 24.45 448.95 23.11 446.70 Z" />
<path fill="#dcdcdb" opacity="1.00" d=" M 64.80 449.58 C 66.09 447.33 66.87 444.45 68.99 442.90 C 71.30 443.89 73.38 445.33 75.48 446.70 C 74.00 448.79 73.24 451.71 71.09 453.17 C 68.95 452.04 66.91 450.74 64.80 449.58 Z" />
<path fill="#dcdcdb" opacity="1.00" d=" M 397.22 449.64 C 399.07 447.79 400.93 445.93 402.79 444.09 C 405.04 446.25 407.05 448.70 409.58 450.56 C 410.62 451.49 412.21 450.95 413.21 450.22 C 415.51 448.46 417.39 446.23 419.39 444.15 C 421.35 445.96 423.24 447.84 425.08 449.78 C 422.85 452.16 420.05 454.13 418.43 457.01 C 417.84 461.22 422.66 463.17 424.80 466.14 C 423.71 468.45 421.19 469.93 419.58 471.95 C 416.60 469.68 414.49 464.93 410.23 465.33 C 407.22 466.84 405.27 469.82 402.80 472.03 C 400.90 470.18 399.03 468.31 397.20 466.39 C 399.53 463.71 403.34 461.69 404.04 458.00 C 403.24 454.36 399.50 452.35 397.22 449.64 Z" />
<path fill="#dcdcdb" opacity="1.00" d=" M 31.95 458.26 C 33.28 455.97 34.59 453.67 35.93 451.39 C 38.04 452.63 40.17 453.85 42.27 455.10 C 42.18 455.68 41.98 456.84 41.88 457.42 C 40.84 458.99 39.82 460.58 38.80 462.18 C 36.50 460.90 34.21 459.59 31.95 458.26 Z" />
<path fill="#dcdcdb" opacity="1.00" d=" M 55.91 455.35 C 58.23 454.07 60.50 452.71 62.83 451.45 C 64.09 453.74 65.38 456.01 66.73 458.25 C 64.48 459.63 62.20 460.97 59.89 462.26 C 58.48 460.01 57.15 457.70 55.91 455.35 Z" />
<path fill="#dcdcdb" opacity="1.00" d=" M 49.96 464.16 C 50.02 461.34 49.32 457.89 51.27 455.59 C 54.76 456.77 52.87 461.15 53.31 463.89 C 52.47 463.96 50.80 464.09 49.96 464.16 Z" />
<path fill="#dcdcdb" opacity="1.00" d=" M 46.98 488.06 L 47.67 488.05 C 184.48 487.99 321.28 488.01 458.09 488.04 C 458.35 491.30 458.94 494.54 458.89 497.82 C 456.88 500.37 454.78 504.26 451.05 504.01 C 318.68 503.98 186.31 503.98 53.94 504.01 C 50.30 504.14 48.29 500.29 46.34 497.77 C 46.25 494.52 46.91 491.30 46.98 488.06 Z" />
</g>
<g id="#54D8A3ff">
<path fill="#54D8A3" opacity="1.00" d=" M 352.62 108.68 C 355.89 108.60 359.17 108.59 362.45 108.84 C 359.67 112.38 356.42 115.52 352.93 118.35 C 352.76 115.13 352.66 111.91 352.62 108.68 Z" />
<path fill="#54D8A3" opacity="1.00" d=" M 352.56 130.55 C 357.90 125.31 362.94 119.76 368.56 114.80 C 368.63 119.43 368.70 124.07 368.87 128.69 C 369.18 183.18 368.82 237.67 369.06 292.16 C 371.55 292.23 374.05 292.29 376.54 292.30 L 376.76 292.61 C 336.51 292.22 296.23 292.61 255.98 292.42 C 216.42 292.58 176.85 292.28 137.29 292.58 C 137.32 286.48 136.84 280.37 137.31 274.30 C 139.93 270.53 143.68 267.74 146.77 264.38 C 148.90 264.38 151.03 264.41 153.17 264.52 C 153.19 265.43 153.23 267.24 153.25 268.15 C 153.37 276.17 153.52 284.20 153.75 292.22 C 156.13 292.23 158.51 292.24 160.90 292.25 C 160.99 278.34 161.27 264.41 160.69 250.51 C 166.01 245.13 171.31 239.74 176.78 234.51 C 177.65 242.65 176.97 250.84 177.31 259.00 C 177.04 270.07 177.45 281.15 177.73 292.22 C 180.13 292.24 182.53 292.25 184.94 292.25 C 185.09 272.82 184.93 253.38 185.04 233.95 C 190.39 239.30 195.77 244.61 201.07 250.01 C 201.39 264.06 201.00 278.12 201.24 292.17 C 203.81 292.23 206.38 292.26 208.95 292.28 C 208.87 275.68 209.36 259.07 208.68 242.49 C 214.07 236.94 219.57 231.51 225.00 226.00 C 225.20 248.07 225.00 270.15 225.10 292.22 C 227.71 292.25 230.33 292.26 232.95 292.26 C 233.22 269.61 232.64 246.95 233.21 224.32 C 238.41 224.33 243.61 224.32 248.81 224.31 C 249.31 246.95 248.81 269.61 249.04 292.26 C 251.65 292.26 254.27 292.25 256.88 292.22 C 257.06 259.46 256.94 226.70 256.94 193.94 C 262.24 188.58 267.58 183.25 272.91 177.92 C 273.18 216.03 272.86 254.14 273.07 292.25 C 275.66 292.25 278.25 292.24 280.84 292.21 C 281.04 256.34 280.85 220.47 280.94 184.61 C 286.28 184.43 291.62 184.43 296.96 184.62 C 297.16 220.50 296.81 256.38 297.12 292.26 C 299.68 292.26 302.23 292.23 304.79 292.18 C 304.92 243.45 304.68 194.72 304.92 145.99 C 305.60 145.38 306.28 144.76 306.95 144.13 C 308.29 144.75 309.65 144.76 311.02 144.16 C 314.58 147.49 317.91 151.04 321.27 154.57 C 320.66 177.04 321.20 199.53 320.97 222.02 C 321.08 245.43 320.89 268.84 321.07 292.25 C 323.47 292.25 325.88 292.24 328.29 292.23 C 329.30 253.83 328.42 215.42 328.82 177.01 C 328.74 169.53 328.69 162.05 328.59 154.57 C 333.78 149.47 338.58 143.94 344.24 139.33 C 344.46 142.28 344.64 145.24 344.80 148.19 C 345.29 196.20 344.79 244.23 345.05 292.25 C 347.45 292.25 349.86 292.24 352.27 292.23 C 353.05 268.48 352.57 244.72 352.78 220.96 C 352.55 190.82 352.95 160.69 352.56 130.55 Z" />
<path fill="#54D8A3" opacity="1.00" d=" M 329.06 128.81 C 333.50 128.52 337.96 128.53 342.37 129.10 C 337.95 133.56 333.70 138.20 328.92 142.28 C 328.79 139.23 328.77 136.18 328.64 133.13 C 328.75 131.68 328.90 130.24 329.06 128.81 Z" />
<path fill="#54D8A3" opacity="1.00" d=" M 257.11 156.22 C 262.35 156.17 267.60 156.16 272.85 156.19 C 272.99 159.57 273.11 162.96 273.29 166.34 C 267.98 171.71 262.66 177.07 257.27 182.36 C 256.75 173.66 256.87 164.93 257.11 156.22 Z" />
<path fill="#54D8A3" opacity="1.00" d=" M 185.10 192.61 C 190.42 192.40 195.76 192.42 201.09 192.59 C 201.23 207.89 201.23 223.20 201.10 238.51 C 195.34 233.45 190.14 227.81 184.75 222.36 C 185.20 212.45 184.88 202.53 185.10 192.61 Z" />
<path fill="#54D8A3" opacity="1.00" d=" M 209.00 208.37 C 214.35 208.53 219.71 208.53 225.06 208.36 C 225.14 210.37 225.24 212.37 225.37 214.38 C 220.08 219.79 214.73 225.13 209.33 230.43 C 208.83 223.09 208.93 215.72 209.00 208.37 Z" />
<path fill="#54D8A3" opacity="1.00" d=" M 161.07 232.31 C 163.18 232.39 165.28 232.43 167.39 232.50 C 165.41 234.54 163.37 236.53 161.33 238.52 C 161.19 236.45 161.07 234.38 161.07 232.31 Z" />
</g>
<g id="#54D8A3ff">
<path fill="#54D8A3" opacity="1.00" d=" M 24.31 241.26 C 33.26 237.86 43.94 244.58 45.13 253.97 C 46.51 261.98 40.82 270.27 32.88 271.95 C 24.61 274.09 15.52 268.24 13.79 259.95 C 11.83 252.24 16.70 243.58 24.31 241.26 M 25.45 249.40 C 19.99 252.05 20.10 260.81 25.56 263.42 C 30.70 266.50 37.87 261.93 37.32 256.00 C 37.26 250.30 30.33 246.41 25.45 249.40 Z" />
</g>
</svg>
