<?xml version="1.0" encoding="UTF-8" ?>
<!DOCTYPE svg PUBLIC "-//W3C//DTD SVG 1.1//EN" "http://www.w3.org/Graphics/SVG/1.1/DTD/svg11.dtd">
<svg width="512pt" height="512pt" viewBox="0 0 512 512" version="1.1" xmlns="http://www.w3.org/2000/svg">
<g id="#7D5EA3ff">
<path fill="#7D5EA3" opacity="1.00" d=" M 80.36 20.04 C 172.76 19.97 265.15 19.99 357.55 20.03 C 381.90 44.48 406.35 68.83 430.77 93.20 C 432.19 94.39 431.94 96.33 432.03 97.98 C 431.96 122.65 432.01 147.33 432.00 172.00 C 437.70 172.08 443.41 171.81 449.10 172.10 C 456.36 172.48 463.22 177.21 465.94 183.99 C 468.18 189.05 467.56 194.68 467.60 200.05 C 467.59 226.58 467.62 253.11 467.59 279.64 C 480.50 284.84 493.18 290.60 506.01 296.00 C 493.17 301.35 480.69 307.63 467.63 312.43 C 467.57 351.63 467.59 390.82 467.62 430.02 C 482.31 442.14 497.22 453.99 512.00 466.01 L 512.00 481.39 C 508.61 485.00 504.95 488.35 501.56 491.97 C 337.79 492.01 174.03 492.04 10.26 491.95 C 6.99 488.28 3.36 484.95 0.00 481.37 L 0.00 466.01 C 14.67 453.95 29.32 441.86 44.00 429.81 C 44.00 390.54 44.00 351.27 44.00 312.00 C 38.31 311.92 32.61 312.18 26.92 311.91 C 19.52 311.57 12.99 305.34 12.12 298.01 C 10.90 289.87 16.96 281.46 25.15 280.28 C 31.41 279.64 37.72 280.15 44.00 280.00 C 44.02 250.65 43.97 221.31 44.02 191.96 C 43.82 182.92 50.53 174.39 59.39 172.52 C 66.33 171.43 73.40 172.23 80.39 172.00 C 80.40 167.75 80.38 163.51 80.37 159.26 C 80.37 156.33 80.38 153.40 80.38 150.47 C 80.37 119.50 80.41 88.52 80.37 57.55 C 80.37 54.60 80.38 51.66 80.38 48.72 C 80.35 39.16 80.43 29.60 80.36 20.04 M 88.37 28.06 C 88.44 34.01 88.41 39.96 88.33 45.92 L 88.52 45.88 C 88.39 48.67 88.40 51.46 88.51 54.25 L 88.40 54.28 C 88.42 87.43 88.36 120.58 88.43 153.73 C 88.39 156.49 88.38 159.25 88.38 162.01 C 88.41 248.01 88.42 334.00 88.38 420.00 C 85.62 420.00 82.87 420.00 80.11 420.00 L 80.03 419.41 C 80.69 414.62 80.31 409.77 80.38 404.95 C 80.39 373.97 80.38 342.98 80.39 312.00 C 76.72 312.00 73.05 311.99 69.38 312.01 C 63.58 312.00 57.79 312.00 52.00 312.00 C 52.00 350.67 52.00 389.33 52.00 428.00 C 63.88 428.04 75.77 427.91 87.65 428.07 C 87.62 430.71 87.62 433.35 87.60 436.00 C 199.61 435.93 311.62 436.14 423.63 435.89 C 423.60 433.26 423.59 430.63 423.59 428.00 C 435.61 427.96 447.63 428.08 459.65 427.94 C 459.56 389.32 459.52 350.71 459.67 312.10 C 453.99 311.92 448.30 312.02 442.63 312.00 C 439.08 312.00 435.54 312.00 432.00 312.00 C 432.11 347.37 431.82 382.75 432.15 418.12 C 432.09 418.59 431.97 419.53 431.92 420.00 C 429.27 420.00 426.64 420.00 424.00 420.00 C 424.00 334.66 423.99 249.32 424.01 163.98 C 423.78 163.75 423.33 163.30 423.11 163.08 L 423.98 163.95 C 424.01 142.62 423.98 121.29 424.00 99.96 C 424.30 98.19 423.26 96.80 422.14 95.59 C 399.94 73.79 378.14 51.58 356.03 29.70 L 356.04 28.90 C 354.42 28.32 352.75 27.88 351.02 27.97 C 263.47 28.07 175.92 27.91 88.37 28.06 M 56.66 182.52 C 53.70 184.72 51.97 188.28 52.03 191.97 C 51.98 221.32 52.05 250.66 52.00 280.01 C 56.74 279.98 61.48 279.92 66.22 280.00 C 70.94 280.00 75.66 280.02 80.38 279.96 C 80.39 246.66 80.39 213.35 80.38 180.05 C 74.91 180.02 69.43 179.91 63.96 180.02 C 61.34 180.05 58.66 180.75 56.66 182.52 M 431.99 179.99 C 432.02 213.33 432.01 246.67 432.00 280.01 C 436.58 280.00 441.17 279.94 445.76 280.00 C 450.38 280.01 455.01 280.05 459.63 279.90 C 459.52 250.59 459.63 221.27 459.57 191.96 C 459.72 188.31 457.80 185.09 455.38 182.53 C 448.42 178.01 439.74 180.78 431.99 179.99 M 21.86 290.87 C 18.26 294.82 20.25 301.90 25.30 303.53 C 28.78 304.38 32.41 303.91 35.96 303.96 C 36.02 298.65 36.00 293.33 36.00 288.02 C 31.28 288.40 25.29 286.61 21.86 290.87 M 43.99 287.99 C 44.07 293.33 44.04 298.66 43.99 304.00 C 52.19 303.98 60.39 303.96 68.59 304.01 C 72.52 304.00 76.45 303.95 80.38 303.99 C 80.36 298.65 80.40 293.32 80.39 287.99 C 75.93 287.99 71.47 288.06 67.02 288.01 C 59.34 287.95 51.67 288.11 43.99 287.99 M 432.04 287.99 C 431.97 293.33 432.01 298.66 432.00 304.00 C 435.80 303.95 439.60 303.99 443.41 304.01 C 450.59 304.00 457.77 303.92 464.95 304.03 C 468.59 304.33 471.74 302.28 474.95 300.91 C 478.21 299.36 481.59 298.09 484.80 296.42 C 484.80 296.22 484.80 295.80 484.81 295.60 C 478.98 292.97 473.11 290.33 467.10 288.17 C 459.74 287.68 452.35 288.24 444.98 288.00 C 440.66 288.00 436.35 288.00 432.04 287.99 M 49.27 436.03 C 36.46 446.80 23.30 457.16 10.62 468.09 C 9.70 468.61 8.87 469.26 8.00 469.87 C 8.01 472.58 7.86 475.31 8.10 478.02 C 9.38 480.32 11.64 481.91 13.37 483.88 C 56.57 484.15 99.78 483.91 142.98 484.00 C 260.68 483.99 378.38 484.00 496.09 484.00 C 498.86 484.44 500.48 481.80 502.27 480.18 C 505.25 477.64 503.57 473.29 504.04 469.90 C 503.17 469.27 502.33 468.61 501.42 468.06 C 488.46 457.21 475.27 446.62 462.12 436.01 C 451.94 435.99 441.76 436.00 431.59 436.00 C 431.59 438.64 431.60 441.28 431.64 443.93 C 314.29 444.10 196.93 443.95 79.57 444.00 C 79.56 441.36 79.58 438.73 79.65 436.10 C 69.52 435.90 59.39 436.02 49.27 436.03 Z" />
<path fill="#7D5EA3" opacity="1.00" d=" M 100.00 92.00 C 109.33 92.00 118.67 92.00 128.00 92.00 C 128.00 94.67 128.00 97.33 128.00 100.00 C 121.33 100.00 114.67 100.00 108.00 100.00 C 108.00 112.00 108.00 124.00 108.00 136.00 C 105.33 136.00 102.67 136.00 100.00 136.00 C 100.00 121.33 100.00 106.67 100.00 92.00 Z" />
<path fill="#7D5EA3" opacity="1.00" d=" M 20.00 152.00 C 22.67 152.00 25.33 152.00 28.00 152.00 C 28.00 156.00 28.00 160.00 28.00 164.00 C 32.00 164.00 36.00 164.00 40.00 164.00 C 40.00 166.67 40.00 169.33 40.00 172.00 C 36.00 172.00 32.00 172.00 28.00 172.00 C 28.00 176.00 28.00 180.00 28.00 184.00 C 25.33 184.00 22.67 184.00 20.00 184.00 C 20.00 180.00 20.00 176.00 20.00 172.00 C 16.00 172.00 12.00 172.00 8.00 172.00 C 8.00 169.33 8.00 166.67 8.00 164.00 C 12.00 164.00 16.00 164.00 20.00 164.00 C 20.00 160.00 20.00 156.00 20.00 152.00 Z" />
<path fill="#7D5EA3" opacity="1.00" d=" M 172.43 233.12 C 187.01 227.27 201.46 221.12 216.01 215.19 C 224.36 224.44 232.83 233.57 241.20 242.81 C 249.81 242.81 258.42 242.71 267.03 242.83 C 268.61 242.78 270.54 243.06 271.55 241.53 C 279.64 232.80 287.56 223.91 295.65 215.18 C 310.09 221.23 324.60 227.12 339.04 233.16 C 338.74 245.14 337.75 257.09 337.28 269.06 C 336.97 270.68 338.56 271.63 339.45 272.70 C 345.67 278.80 351.82 284.98 357.95 291.17 C 370.34 290.54 382.73 289.92 395.10 289.15 C 401.23 303.66 407.13 318.26 413.18 332.81 C 407.36 338.00 401.69 343.35 395.87 348.54 C 392.46 351.72 389.00 354.86 385.58 358.02 C 385.59 367.72 385.62 377.42 385.57 387.11 C 387.77 389.14 389.98 391.17 392.19 393.20 C 399.17 399.57 406.11 405.99 413.16 412.30 C 411.46 416.72 409.75 421.13 408.02 425.54 C 405.63 424.51 403.27 423.45 400.89 422.44 C 401.85 419.70 402.91 417.00 403.96 414.29 C 395.26 406.53 386.72 398.61 378.02 390.84 C 377.99 378.70 377.97 366.55 378.03 354.40 C 386.67 346.48 395.39 338.67 404.05 330.79 C 399.38 319.75 395.02 308.58 390.31 297.56 C 378.60 298.28 366.88 298.95 355.17 299.57 C 346.67 290.98 338.11 282.48 329.57 273.93 C 330.02 262.30 330.88 250.66 331.03 239.02 C 320.30 233.90 308.95 229.86 297.97 225.19 C 290.17 233.75 282.39 242.34 274.62 250.93 C 267.74 251.63 260.83 250.68 253.94 251.05 C 248.56 251.41 243.19 250.96 237.81 250.98 C 229.96 242.42 222.27 233.71 214.34 225.22 C 203.30 229.73 192.23 234.19 181.23 238.81 C 181.67 250.55 182.23 262.28 182.79 274.02 C 174.22 282.54 165.72 291.12 157.13 299.62 C 145.42 298.88 133.71 298.20 121.99 297.65 C 117.30 308.68 112.58 319.70 108.04 330.80 C 116.60 338.74 125.36 346.47 133.95 354.37 C 134.05 366.53 134.00 378.69 133.97 390.86 C 125.22 398.59 116.73 406.63 107.94 414.34 C 109.07 417.01 110.13 419.72 111.08 422.46 C 108.71 423.47 106.36 424.50 104.00 425.54 C 102.33 421.08 99.59 416.78 98.82 412.14 C 105.60 405.67 112.64 399.46 119.55 393.11 C 121.70 391.11 123.86 389.13 126.02 387.14 C 125.96 377.44 126.01 367.73 126.00 358.03 C 122.89 355.15 119.83 352.21 116.52 349.57 C 116.21 349.85 115.60 350.42 115.29 350.71 C 115.34 350.11 115.44 348.92 115.49 348.33 C 109.79 343.18 104.10 338.02 98.44 332.83 C 104.27 318.27 110.46 303.85 116.31 289.29 C 128.80 289.64 141.26 290.74 153.75 291.12 C 160.55 284.07 167.65 277.32 174.42 270.25 C 173.70 257.88 173.05 245.50 172.43 233.12 Z" />
<path fill="#7D5EA3" opacity="1.00" d=" M 250.43 335.60 C 267.27 332.70 284.94 343.28 290.75 359.25 C 295.75 371.98 292.88 387.40 283.57 397.42 C 276.67 405.14 266.39 409.61 256.05 409.58 C 241.23 409.82 226.98 400.07 221.54 386.33 C 216.82 375.09 218.26 361.46 225.29 351.49 C 231.06 343.09 240.29 337.03 250.43 335.60 M 227.06 368.96 C 225.72 377.83 229.12 386.87 235.19 393.32 C 241.04 398.86 248.97 402.45 257.13 401.93 C 264.45 401.78 271.36 398.43 276.64 393.47 C 284.37 385.62 287.34 373.45 283.54 363.04 C 279.58 351.27 267.44 342.96 255.02 343.62 C 241.18 343.82 228.66 355.24 227.06 368.96 Z" />
</g>
<g id="#54D8A3ff">
<path fill="#54D8A3" opacity="1.00" d=" M 356.03 29.70 C 378.14 51.58 399.94 73.79 422.14 95.59 C 400.21 95.72 378.27 95.35 356.35 95.79 L 355.99 95.78 C 356.04 73.75 355.96 51.73 356.03 29.70 Z" />
<path fill="#54D8A3" opacity="1.00" d=" M 125.94 176.12 C 135.15 174.67 144.25 182.77 144.00 192.04 C 144.18 201.28 135.04 209.35 125.88 207.86 C 118.22 206.91 111.87 199.78 112.00 192.03 C 111.81 184.23 118.23 177.01 125.94 176.12 M 125.31 184.45 C 119.60 186.21 118.13 194.56 122.91 198.15 C 127.10 201.97 134.57 199.46 135.75 193.96 C 137.55 188.09 131.00 182.10 125.31 184.45 Z" />
</g>
<g id="#C3B5D5ff">
<path fill="#C3B5D5" opacity="1.00" d=" M 88.52 45.88 C 100.60 43.00 113.54 43.37 125.19 47.85 C 141.81 54.03 155.31 68.00 160.86 84.85 C 165.12 97.40 165.02 111.37 160.61 123.86 C 154.85 140.60 141.23 154.38 124.57 160.36 C 113.04 164.63 100.26 165.02 88.38 162.01 C 88.38 159.25 88.39 156.49 88.43 153.73 C 102.66 158.01 118.73 156.25 131.34 148.25 C 143.29 140.93 152.08 128.58 154.87 114.82 C 158.00 100.50 154.68 84.87 145.88 73.13 C 133.33 55.42 109.10 47.73 88.51 54.25 C 88.40 51.46 88.39 48.67 88.52 45.88 Z" />
<path fill="#C3B5D5" opacity="1.00" d=" M 50.23 77.29 C 56.49 64.57 67.45 54.44 80.38 48.72 C 80.38 51.66 80.37 54.60 80.37 57.55 C 68.61 63.68 59.19 74.22 54.89 86.81 C 49.19 102.96 52.06 121.88 62.56 135.46 C 67.25 141.77 73.53 146.71 80.38 150.47 C 80.38 153.40 80.37 156.33 80.37 159.26 C 66.25 153.04 54.52 141.47 48.63 127.16 C 41.95 111.33 42.55 92.66 50.23 77.29 Z" />
<path fill="#C3B5D5" opacity="1.00" d=" M 234.37 299.53 C 253.22 293.98 274.29 295.98 291.57 305.43 C 309.43 314.91 323.37 331.69 328.94 351.19 C 336.57 376.24 329.81 404.85 312.02 424.01 C 274.67 424.00 237.33 423.98 199.99 424.01 C 187.15 409.97 179.65 391.05 179.98 371.98 C 179.80 357.06 184.62 342.29 192.83 329.90 C 202.60 315.37 217.54 304.39 234.37 299.53 M 249.06 328.12 C 234.54 330.24 221.44 339.99 215.20 353.26 C 209.74 364.59 209.32 378.24 214.18 389.85 C 219.51 402.93 231.26 413.21 244.99 416.61 C 257.47 419.86 271.28 417.28 281.78 409.81 C 292.53 402.34 299.83 390.06 300.96 376.99 C 302.52 362.18 295.92 346.95 284.32 337.69 C 274.62 329.70 261.47 326.14 249.06 328.12 Z" />
</g>
<g id="#dcdcdbff">
<path fill="#dcdcdb" opacity="1.00" d=" M 356.35 95.79 C 378.27 95.35 400.21 95.72 422.14 95.59 C 423.26 96.80 424.30 98.19 424.00 99.96 C 423.98 121.29 424.01 142.62 423.98 163.95 L 423.11 163.08 C 400.87 140.63 378.45 118.37 356.35 95.79 Z" />
<path fill="#dcdcdb" opacity="1.00" d=" M 465.66 97.62 C 468.30 97.58 470.94 97.59 473.59 97.59 C 473.59 100.26 473.59 102.93 473.60 105.60 C 470.92 105.60 468.25 105.60 465.58 105.59 C 465.58 102.94 465.58 100.28 465.66 97.62 Z" />
<path fill="#dcdcdb" opacity="1.00" d=" M 452.01 103.34 C 454.32 102.02 456.60 100.66 458.89 99.31 C 460.30 101.58 461.61 103.90 462.92 106.24 C 460.61 107.54 458.32 108.89 456.02 110.20 C 454.69 107.91 453.36 105.62 452.01 103.34 Z" />
<path fill="#dcdcdb" opacity="1.00" d=" M 479.89 99.26 C 482.18 100.60 484.47 101.95 486.79 103.24 C 485.49 105.56 484.19 107.88 482.86 110.18 C 480.54 108.89 478.27 107.53 475.96 106.22 C 477.23 103.88 478.59 101.59 479.89 99.26 Z" />
<path fill="#dcdcdb" opacity="1.00" d=" M 168.00 108.00 C 226.67 108.00 285.33 108.01 344.00 108.00 C 344.00 110.66 344.00 113.32 343.99 115.98 C 285.33 116.02 226.66 115.98 168.00 116.00 C 168.02 113.33 168.02 110.67 168.00 108.00 Z" />
<path fill="#dcdcdb" opacity="1.00" d=" M 447.21 108.27 C 449.55 109.43 451.77 110.81 454.05 112.10 C 452.70 114.38 451.37 116.68 450.07 119.00 C 447.77 117.66 445.44 116.37 443.13 115.06 C 444.46 112.78 445.64 110.40 447.21 108.27 Z" />
<path fill="#dcdcdb" opacity="1.00" d=" M 484.85 112.08 C 487.14 110.77 489.42 109.46 491.66 108.09 C 493.02 110.36 494.38 112.63 495.73 114.92 C 493.48 116.36 491.15 117.66 488.85 119.00 C 487.51 116.69 486.16 114.40 484.85 112.08 Z" />
<path fill="#dcdcdb" opacity="1.00" d=" M 441.66 121.63 C 444.30 121.58 446.94 121.59 449.59 121.59 C 449.59 124.26 449.59 126.93 449.60 129.60 C 446.92 129.60 444.25 129.60 441.58 129.59 C 441.58 126.94 441.58 124.28 441.66 121.63 Z" />
<path fill="#dcdcdb" opacity="1.00" d=" M 489.63 121.65 C 492.28 121.58 494.93 121.59 497.59 121.57 C 497.59 124.25 497.59 126.92 497.60 129.60 C 494.92 129.60 492.25 129.59 489.58 129.59 C 489.58 126.94 489.58 124.30 489.63 121.65 Z" />
<path fill="#dcdcdb" opacity="1.00" d=" M 168.00 124.00 C 226.66 124.01 285.33 124.01 344.00 124.00 C 344.00 126.66 344.00 129.33 344.00 132.00 C 285.34 131.98 226.68 132.02 168.02 131.98 C 168.01 129.32 167.99 126.66 168.00 124.00 Z" />
<path fill="#dcdcdb" opacity="1.00" d=" M 443.27 136.13 C 445.55 134.75 447.86 133.42 450.17 132.10 C 451.46 134.42 452.80 136.72 454.17 139.01 C 451.86 140.31 449.57 141.63 447.32 143.03 C 445.92 140.76 444.60 138.44 443.27 136.13 Z" />
<path fill="#dcdcdb" opacity="1.00" d=" M 484.75 139.01 C 486.03 136.67 487.36 134.36 488.71 132.06 C 491.01 133.41 493.31 134.79 495.62 136.13 C 494.27 138.41 492.93 140.69 491.63 143.00 C 489.33 141.67 487.04 140.33 484.75 139.01 Z" />
<path fill="#dcdcdb" opacity="1.00" d=" M 192.00 140.00 C 234.66 140.02 277.32 139.98 319.98 140.02 C 319.99 142.68 320.00 145.34 320.00 148.00 C 277.34 147.98 234.68 148.02 192.02 147.99 C 192.01 145.32 191.99 142.66 192.00 140.00 Z" />
<path fill="#dcdcdb" opacity="1.00" d=" M 476.04 144.88 C 478.37 143.59 480.66 142.25 482.95 140.88 C 484.25 143.16 485.55 145.43 486.95 147.65 C 484.74 149.12 482.43 150.43 480.14 151.78 C 478.68 149.54 477.37 147.20 476.04 144.88 Z" />
<path fill="#dcdcdb" opacity="1.00" d=" M 451.94 147.81 C 453.25 145.48 454.61 143.18 455.95 140.87 C 458.24 142.22 460.54 143.55 462.86 144.85 C 461.53 147.18 460.20 149.50 458.77 151.76 C 456.50 150.42 454.22 149.12 451.94 147.81 Z" />
<path fill="#dcdcdb" opacity="1.00" d=" M 465.65 145.63 C 468.30 145.58 470.94 145.59 473.59 145.58 C 473.59 148.25 473.59 150.92 473.60 153.60 C 470.92 153.60 468.24 153.59 465.57 153.59 C 465.58 150.94 465.58 148.28 465.65 145.63 Z" />
<path fill="#dcdcdb" opacity="1.00" d=" M 56.66 182.52 C 58.66 180.75 61.34 180.05 63.96 180.02 C 69.43 179.91 74.91 180.02 80.38 180.05 C 80.39 213.35 80.39 246.66 80.38 279.96 C 75.66 280.02 70.94 280.00 66.22 280.00 C 63.05 247.50 59.81 215.01 56.66 182.52 Z" />
<path fill="#dcdcdb" opacity="1.00" d=" M 431.99 179.99 C 439.74 180.78 448.42 178.01 455.38 182.53 C 452.10 215.01 448.96 247.51 445.76 280.00 C 441.17 279.94 436.58 280.00 432.00 280.01 C 432.01 246.67 432.02 213.33 431.99 179.99 Z" />
<path fill="#dcdcdb" opacity="1.00" d=" M 67.02 288.01 C 71.47 288.06 75.93 287.99 80.39 287.99 C 80.40 293.32 80.36 298.65 80.38 303.99 C 76.45 303.95 72.52 304.00 68.59 304.01 C 68.06 298.67 67.54 293.34 67.02 288.01 Z" />
<path fill="#dcdcdb" opacity="1.00" d=" M 432.04 287.99 C 436.35 288.00 440.66 288.00 444.98 288.00 C 444.47 293.33 443.93 298.67 443.41 304.01 C 439.60 303.99 435.80 303.95 432.00 304.00 C 432.01 298.66 431.97 293.33 432.04 287.99 Z" />
<path fill="#dcdcdb" opacity="1.00" d=" M 69.38 312.01 C 73.05 311.99 76.72 312.00 80.39 312.00 C 80.38 342.98 80.39 373.97 80.38 404.95 C 80.31 409.77 80.69 414.62 80.03 419.41 C 76.32 383.63 72.98 347.80 69.38 312.01 Z" />
<path fill="#dcdcdb" opacity="1.00" d=" M 432.00 312.00 C 435.54 312.00 439.08 312.00 442.63 312.00 C 439.08 347.37 435.69 382.75 432.15 418.12 C 431.82 382.75 432.11 347.37 432.00 312.00 Z" />
<path fill="#dcdcdb" opacity="1.00" d=" M 474.82 346.33 C 476.66 344.51 478.50 342.67 480.36 340.87 C 483.23 343.18 485.43 347.87 489.63 347.51 C 492.72 346.11 494.63 342.98 497.21 340.85 C 499.05 342.72 500.92 344.57 502.78 346.43 C 500.57 348.91 497.57 350.83 496.06 353.85 C 495.53 358.19 500.58 360.19 502.71 363.32 C 500.71 365.12 498.75 366.95 496.79 368.79 C 494.50 366.50 492.24 364.18 489.85 362.00 C 489.14 362.00 487.74 361.99 487.03 361.99 C 484.56 364.12 482.30 366.48 480.00 368.79 C 478.14 366.94 476.28 365.08 474.41 363.24 C 476.65 360.53 480.32 358.59 481.21 355.02 C 480.78 351.28 476.86 349.25 474.82 346.33 Z" />
<path fill="#dcdcdb" opacity="1.00" d=" M 227.06 368.96 C 228.66 355.24 241.18 343.82 255.02 343.62 C 267.44 342.96 279.58 351.27 283.54 363.04 C 287.34 373.45 284.37 385.62 276.64 393.47 C 270.47 388.78 262.82 385.90 255.00 386.27 C 247.82 386.35 240.96 389.16 235.19 393.32 C 229.12 386.87 225.72 377.83 227.06 368.96 Z" />
<path fill="#dcdcdb" opacity="1.00" d=" M 385.58 358.02 C 389.00 354.86 392.46 351.72 395.87 348.54 C 400.01 358.65 404.26 368.71 408.38 378.82 C 402.92 383.55 397.66 388.50 392.19 393.20 C 389.98 391.17 387.77 389.14 385.57 387.11 C 385.62 377.42 385.59 367.72 385.58 358.02 Z" />
<path fill="#dcdcdb" opacity="1.00" d=" M 115.29 350.71 C 115.60 350.42 116.21 349.85 116.52 349.57 C 119.83 352.21 122.89 355.15 126.00 358.03 C 126.01 367.73 125.96 377.44 126.02 387.14 C 123.86 389.13 121.70 391.11 119.55 393.11 C 114.24 388.34 108.99 383.51 103.60 378.83 C 107.37 369.51 111.33 360.26 115.06 350.93 L 115.29 350.71 Z" />
<path fill="#dcdcdb" opacity="1.00" d=" M 8.00 469.87 C 8.87 469.26 9.70 468.61 10.62 468.09 C 79.08 467.89 147.54 468.06 216.00 468.00 C 218.66 470.66 221.33 473.32 223.99 475.99 C 245.33 476.01 266.67 476.01 288.00 476.00 C 290.67 473.33 293.33 470.66 296.01 468.00 C 364.48 468.05 432.95 467.92 501.42 468.06 C 502.33 468.61 503.17 469.27 504.04 469.90 C 503.57 473.29 505.25 477.64 502.27 480.18 C 500.48 481.80 498.86 484.44 496.09 484.00 C 378.38 484.00 260.68 483.99 142.98 484.00 C 99.78 483.91 56.57 484.15 13.37 483.88 C 11.64 481.91 9.38 480.32 8.10 478.02 C 7.86 475.31 8.01 472.58 8.00 469.87 Z" />
</g>
<g id="#fdfdfdff">
<path fill="#fdfdfd" opacity="1.00" d=" M 189.17 244.11 C 196.67 240.73 204.32 237.73 211.85 234.44 C 219.51 242.53 226.82 250.92 234.31 259.16 C 248.76 259.23 263.20 259.18 277.65 259.17 C 285.16 250.95 292.45 242.51 300.14 234.44 C 307.56 237.41 315.03 240.25 322.42 243.29 C 321.76 251.82 321.74 260.39 321.07 268.92 C 321.05 271.48 320.64 274.09 321.05 276.63 C 330.86 286.61 340.82 296.44 350.70 306.35 C 351.74 307.72 353.61 306.92 355.05 307.08 C 364.92 306.45 374.81 306.21 384.68 305.57 C 387.99 313.16 391.25 320.79 394.33 328.48 C 386.06 335.84 377.82 343.25 369.70 350.78 C 369.43 365.30 369.68 379.83 369.58 394.36 C 377.74 401.85 386.02 409.20 394.21 416.67 C 393.31 419.15 392.27 421.59 391.20 424.01 C 368.26 423.98 345.33 424.00 322.40 424.00 C 333.66 409.55 340.04 391.36 340.08 373.04 C 340.33 353.51 333.38 334.01 320.93 318.97 C 306.48 300.96 284.12 289.67 261.09 288.46 C 241.31 287.20 221.19 293.28 205.40 305.24 C 188.93 317.33 177.39 335.81 173.51 355.84 C 168.66 379.48 174.72 405.01 189.58 424.00 C 166.66 424.00 143.73 423.98 120.81 424.01 C 119.70 421.60 118.58 419.18 117.78 416.65 C 125.85 409.48 133.97 402.38 142.01 395.17 C 141.94 380.59 142.12 366.01 141.93 351.44 C 133.62 344.11 125.51 336.55 117.21 329.22 C 120.36 321.59 123.63 314.02 126.80 306.40 C 137.85 306.97 148.90 307.42 159.95 308.05 C 170.23 297.75 180.55 287.48 190.81 277.15 C 190.23 266.14 189.80 255.12 189.17 244.11 Z" />
</g>
</svg>
