<?xml version="1.0" encoding="UTF-8" ?>
<!DOCTYPE svg PUBLIC "-//W3C//DTD SVG 1.1//EN" "http://www.w3.org/Graphics/SVG/1.1/DTD/svg11.dtd">
<svg width="512pt" height="512pt" viewBox="0 0 512 512" version="1.1" xmlns="http://www.w3.org/2000/svg">
<g id="#908CFEff">
<path fill="#908CFE" opacity="0.75" d=" M 232.62 0.00 L 470.00 0.00 C 470.00 140.00 469.99 280.00 470.01 420.00 C 482.01 420.01 494.02 419.99 506.03 420.00 C 506.02 422.67 506.04 425.34 505.83 428.01 C 397.94 428.03 290.05 427.95 182.15 428.05 C 180.22 437.80 172.44 445.63 162.79 447.87 C 155.74 448.54 148.22 447.01 142.80 442.22 C 137.60 437.72 134.30 430.98 134.37 424.06 C 134.37 315.37 134.36 206.69 134.37 98.00 C 134.49 92.81 134.08 87.61 134.51 82.44 C 136.27 79.92 138.99 78.28 141.27 76.27 C 150.87 68.19 160.63 60.30 170.13 52.10 C 162.73 52.30 155.13 51.12 147.87 52.76 L 148.07 52.01 C 124.71 51.99 101.36 52.00 78.00 52.01 C 78.00 202.67 78.00 353.33 78.01 504.00 C 184.67 504.00 291.33 504.01 398.00 503.99 C 398.01 490.66 397.97 477.33 398.02 463.99 C 398.02 458.66 397.99 453.32 397.97 447.99 C 400.64 447.98 403.31 447.99 405.99 448.00 C 406.02 469.33 405.99 490.67 406.00 512.00 L 70.00 512.00 C 70.00 356.00 70.00 200.00 70.00 44.00 C 103.00 44.00 136.00 43.99 169.00 44.01 C 172.60 43.95 176.24 44.29 179.82 43.75 C 181.74 42.79 183.30 41.27 184.94 39.91 C 200.73 26.48 216.93 13.54 232.62 0.00 M 234.00 9.86 C 232.94 10.49 231.90 11.13 230.93 11.88 C 203.28 34.91 175.66 57.99 147.98 80.98 C 146.88 81.92 145.85 82.94 144.86 84.00 C 143.72 84.35 142.91 85.29 141.97 85.97 C 142.02 190.65 142.03 295.34 141.97 400.03 C 142.10 408.04 141.88 416.06 142.06 424.07 C 142.06 428.72 144.10 433.37 147.77 436.27 C 153.99 441.70 164.38 441.05 169.76 434.75 C 173.66 430.92 174.25 425.18 174.05 420.00 C 270.04 419.99 366.02 419.99 462.00 420.00 C 462.05 413.33 461.90 406.67 462.04 400.00 C 461.94 269.34 462.03 138.67 462.00 8.00 C 386.99 7.99 311.98 8.00 236.98 8.00 C 235.78 7.87 233.88 8.34 234.00 9.86 Z" />
<path fill="#908CFE" opacity="0.75" d=" M 190.01 60.00 C 200.68 60.01 211.35 59.97 222.02 60.01 C 222.04 64.01 222.00 68.00 221.99 71.99 C 219.33 72.00 216.67 72.00 214.01 72.02 C 214.00 70.68 213.99 69.34 213.99 68.00 C 208.67 67.99 203.35 67.98 198.04 68.02 C 198.01 69.34 197.99 70.67 197.97 71.99 C 195.32 72.02 192.67 72.03 190.01 72.03 C 190.00 68.02 190.00 64.01 190.01 60.00 Z" />
<path fill="#908CFE" opacity="0.75" d=" M 6.34 162.14 C 7.74 154.65 13.76 148.30 21.15 146.47 C 26.00 145.51 31.27 145.92 35.61 148.45 C 41.75 151.62 45.59 158.25 46.11 165.05 C 49.51 165.28 53.20 164.94 56.22 166.82 C 60.10 169.03 62.17 173.57 62.00 177.94 C 62.00 205.63 62.00 233.31 62.00 261.00 C 59.33 261.00 56.67 261.00 54.00 261.00 C 53.95 232.99 54.09 204.98 53.94 176.98 C 54.03 172.74 48.96 172.97 46.00 172.90 C 45.98 202.33 46.03 231.76 45.98 261.19 C 44.68 261.20 43.38 261.21 42.08 261.22 C 41.90 294.47 42.04 327.71 42.01 360.96 C 40.19 361.00 38.37 361.06 36.55 361.12 C 29.64 361.28 22.74 361.29 15.84 361.14 C 13.89 361.08 11.94 361.00 10.00 360.96 C 10.00 327.64 10.00 294.33 10.00 261.02 C 8.66 261.00 7.33 260.99 6.00 260.98 C 5.99 231.32 6.01 201.66 5.99 172.00 C 6.02 168.71 5.82 165.40 6.34 162.14 M 20.31 155.33 C 16.38 157.25 13.92 161.58 14.01 165.92 C 13.99 195.00 14.00 224.07 14.01 253.15 C 22.00 253.27 30.00 253.23 37.99 253.15 C 38.03 225.44 37.97 197.72 38.02 170.01 C 38.00 166.53 38.33 162.74 36.30 159.71 C 33.20 154.37 25.70 152.40 20.31 155.33 M 18.00 260.98 C 18.00 291.70 17.99 322.42 18.01 353.15 C 23.34 353.26 28.66 353.25 33.99 353.14 C 34.01 322.41 34.00 291.69 34.00 260.96 C 28.66 261.07 23.33 261.46 18.00 260.98 Z" />
</g>
<g id="#908CFEff">
<path fill="#ffffff" opacity="1.00" d=" M 230.93 11.88 C 231.90 11.13 232.94 10.49 234.00 9.86 C 233.99 34.57 233.99 59.29 234.00 84.00 C 204.29 83.99 174.57 84.00 144.86 84.00 C 145.85 82.94 146.88 81.92 147.98 80.98 C 175.66 57.99 203.28 34.91 230.93 11.88 M 190.01 60.00 C 190.00 64.01 190.00 68.02 190.01 72.03 C 192.67 72.03 195.32 72.02 197.97 71.99 C 197.99 70.67 198.01 69.34 198.04 68.02 C 203.35 67.98 208.67 67.99 213.99 68.00 C 213.99 69.34 214.00 70.68 214.01 72.02 C 216.67 72.00 219.33 72.00 221.99 71.99 C 222.00 68.00 222.04 64.01 222.02 60.01 C 211.35 59.97 200.68 60.01 190.01 60.00 Z" />
<path fill="#ffffff" opacity="1.00" d=" M 39.27 48.24 C 47.91 46.49 56.91 53.29 57.87 61.98 C 59.31 71.12 51.19 80.21 42.00 80.00 C 33.84 80.15 26.41 73.12 26.03 64.99 C 25.37 57.12 31.54 49.50 39.27 48.24 M 39.33 56.45 C 33.95 58.13 32.14 65.82 36.36 69.64 C 40.38 74.12 48.61 71.74 49.77 65.87 C 51.49 60.03 44.97 54.14 39.33 56.45 Z" />
<path fill="#ffffff" opacity="1.00" d=" M 15.84 361.14 C 22.74 361.29 29.64 361.28 36.55 361.12 C 36.46 368.75 37.50 376.34 37.89 383.96 C 38.02 385.33 37.51 386.65 37.12 387.95 C 34.69 395.28 32.40 402.66 29.93 409.98 C 27.31 410.00 24.69 410.00 22.06 409.98 C 19.47 402.17 16.93 394.34 14.44 386.50 C 13.78 384.49 14.26 382.36 14.34 380.31 C 14.90 373.92 15.13 367.51 15.84 361.14 Z" />
<path fill="#ffffff" opacity="1.00" d=" M 182.15 428.05 C 290.05 427.95 397.94 428.03 505.83 428.01 C 503.91 438.85 494.21 447.77 483.08 447.96 C 457.38 448.05 431.68 447.96 405.99 448.00 C 403.31 447.99 400.64 447.98 397.97 447.99 C 319.58 447.94 241.18 448.16 162.79 447.87 C 172.44 445.63 180.22 437.80 182.15 428.05 Z" />
</g>
<g id="#dcdcdbff">
<path fill="#dcdcdb" opacity="0.10" d=" M 147.87 52.76 C 155.13 51.12 162.73 52.30 170.13 52.10 C 160.63 60.30 150.87 68.19 141.27 76.27 C 138.99 78.28 136.27 79.92 134.51 82.44 C 134.08 87.61 134.49 92.81 134.37 98.00 C 134.36 206.69 134.37 315.37 134.37 424.06 C 134.30 430.98 137.60 437.72 142.80 442.22 C 148.22 447.01 155.74 448.54 162.79 447.87 C 241.18 448.16 319.58 447.94 397.97 447.99 C 397.99 453.32 398.02 458.66 398.02 463.99 C 303.35 464.00 208.67 463.99 114.00 464.00 C 114.00 336.01 114.02 208.02 113.99 80.03 C 125.25 70.90 136.73 62.04 147.87 52.76 Z" />
<path fill="#dcdcdb" opacity="0.10" d=" M 329.16 68.03 C 352.22 67.98 375.29 68.01 398.36 68.01 C 398.40 70.67 398.40 73.34 398.35 76.00 C 375.29 75.95 352.23 76.07 329.16 75.94 C 329.20 73.31 329.19 70.67 329.16 68.03 Z" />
<path fill="#dcdcdb" opacity="0.10" d=" M 329.16 84.03 C 352.22 83.96 375.29 84.03 398.36 84.00 C 398.40 86.66 398.40 89.33 398.35 91.99 C 375.29 91.98 352.22 92.03 329.16 91.97 C 329.19 89.32 329.19 86.68 329.16 84.03 Z" />
<path fill="#dcdcdb" opacity="0.10" d=" M 214.00 124.00 C 275.33 124.01 336.67 124.00 398.00 124.00 C 397.98 126.66 397.98 129.32 397.99 131.99 C 336.66 132.00 275.34 132.01 214.02 131.98 C 214.01 129.32 214.00 126.66 214.00 124.00 Z" />
<path fill="#dcdcdb" opacity="0.10" d=" M 214.00 140.00 C 275.33 140.01 336.67 140.01 398.00 140.00 C 398.00 142.66 398.00 145.33 397.99 147.99 C 336.66 148.00 275.33 147.99 214.00 148.00 C 214.00 145.33 214.00 142.67 214.00 140.00 Z" />
<path fill="#dcdcdb" opacity="0.10" d=" M 214.00 156.00 C 275.33 156.00 336.67 156.01 398.00 156.00 C 398.00 158.66 398.00 161.33 398.00 164.00 C 336.67 163.99 275.33 163.99 214.00 164.00 C 214.00 161.33 214.00 158.67 214.00 156.00 Z" />
<path fill="#dcdcdb" opacity="0.10" d=" M 214.01 172.01 C 275.34 172.00 336.67 172.01 398.00 172.00 C 398.00 174.66 398.00 177.33 398.00 180.00 C 336.67 179.99 275.33 179.99 214.00 180.00 C 214.00 177.33 214.00 174.67 214.01 172.01 Z" />
<path fill="#dcdcdb" opacity="0.10" d=" M 214.01 188.01 C 275.34 188.00 336.66 187.99 397.99 188.02 C 397.98 190.68 398.00 193.34 398.00 196.00 C 336.67 195.99 275.33 196.00 214.00 196.00 C 214.01 193.34 214.02 190.67 214.01 188.01 Z" />
<path fill="#dcdcdb" opacity="0.10" d=" M 214.00 204.00 C 275.33 204.01 336.67 204.00 398.00 204.00 C 397.98 206.66 397.98 209.32 397.99 211.99 C 336.66 212.00 275.34 212.01 214.02 211.98 C 214.01 209.32 214.00 206.66 214.00 204.00 Z" />
<path fill="#dcdcdb" opacity="0.10" d=" M 214.00 220.00 C 275.33 220.01 336.67 220.01 398.00 220.00 C 398.00 222.66 398.00 225.33 397.99 227.99 C 336.66 228.00 275.33 227.99 214.00 228.00 C 214.00 225.33 214.00 222.66 214.00 220.00 Z" />
<path fill="#dcdcdb" opacity="0.10" d=" M 214.00 236.00 C 275.33 236.01 336.67 236.01 398.00 236.00 C 398.00 238.66 398.00 241.33 398.00 244.00 C 336.67 243.99 275.33 243.99 214.00 244.00 C 214.00 241.33 214.00 238.66 214.00 236.00 Z" />
<path fill="#dcdcdb" opacity="0.10" d=" M 214.01 252.01 C 275.34 251.99 336.67 252.01 398.00 252.00 C 398.00 254.66 398.00 257.33 398.00 260.00 C 336.67 259.99 275.33 259.99 214.00 260.00 C 214.00 257.33 214.00 254.67 214.01 252.01 Z" />
<path fill="#dcdcdb" opacity="0.10" d=" M 214.01 268.01 C 275.33 268.00 336.66 267.99 397.98 268.02 C 397.98 270.68 398.00 273.34 398.00 276.00 C 336.67 275.99 275.33 276.00 214.00 276.00 C 214.01 273.34 214.02 270.67 214.01 268.01 Z" />
<path fill="#dcdcdb" opacity="0.10" d=" M 214.00 284.00 C 275.33 284.01 336.67 284.00 398.00 284.00 C 397.98 286.66 397.98 289.32 397.99 291.99 C 336.66 292.00 275.34 292.01 214.01 291.98 C 214.01 289.32 214.00 286.66 214.00 284.00 Z" />
<path fill="#dcdcdb" opacity="0.10" d=" M 214.00 300.00 C 262.00 300.01 310.00 300.01 358.00 300.00 C 358.00 302.66 358.00 305.33 357.99 307.99 C 310.00 308.01 262.00 307.99 214.00 308.00 C 214.00 305.33 214.00 302.66 214.00 300.00 Z" />
<path fill="#dcdcdb" opacity="0.10" d=" M 214.00 344.00 C 236.78 344.02 259.57 343.99 282.36 344.01 C 282.40 346.67 282.40 349.34 282.35 352.00 C 259.57 351.98 236.79 352.02 214.01 351.98 C 214.01 349.32 214.00 346.66 214.00 344.00 Z" />
<path fill="#dcdcdb" opacity="0.10" d=" M 214.00 360.00 C 236.78 360.01 259.57 360.00 282.36 360.00 C 282.40 362.66 282.40 365.33 282.35 368.00 C 259.57 368.00 236.78 367.99 214.00 368.00 C 214.00 365.33 214.00 362.66 214.00 360.00 Z" />
<path fill="#dcdcdb" opacity="0.10" d=" M 141.97 400.03 C 248.66 399.97 355.35 400.02 462.04 400.00 C 461.90 406.67 462.05 413.33 462.00 420.00 C 366.02 419.99 270.04 419.99 174.05 420.00 C 174.25 425.18 173.66 430.92 169.76 434.75 C 164.38 441.05 153.99 441.70 147.77 436.27 C 144.10 433.37 142.06 428.72 142.06 424.07 C 141.88 416.06 142.10 408.04 141.97 400.03 Z" />
<path fill="#dcdcdb" opacity="0.10" d=" M 56.88 433.47 C 59.13 432.28 61.34 431.03 63.64 429.95 C 64.85 432.26 66.12 434.54 67.38 436.84 C 65.06 438.17 62.72 439.48 60.26 440.53 C 59.07 438.21 57.55 436.02 56.88 433.47 Z" />
<path fill="#dcdcdb" opacity="0.10" d=" M 84.40 430.00 C 86.78 431.15 89.27 432.23 91.25 434.02 C 89.95 436.17 89.24 439.17 87.07 440.51 C 84.91 439.35 82.82 438.06 80.69 436.86 C 81.91 434.56 83.19 432.30 84.40 430.00 Z" />
<path fill="#dcdcdb" opacity="0.10" d=" M 51.51 438.96 C 54.10 439.80 56.36 441.37 58.66 442.78 C 57.33 445.00 56.05 447.25 54.83 449.53 C 52.48 448.31 50.21 446.95 47.90 445.67 C 49.07 443.41 50.32 441.20 51.51 438.96 Z" />
<path fill="#dcdcdb" opacity="0.10" d=" M 89.57 442.38 C 91.87 441.15 94.08 439.71 96.57 438.91 C 97.75 441.16 99.00 443.38 100.11 445.68 C 97.83 446.98 95.56 448.29 93.20 449.46 C 91.89 447.15 90.58 444.84 89.57 442.38 Z" />
<path fill="#dcdcdb" opacity="0.10" d=" M 46.00 452.00 C 48.66 452.00 51.32 452.01 53.98 452.02 C 53.99 454.68 54.00 457.34 54.00 460.00 C 51.34 460.00 48.68 459.98 46.02 459.98 C 46.01 457.32 46.00 454.66 46.00 452.00 Z" />
<path fill="#dcdcdb" opacity="0.10" d=" M 94.01 452.01 C 96.67 452.00 99.34 451.99 102.00 452.00 C 102.00 454.66 102.00 457.33 102.00 460.00 C 99.33 460.00 96.67 460.00 94.00 460.00 C 94.00 457.33 94.00 454.67 94.01 452.01 Z" />
<path fill="#dcdcdb" opacity="0.10" d=" M 47.93 466.40 C 50.18 465.21 52.41 463.96 54.69 462.83 C 55.73 465.15 58.20 467.29 58.11 469.86 C 56.13 471.12 54.07 472.28 51.96 473.32 C 50.10 471.37 48.98 468.85 47.93 466.40 Z" />
<path fill="#dcdcdb" opacity="0.10" d=" M 93.31 462.83 C 95.59 463.96 97.82 465.21 100.08 466.40 C 99.04 468.80 98.02 471.41 96.08 473.22 C 93.81 472.22 91.70 470.91 89.50 469.77 C 90.61 467.37 91.94 465.08 93.31 462.83 Z" />
<path fill="#dcdcdb" opacity="0.10" d=" M 56.87 478.62 C 57.96 476.24 58.89 473.45 60.96 471.78 C 63.09 472.99 65.89 473.84 67.19 475.95 C 66.13 478.11 64.82 480.14 63.64 482.25 C 61.34 481.12 59.12 479.84 56.87 478.62 Z" />
<path fill="#dcdcdb" opacity="0.10" d=" M 80.67 475.36 C 82.80 474.13 84.87 472.79 87.08 471.70 C 89.19 473.39 90.22 476.14 91.13 478.63 C 88.89 479.82 86.69 481.10 84.38 482.15 C 83.13 479.88 81.83 477.66 80.67 475.36 Z" />
</g>
<g id="#54D8A3ff">
<path fill="#54D8A3" opacity="1.00" d=" M 425.27 72.01 C 427.06 70.15 428.73 68.13 430.88 66.66 C 434.05 68.80 436.24 74.27 440.78 72.90 C 443.38 71.10 445.31 68.50 447.92 66.71 C 449.95 68.30 451.67 70.24 453.49 72.05 C 451.31 74.73 447.85 76.64 446.77 80.03 C 446.97 84.03 451.57 85.61 453.26 88.90 C 451.54 90.93 449.54 92.71 447.37 94.23 C 444.47 91.95 442.35 87.08 438.10 87.72 C 435.14 89.25 433.40 92.40 430.57 94.17 C 428.87 92.30 427.09 90.51 425.32 88.72 C 427.57 85.66 432.42 83.56 431.95 79.21 C 430.09 76.50 427.47 74.43 425.27 72.01 Z" />
<path fill="#54D8A3" opacity="1.00" d=" M 385.00 333.07 C 390.28 330.56 397.42 332.48 400.24 337.74 C 402.92 342.01 401.76 347.25 402.00 352.00 C 399.33 352.00 396.67 351.99 394.01 351.98 C 393.90 348.75 394.33 345.46 393.69 342.28 C 392.47 338.89 386.48 339.34 386.12 343.06 C 385.72 352.04 386.31 361.05 385.83 370.02 C 384.91 377.03 377.01 381.78 370.37 379.44 C 365.74 378.20 362.38 373.81 362.06 369.08 C 361.84 365.75 362.22 362.40 361.89 359.07 C 361.70 357.20 359.85 355.91 358.04 356.04 C 354.03 355.90 350.01 356.02 346.00 356.00 C 346.00 353.33 346.00 350.66 346.00 348.00 C 352.99 348.55 361.71 345.96 367.01 351.96 C 371.36 356.58 369.55 363.25 370.11 368.93 C 370.53 373.01 377.45 373.00 377.88 368.92 C 378.24 360.27 377.80 351.58 378.06 342.92 C 378.37 338.72 381.01 334.63 385.00 333.07 Z" />
<path fill="#54D8A3" opacity="1.00" d=" M 330.00 348.00 C 332.66 348.00 335.32 348.01 337.98 348.01 C 337.99 350.67 338.00 353.34 338.00 356.00 C 335.34 356.00 332.67 355.99 330.01 355.98 C 330.01 353.32 330.00 350.66 330.00 348.00 Z" />
</g>
<g id="#fb5a5aff">
<path fill="#2B2B81" opacity="1.00" d=" M 456.39 458.58 C 464.67 455.97 474.19 461.65 475.96 470.13 C 478.53 478.63 472.67 488.34 463.98 489.99 C 455.02 492.26 445.33 485.11 444.51 475.99 C 443.52 468.27 448.92 460.55 456.39 458.58 M 456.46 467.50 C 451.43 470.13 451.09 477.99 455.96 480.97 C 460.97 484.88 468.90 480.18 468.38 474.00 C 468.25 468.33 461.34 464.33 456.46 467.50 Z" />
</g>
</svg>
