<?xml version="1.0" encoding="UTF-8" ?>
<!DOCTYPE svg PUBLIC "-//W3C//DTD SVG 1.1//EN" "http://www.w3.org/Graphics/SVG/1.1/DTD/svg11.dtd">
<svg width="512pt" height="512pt" viewBox="0 0 512 512" version="1.1" xmlns="http://www.w3.org/2000/svg">
<g id="#F2EFF6ff">
<path fill="#F2EFF6" opacity="1.00" d=" M 278.80 59.95 C 278.75 57.30 278.75 54.64 278.78 51.99 C 281.43 51.99 284.07 51.99 286.72 52.05 C 286.68 54.66 286.68 57.28 286.71 59.90 C 284.07 59.92 281.43 59.93 278.80 59.95 Z" />
<path fill="#F2EFF6" opacity="1.00" d=" M 265.51 57.65 C 267.80 56.35 270.05 54.95 272.46 53.89 C 273.67 56.15 274.93 58.38 276.17 60.61 C 273.92 61.94 271.66 63.25 269.41 64.57 C 268.06 62.29 266.75 59.99 265.51 57.65 Z" />
<path fill="#F2EFF6" opacity="1.00" d=" M 293.13 53.79 C 295.43 55.05 297.67 56.41 299.97 57.67 C 298.72 60.00 297.42 62.30 295.99 64.52 C 293.78 63.20 291.55 61.92 289.27 60.74 C 290.51 58.40 291.80 56.09 293.13 53.79 Z" />
<path fill="#F2EFF6" opacity="1.00" d=" M 256.88 69.53 C 257.95 67.09 259.34 64.83 260.67 62.54 C 262.99 63.80 265.29 65.12 267.56 66.47 C 266.25 68.72 264.96 70.97 263.62 73.19 C 261.37 71.97 259.15 70.72 256.88 69.53 Z" />
<path fill="#F2EFF6" opacity="1.00" d=" M 297.97 66.36 C 300.24 65.14 302.45 63.83 304.61 62.43 C 306.09 64.66 307.43 66.96 308.74 69.28 C 306.47 70.61 304.21 71.95 301.91 73.23 C 300.54 70.97 299.22 68.68 297.97 66.36 Z" />
<path fill="#F2EFF6" opacity="1.00" d=" M 255.11 75.69 C 257.72 75.75 260.33 75.77 262.94 75.79 C 262.93 78.43 262.92 81.08 262.89 83.72 C 260.27 83.68 257.65 83.68 255.03 83.72 C 254.98 81.04 254.99 78.36 255.11 75.69 Z" />
<path fill="#F2EFF6" opacity="1.00" d=" M 302.55 75.81 C 305.18 75.75 307.81 75.75 310.45 75.83 C 310.46 78.44 310.45 81.06 310.46 83.68 C 307.82 83.68 305.17 83.69 302.52 83.69 C 302.52 81.06 302.52 78.44 302.55 75.81 Z" />
<path fill="#F2EFF6" opacity="1.00" d=" M 147.25 83.04 C 152.93 82.98 158.62 83.00 164.30 83.00 C 164.70 88.16 163.04 94.05 166.40 98.52 C 169.60 103.00 176.40 104.18 180.82 100.82 C 184.15 98.08 186.19 94.16 188.86 90.83 C 193.41 94.08 197.90 97.42 202.55 100.52 C 200.53 104.38 197.05 107.34 195.52 111.46 C 193.10 117.97 199.20 125.65 206.03 125.06 C 209.96 124.45 213.57 122.64 217.47 121.88 C 219.11 127.25 220.80 132.61 222.49 137.97 C 217.95 139.69 212.46 140.04 209.11 143.95 C 205.94 147.33 205.76 152.67 208.05 156.57 C 208.18 156.87 208.45 157.48 208.59 157.79 C 198.97 158.25 189.36 158.80 179.74 158.92 C 179.74 156.30 179.75 153.67 179.78 151.05 C 176.98 151.02 174.19 151.01 171.40 151.01 C 171.15 142.83 164.43 135.23 156.06 135.04 C 147.22 134.42 139.56 142.30 139.37 150.97 C 127.72 151.04 116.07 150.97 104.42 151.01 C 104.32 146.73 101.99 142.55 98.02 140.75 C 94.84 139.42 91.44 138.71 88.22 137.48 C 90.01 132.31 91.73 127.10 93.30 121.85 C 98.35 122.77 103.25 126.12 108.51 124.39 C 113.94 123.03 117.40 116.75 115.64 111.44 C 114.03 107.38 110.75 104.32 108.53 100.62 C 113.22 97.46 117.65 93.92 122.44 90.90 C 124.95 94.20 126.97 97.99 130.17 100.69 C 134.74 104.10 142.10 103.06 145.28 98.23 C 148.44 93.80 146.93 88.08 147.25 83.04 Z" />
<path fill="#F2EFF6" opacity="1.00" d=" M 256.79 90.17 C 259.06 88.82 261.38 87.53 263.71 86.30 C 264.90 88.57 266.18 90.80 267.51 92.99 C 265.29 94.47 262.96 95.79 260.56 96.96 C 259.33 94.68 258.04 92.43 256.79 90.17 Z" />
<path fill="#F2EFF6" opacity="1.00" d=" M 297.93 93.09 C 299.25 90.80 300.58 88.51 301.89 86.21 C 304.17 87.55 306.44 88.90 308.73 90.21 C 307.41 92.50 306.09 94.80 304.69 97.04 C 302.47 95.65 300.22 94.34 297.93 93.09 Z" />
<path fill="#F2EFF6" opacity="1.00" d=" M 269.38 94.96 C 271.70 96.22 273.99 97.53 276.25 98.90 C 274.97 101.21 273.63 103.48 272.29 105.75 C 270.02 104.42 267.75 103.09 265.47 101.80 C 266.79 99.53 268.12 97.27 269.38 94.96 Z" />
<path fill="#F2EFF6" opacity="1.00" d=" M 289.21 98.91 C 291.51 97.60 293.79 96.27 296.08 94.94 C 297.34 97.23 298.65 99.49 300.01 101.72 C 297.77 103.11 295.49 104.42 293.21 105.74 C 291.89 103.46 290.54 101.19 289.21 98.91 Z" />
<path fill="#F2EFF6" opacity="1.00" d=" M 278.83 99.54 C 281.44 99.52 284.06 99.53 286.68 99.53 C 286.69 102.17 286.68 104.82 286.68 107.47 C 284.05 107.46 281.43 107.46 278.81 107.43 C 278.75 104.80 278.74 102.17 278.83 99.54 Z" />
<path fill="#F2EFF6" opacity="1.00" d=" M 136.28 182.66 C 138.84 180.00 141.47 177.41 144.07 174.79 C 153.34 174.75 162.60 174.79 171.87 174.77 C 171.75 210.69 171.79 246.61 171.85 282.53 C 162.65 282.56 153.44 282.47 144.24 282.58 C 141.47 279.71 138.83 276.72 136.12 273.79 C 128.20 273.84 120.27 273.80 112.35 273.79 C 109.73 271.13 107.09 268.49 104.49 265.82 C 104.55 240.85 104.35 215.87 104.58 190.91 C 107.02 187.96 109.68 184.88 112.87 182.81 C 120.67 182.51 128.48 182.83 136.28 182.66 Z" />
<path fill="#F2EFF6" opacity="1.00" d=" M 280.76 378.01 C 281.90 377.31 283.05 376.62 284.20 375.92 C 303.41 384.19 322.89 391.87 342.02 400.32 C 332.60 405.67 323.36 411.33 314.01 416.81 C 319.70 422.35 325.32 427.96 330.99 433.51 C 327.21 437.22 323.71 441.20 319.97 444.93 C 314.42 439.46 309.01 433.86 303.42 428.45 C 303.23 428.42 302.84 428.36 302.65 428.33 C 297.22 437.57 291.74 446.77 286.29 456.00 C 278.36 436.62 270.28 417.29 262.45 397.87 L 262.75 396.95 C 263.08 396.37 263.73 395.21 264.05 394.63 C 269.39 399.88 274.65 405.22 279.98 410.48 C 285.54 404.96 291.06 399.40 296.61 393.87 C 291.32 388.59 286.05 383.29 280.76 378.01 Z" />
</g>
<g id="#C3B5D5ff">
<path fill="#C3B5D5" opacity="1.00" d=" M 384.59 68.66 C 393.07 65.65 403.22 71.18 405.09 80.01 C 407.35 88.35 401.34 97.58 392.92 99.18 C 383.70 101.50 373.69 93.56 373.96 84.05 C 373.47 77.26 378.24 70.80 384.59 68.66 M 386.33 76.50 C 381.03 78.72 380.17 86.77 384.94 90.02 C 389.38 93.69 396.82 90.59 397.51 84.93 C 398.74 78.96 391.74 73.64 386.33 76.50 Z" />
<path fill="#C3B5D5" opacity="1.00" d=" M 339.67 122.78 C 361.38 110.98 386.89 106.80 411.30 110.28 C 404.62 113.87 397.70 116.97 390.70 119.85 C 357.44 133.30 322.34 141.57 287.11 147.89 C 305.08 140.51 322.40 131.65 339.67 122.78 Z" />
<path fill="#C3B5D5" opacity="1.00" d=" M 342.01 144.06 C 370.04 136.58 398.05 127.56 423.19 112.81 C 435.16 116.04 446.64 121.08 457.02 127.87 C 456.97 194.81 457.00 261.75 457.00 328.68 C 452.30 331.65 447.41 334.34 442.27 336.47 L 441.40 336.86 C 440.81 310.63 441.45 284.37 441.08 258.14 C 438.47 257.84 435.84 257.93 433.22 257.97 C 433.33 285.08 433.14 312.18 433.32 339.28 C 432.40 339.82 431.49 340.37 430.59 340.92 L 430.05 341.14 C 426.08 342.65 421.94 343.72 417.74 344.39 C 403.05 336.74 387.70 330.38 371.96 325.24 C 338.77 314.31 304.46 307.09 269.97 301.73 L 269.72 301.65 C 262.05 299.43 254.66 296.37 247.01 294.10 C 225.27 287.18 202.63 282.68 179.74 282.74 C 179.74 270.48 179.72 258.22 179.75 245.96 C 184.78 246.08 189.61 247.55 194.51 248.57 C 256.86 262.41 319.25 276.07 381.58 289.99 C 382.03 297.37 387.60 304.30 395.10 305.29 C 403.89 306.98 412.93 299.83 413.40 290.92 C 414.21 283.29 408.68 276.28 401.54 274.14 C 401.55 263.45 401.62 252.76 401.50 242.06 C 396.84 242.12 392.19 242.17 387.54 242.08 C 400.34 228.72 413.83 216.02 426.60 202.62 C 418.27 202.34 409.92 202.68 401.59 202.45 C 401.53 194.47 401.54 186.49 401.58 178.50 L 401.59 178.23 C 410.88 176.07 416.36 164.67 411.93 156.14 C 408.35 148.09 397.63 144.52 390.01 149.01 C 384.98 151.64 382.04 157.07 381.60 162.62 C 316.44 177.03 251.29 191.44 186.13 205.86 C 184.03 206.34 181.89 206.49 179.75 206.58 C 179.74 195.78 179.72 184.98 179.75 174.18 C 197.37 174.13 214.92 171.72 231.95 167.24 C 238.94 165.50 245.78 163.23 252.74 161.36 L 252.96 161.28 C 282.90 157.02 312.75 151.80 342.01 144.06 M 433.23 242.15 C 433.24 244.75 433.24 247.35 433.23 249.96 C 435.84 250.04 438.48 250.19 441.10 249.93 C 441.30 247.37 441.18 244.80 441.22 242.24 C 438.56 242.12 435.89 242.10 433.23 242.15 Z" />
<path fill="#C3B5D5" opacity="1.00" d=" M 464.96 133.71 C 496.61 158.10 513.63 199.30 510.09 238.92 C 507.78 271.66 490.67 302.72 464.95 322.95 C 465.02 302.53 464.76 282.11 465.08 261.69 C 472.86 260.50 480.06 256.00 484.31 249.33 C 490.63 239.69 490.08 226.07 482.85 217.05 C 478.58 211.36 471.94 207.94 465.04 206.64 C 464.82 182.33 464.98 158.02 464.96 133.71 Z" />
<path fill="#C3B5D5" opacity="1.00" d=" M 394.45 155.64 C 398.42 153.85 403.51 155.91 404.99 160.02 C 406.78 164.20 404.06 169.40 399.71 170.53 C 395.65 171.81 390.97 169.08 389.96 164.98 C 388.89 161.31 390.95 157.13 394.45 155.64 Z" />
<path fill="#C3B5D5" opacity="1.00" d=" M 189.96 213.12 C 254.39 198.77 318.84 184.49 383.27 170.14 C 385.70 173.93 389.18 177.06 393.59 178.29 L 393.59 178.52 C 393.70 189.15 393.61 199.79 393.65 210.42 C 398.39 210.44 403.13 210.43 407.86 210.37 C 394.85 223.68 381.45 236.61 368.51 249.98 C 376.89 250.16 385.28 249.90 393.67 250.12 C 393.63 258.13 393.65 266.14 393.62 274.15 C 389.24 275.57 385.69 278.61 383.21 282.45 C 317.87 267.79 252.47 253.35 187.12 238.73 C 184.70 238.19 182.21 238.14 179.75 238.09 C 179.71 230.27 179.80 222.44 179.68 214.62 C 183.15 214.46 186.59 213.96 189.96 213.12 Z" />
<path fill="#C3B5D5" opacity="1.00" d=" M 464.97 214.69 C 469.84 215.87 474.40 218.60 477.25 222.79 C 482.16 229.76 481.91 239.92 476.54 246.57 C 473.71 250.28 469.45 252.62 464.96 253.70 C 464.93 240.69 464.93 227.69 464.97 214.69 Z" />
<path fill="#C3B5D5" opacity="1.00" d=" M 394.36 282.41 C 399.80 279.65 406.66 285.01 405.43 290.94 C 404.73 296.58 397.37 299.61 392.93 296.03 C 388.04 292.81 388.95 284.58 394.36 282.41 Z" />
<path fill="#C3B5D5" opacity="1.00" d=" M 300.83 315.16 C 336.19 322.22 371.55 331.19 404.27 346.65 C 382.42 348.30 360.06 344.38 340.44 334.51 C 327.33 327.86 314.23 321.21 300.83 315.16 Z" />
<path fill="#C3B5D5" opacity="1.00" d=" M 140.15 333.23 C 146.76 333.21 153.37 333.24 159.99 333.26 C 159.93 335.19 159.95 337.15 159.57 339.07 C 157.19 350.72 154.91 362.40 152.53 374.06 C 151.71 377.58 152.03 381.20 151.95 384.78 C 147.98 384.70 144.02 384.74 140.06 384.74 C 140.24 367.57 140.04 350.40 140.15 333.23 Z" />
</g>
<g id="#663399ff">
<path fill="#663399" opacity="1.00" d=" M 432.03 97.97 C 433.88 96.91 435.65 95.27 437.94 95.53 C 446.94 95.62 455.95 95.46 464.95 95.60 C 464.93 108.30 464.93 121.00 464.96 133.71 C 464.98 158.02 464.82 182.33 465.04 206.64 C 471.94 207.94 478.58 211.36 482.85 217.05 C 490.08 226.07 490.63 239.69 484.31 249.33 C 480.06 256.00 472.86 260.50 465.08 261.69 C 464.76 282.11 465.02 302.53 464.95 322.95 C 464.94 336.94 464.94 350.93 464.94 364.91 C 455.95 364.92 446.95 364.94 437.95 364.93 C 436.32 365.10 434.91 364.30 433.59 363.48 C 423.99 357.58 414.50 351.43 404.27 346.65 C 371.55 331.19 336.19 322.22 300.83 315.16 C 260.95 307.35 220.42 302.29 179.75 301.57 C 179.74 304.22 179.72 306.86 179.68 309.51 C 174.42 309.44 169.16 309.45 163.90 309.51 C 163.88 317.41 163.90 325.31 163.89 333.21 C 162.59 333.23 161.29 333.25 159.99 333.26 C 153.37 333.24 146.76 333.21 140.15 333.23 C 140.04 350.40 140.24 367.57 140.06 384.74 C 139.96 394.77 139.98 404.80 140.04 414.84 C 145.31 420.21 151.02 425.25 155.88 430.96 C 156.12 440.62 155.89 450.31 155.98 459.98 C 140.93 459.99 125.88 459.97 110.84 459.99 C 104.73 453.97 98.75 447.83 92.60 441.84 C 92.55 415.91 92.62 389.98 92.57 364.05 C 92.77 362.66 91.40 362.03 90.54 361.25 C 84.61 356.55 78.71 351.83 72.80 347.11 C 72.68 342.05 72.81 336.99 72.78 331.93 C 72.88 329.54 71.56 327.47 70.59 325.39 C 67.87 320.13 65.59 314.64 62.71 309.46 C 55.49 309.47 48.27 309.50 41.06 309.45 C 41.13 304.19 41.09 298.92 41.09 293.66 C 32.71 293.51 24.33 293.80 15.95 293.53 C 8.12 293.00 1.48 285.95 1.52 278.08 C 1.61 264.05 1.20 250.02 1.44 235.99 C 0.92 228.97 1.84 221.94 1.24 214.92 C 1.71 203.93 1.33 192.93 1.55 181.94 C 1.74 174.66 7.67 168.02 14.90 167.11 C 23.62 166.69 32.35 167.12 41.08 166.99 C 41.10 161.67 41.11 156.35 41.07 151.03 C 62.19 150.99 83.30 151.03 104.42 151.01 C 116.07 150.97 127.72 151.04 139.37 150.97 C 150.04 151.07 160.72 150.93 171.40 151.01 C 174.19 151.01 176.98 151.02 179.78 151.05 C 179.75 153.67 179.74 156.30 179.74 158.92 C 189.36 158.80 198.97 158.25 208.59 157.79 C 208.45 157.48 208.18 156.87 208.05 156.57 C 209.73 157.96 211.90 157.44 213.89 157.32 C 238.43 155.37 262.89 152.27 287.11 147.89 C 322.34 141.57 357.44 133.30 390.70 119.85 C 397.70 116.97 404.62 113.87 411.30 110.28 C 418.39 106.50 425.18 102.18 432.03 97.97 M 437.29 104.18 C 432.56 107.01 427.88 109.92 423.19 112.81 C 398.05 127.56 370.04 136.58 342.01 144.06 C 312.75 151.80 282.90 157.02 252.96 161.28 L 252.74 161.36 C 228.49 164.09 204.17 166.61 179.74 166.84 C 179.74 169.29 179.75 171.73 179.75 174.18 C 179.72 184.98 179.74 195.78 179.75 206.58 C 181.89 206.49 184.03 206.34 186.13 205.86 C 251.29 191.44 316.44 177.03 381.60 162.62 C 382.04 157.07 384.98 151.64 390.01 149.01 C 397.63 144.52 408.35 148.09 411.93 156.14 C 416.36 164.67 410.88 176.07 401.59 178.23 L 401.58 178.50 C 398.92 178.71 396.25 178.70 393.59 178.52 L 393.59 178.29 C 389.18 177.06 385.70 173.93 383.27 170.14 C 318.84 184.49 254.39 198.77 189.96 213.12 C 186.59 213.96 183.15 214.46 179.68 214.62 C 179.80 222.44 179.71 230.27 179.75 238.09 C 182.21 238.14 184.70 238.19 187.12 238.73 C 252.47 253.35 317.87 267.79 383.21 282.45 C 385.69 278.61 389.24 275.57 393.62 274.15 C 396.25 273.77 398.91 273.74 401.54 274.14 C 408.68 276.28 414.21 283.29 413.40 290.92 C 412.93 299.83 403.89 306.98 395.10 305.29 C 387.60 304.30 382.03 297.37 381.58 289.99 C 319.25 276.07 256.86 262.41 194.51 248.57 C 189.61 247.55 184.78 246.08 179.75 245.96 C 179.72 258.22 179.74 270.48 179.74 282.74 C 179.73 286.35 179.74 289.97 179.74 293.59 C 209.88 294.11 239.95 297.25 269.72 301.65 L 269.97 301.73 C 304.46 307.09 338.77 314.31 371.96 325.24 C 387.70 330.38 403.05 336.74 417.74 344.39 C 422.89 347.53 428.02 350.71 433.24 353.73 C 433.26 349.28 433.23 344.84 433.27 340.40 C 432.60 340.53 431.26 340.79 430.59 340.92 C 431.49 340.37 432.40 339.82 433.32 339.28 C 433.14 312.18 433.33 285.08 433.22 257.97 C 435.84 257.93 438.47 257.84 441.08 258.14 C 441.45 284.37 440.81 310.63 441.40 336.86 L 442.27 336.47 C 441.89 336.69 441.14 337.11 440.76 337.32 C 441.58 343.83 441.10 350.42 441.14 356.97 C 446.41 357.04 451.68 356.98 456.96 356.94 C 457.11 347.52 456.90 338.10 457.00 328.68 C 457.00 261.75 456.97 194.81 457.02 127.87 C 456.97 119.75 456.97 111.62 457.02 103.50 C 452.00 103.48 446.97 103.54 441.96 103.45 C 440.39 103.54 438.65 103.25 437.29 104.18 M 394.45 155.64 C 390.95 157.13 388.89 161.31 389.96 164.98 C 390.97 169.08 395.65 171.81 399.71 170.53 C 404.06 169.40 406.78 164.20 404.99 160.02 C 403.51 155.91 398.42 153.85 394.45 155.64 M 49.00 158.94 C 49.07 206.49 48.85 254.04 49.12 301.58 C 90.09 301.38 131.06 301.78 172.03 301.38 C 171.91 295.10 172.17 288.81 171.85 282.53 C 171.79 246.61 171.75 210.69 171.87 174.77 C 172.12 169.50 171.96 164.23 172.00 158.96 C 131.00 158.92 90.00 158.95 49.00 158.94 M 9.50 182.14 C 9.31 191.59 9.39 201.05 9.51 210.50 C 12.01 210.45 14.52 210.42 17.03 210.35 C 17.45 213.00 17.44 215.68 17.28 218.34 C 14.65 218.39 12.02 218.40 9.40 218.38 C 9.41 221.02 9.44 223.67 9.52 226.32 C 12.13 226.28 14.75 226.28 17.36 226.33 C 17.34 228.92 17.49 231.52 17.21 234.10 C 14.61 234.31 12.00 234.23 9.40 234.22 C 9.41 236.78 9.40 239.34 9.36 241.90 C 11.99 242.11 14.64 242.17 17.28 242.11 C 17.34 244.74 17.34 247.37 17.28 250.00 C 14.64 249.98 11.99 250.01 9.34 250.12 C 9.56 259.45 9.28 268.79 9.46 278.12 C 9.49 282.09 12.94 285.62 16.92 285.65 C 24.93 285.77 32.95 285.61 40.97 285.75 C 41.26 248.77 41.01 211.79 41.09 174.81 C 33.06 174.82 25.03 174.68 17.01 174.85 C 13.14 174.87 9.52 178.21 9.50 182.14 M 464.97 214.69 C 464.93 227.69 464.93 240.69 464.96 253.70 C 469.45 252.62 473.71 250.28 476.54 246.57 C 481.91 239.92 482.16 229.76 477.25 222.79 C 474.40 218.60 469.84 215.87 464.97 214.69 M 394.36 282.41 C 388.95 284.58 388.04 292.81 392.93 296.03 C 397.37 299.61 404.73 296.58 405.43 290.94 C 406.66 285.01 399.80 279.65 394.36 282.41 M 71.51 309.50 C 74.06 314.75 76.61 320.00 79.08 325.28 C 104.72 325.33 130.35 325.30 155.98 325.30 C 155.95 320.03 155.87 314.76 156.00 309.50 C 127.84 309.47 99.67 309.46 71.51 309.50 M 80.70 333.27 C 80.70 336.55 80.71 339.82 80.69 343.10 C 85.95 347.27 91.13 351.55 96.43 355.66 C 98.02 357.20 100.96 358.28 100.53 360.96 C 100.56 386.66 100.43 412.37 100.59 438.07 C 104.31 443.22 109.64 447.27 113.94 452.05 C 125.32 452.01 136.69 452.09 148.06 452.06 C 147.78 446.04 148.27 440.00 147.92 433.99 C 142.98 428.43 137.43 423.37 132.20 418.06 C 132.21 389.80 132.17 361.53 132.22 333.27 C 115.05 333.23 97.87 333.22 80.70 333.27 Z" />
<path fill="#663399" opacity="1.00" d=" M 433.23 242.15 C 435.89 242.10 438.56 242.12 441.22 242.24 C 441.18 244.80 441.30 247.37 441.10 249.93 C 438.48 250.19 435.84 250.04 433.23 249.96 C 433.24 247.35 433.24 244.75 433.23 242.15 Z" />
<path fill="#663399" opacity="1.00" d=" M 199.98 313.96 C 237.11 329.07 274.13 344.45 311.15 359.83 C 302.19 365.23 293.16 370.51 284.20 375.92 C 283.05 376.62 281.90 377.31 280.76 378.01 C 286.05 383.29 291.32 388.59 296.61 393.87 C 291.06 399.40 285.54 404.96 279.98 410.48 C 274.65 405.22 269.39 399.88 264.05 394.63 C 263.73 395.21 263.08 396.37 262.75 396.95 C 257.09 406.31 251.52 415.72 245.90 425.10 C 230.55 388.07 215.34 350.99 199.98 313.96 M 214.71 328.59 C 224.91 353.87 235.41 379.03 245.65 404.29 C 246.19 405.20 246.24 406.72 247.53 406.91 C 252.54 398.59 257.49 390.24 262.58 381.97 C 268.43 387.65 273.91 393.75 280.02 399.15 C 281.98 397.55 283.68 395.67 285.46 393.88 C 279.75 387.96 273.78 382.30 268.10 376.35 C 276.38 371.47 284.58 366.48 292.81 361.53 C 292.78 361.29 292.73 360.80 292.71 360.55 C 266.73 349.84 240.74 339.17 214.71 328.59 Z" />
<path fill="#663399" opacity="1.00" d=" M 370.00 369.00 C 372.60 368.99 375.21 369.00 377.83 369.04 C 377.80 372.94 377.81 376.83 377.79 380.73 C 381.74 380.79 385.70 380.80 389.66 380.68 C 389.70 383.35 389.70 386.01 389.69 388.68 C 385.72 388.70 381.76 388.70 377.80 388.70 C 377.82 392.66 377.82 396.63 377.76 400.59 C 375.20 400.58 372.64 400.61 370.09 400.66 C 369.96 396.68 369.99 392.70 370.00 388.72 C 366.02 388.68 362.05 388.69 358.07 388.74 C 358.00 386.08 357.99 383.42 357.99 380.77 C 361.96 380.76 365.93 380.77 369.90 380.75 C 370.04 376.83 370.01 372.91 370.00 369.00 Z" />
</g>
<g id="#fdfdfdff">
<path fill="#fdfdfd" opacity="1.00" d=" M 393.59 178.52 C 396.25 178.70 398.92 178.71 401.58 178.50 C 401.54 186.49 401.53 194.47 401.59 202.45 C 409.92 202.68 418.27 202.34 426.60 202.62 C 413.83 216.02 400.34 228.72 387.54 242.08 C 392.19 242.17 396.84 242.12 401.50 242.06 C 401.62 252.76 401.55 263.45 401.54 274.14 C 398.91 273.74 396.25 273.77 393.62 274.15 C 393.65 266.14 393.63 258.13 393.67 250.12 C 385.28 249.90 376.89 250.16 368.51 249.98 C 381.45 236.61 394.85 223.68 407.86 210.37 C 403.13 210.43 398.39 210.44 393.65 210.42 C 393.61 199.79 393.70 189.15 393.59 178.52 Z" />
<path fill="#fdfdfd" opacity="1.00" d=" M 214.71 328.59 C 240.74 339.17 266.73 349.84 292.71 360.55 C 292.73 360.80 292.78 361.29 292.81 361.53 C 284.58 366.48 276.38 371.47 268.10 376.35 C 273.78 382.30 279.75 387.96 285.46 393.88 C 283.68 395.67 281.98 397.55 280.02 399.15 C 273.91 393.75 268.43 387.65 262.58 381.97 C 257.49 390.24 252.54 398.59 247.53 406.91 C 246.24 406.72 246.19 405.20 245.65 404.29 C 235.41 379.03 224.91 353.87 214.71 328.59 Z" />
</g>
<g id="#54D8A3ff">
<path fill="#54D8A3" opacity="1.00" d=" M 52.57 361.58 C 61.03 358.86 70.78 364.86 72.41 373.53 C 74.57 382.22 67.77 391.59 58.94 392.53 C 50.97 393.73 42.88 387.85 41.40 379.97 C 39.63 372.15 44.85 363.64 52.57 361.58 M 53.42 369.70 C 48.32 371.99 47.48 379.72 52.02 383.00 C 56.40 386.85 64.06 383.85 64.75 378.09 C 66.05 372.05 58.84 366.66 53.42 369.70 Z" />
<path fill="#54D8A3" opacity="1.00" d=" M 475.89 399.73 C 479.12 398.54 481.01 395.29 483.53 393.08 C 485.32 394.95 487.16 396.78 489.06 398.54 C 486.87 401.63 481.88 403.70 482.49 408.04 C 484.17 410.87 486.97 412.81 489.07 415.34 C 487.19 417.11 485.36 418.93 483.54 420.77 C 480.55 418.45 478.45 413.61 474.12 414.06 C 471.36 415.87 469.31 418.53 466.93 420.78 C 465.08 418.94 463.25 417.10 461.40 415.27 C 463.62 412.53 467.35 410.61 468.17 406.99 C 467.51 403.26 463.62 401.37 461.38 398.62 C 463.21 396.75 465.07 394.89 466.93 393.04 C 469.84 395.24 471.80 399.84 475.89 399.73 Z" />
</g>
</svg>
